<svg width="1440" height="1183" viewBox="0 0 1440 1183" fill="none" xmlns="http://www.w3.org/2000/svg">
<mask id="mask0_83_9709" style="mask-type:alpha" maskUnits="userSpaceOnUse" x="-203" y="0" width="1846" height="1184">
<g opacity="0.4">
<path d="M-202.91 1183L1631.18 1183" stroke="#DDDDDD"/>
<path d="M-200.562 995.129L1632.35 995.129" stroke="#DDDDDD"/>
<path d="M1263.07 1183V4.72665e-05" stroke="#DDDDDD"/>
<path d="M-199.387 807.258L1634.7 807.258" stroke="#DDDDDD"/>
<path d="M1075.2 1183V4.72665e-05" stroke="#DDDDDD"/>
<path d="M-197.039 619.387L1635.88 619.387" stroke="#DDDDDD"/>
<path d="M887.328 1183V4.72665e-05" stroke="#DDDDDD"/>
<path d="M-195.867 431.516L1638.22 431.516" stroke="#DDDDDD"/>
<path d="M699.457 1183V4.72665e-05" stroke="#DDDDDD"/>
<path d="M-193.516 243.645L1640.57 243.645" stroke="#DDDDDD"/>
<path d="M511.586 1183V4.72665e-05" stroke="#DDDDDD"/>
<path d="M-192.344 55.7734L1641.75 55.7734" stroke="#DDDDDD"/>
<path d="M323.715 1183V4.72665e-05" stroke="#DDDDDD"/>
<path d="M135.844 1183V4.72665e-05" stroke="#DDDDDD"/>
<path d="M-201.734 1089.06L1632.36 1089.06" stroke="#DDDDDD"/>
<path d="M1357 1183V4.72665e-05" stroke="#DDDDDD"/>
<path d="M-200.562 901.193L1633.53 901.193" stroke="#DDDDDD"/>
<path d="M1169.13 1183V4.72665e-05" stroke="#DDDDDD"/>
<path d="M-198.215 713.322L1635.88 713.322" stroke="#DDDDDD"/>
<path d="M981.266 1183V4.72665e-05" stroke="#DDDDDD"/>
<path d="M-197.039 525.451L1637.05 525.451" stroke="#DDDDDD"/>
<path d="M793.391 1183V4.72665e-05" stroke="#DDDDDD"/>
<path d="M-194.691 337.582L1639.4 337.582" stroke="#DDDDDD"/>
<path d="M605.523 1183V4.72665e-05" stroke="#DDDDDD"/>
<path d="M-192.344 149.709L1640.57 149.709" stroke="#DDDDDD"/>
<path d="M417.652 1183V4.72665e-05" stroke="#DDDDDD"/>
<path d="M229.781 1183V4.72665e-05" stroke="#DDDDDD"/>
<path d="M41.9102 1183V4.72665e-05" stroke="#DDDDDD"/>
<path d="M-202.91 1136.03L1631.18 1136.03" stroke="#DDDDDD"/>
<path d="M1403.97 1183V4.72665e-05" stroke="#DDDDDD"/>
<path d="M-200.562 948.162L1633.53 948.162" stroke="#DDDDDD"/>
<path d="M1216.1 1183V4.72665e-05" stroke="#DDDDDD"/>
<path d="M-198.215 760.289L1634.7 760.289" stroke="#DDDDDD"/>
<path d="M1028.23 1183V4.72665e-05" stroke="#DDDDDD"/>
<path d="M-197.039 572.418L1637.05 572.418" stroke="#DDDDDD"/>
<path d="M840.359 1183V4.72665e-05" stroke="#DDDDDD"/>
<path d="M-194.691 384.549L1638.22 384.549" stroke="#DDDDDD"/>
<path d="M652.488 1183V4.72665e-05" stroke="#DDDDDD"/>
<path d="M-193.516 196.678L1640.57 196.678" stroke="#DDDDDD"/>
<path d="M464.617 1183V4.72665e-05" stroke="#DDDDDD"/>
<path d="M-191.168 8.80664L1642.92 8.80664" stroke="#DDDDDD"/>
<path d="M276.746 1183V4.72665e-05" stroke="#DDDDDD"/>
<path d="M88.875 1183V4.72665e-05" stroke="#DDDDDD"/>
<path d="M-201.734 1042.1L1632.36 1042.1" stroke="#DDDDDD"/>
<path d="M1310.04 1183V4.72665e-05" stroke="#DDDDDD"/>
<path d="M-199.387 854.227L1634.7 854.227" stroke="#DDDDDD"/>
<path d="M1122.17 1183V4.72665e-05" stroke="#DDDDDD"/>
<path d="M-198.215 666.355L1635.88 666.355" stroke="#DDDDDD"/>
<path d="M934.297 1183V4.72665e-05" stroke="#DDDDDD"/>
<path d="M-195.867 478.484L1638.22 478.484" stroke="#DDDDDD"/>
<path d="M746.426 1183V4.72665e-05" stroke="#DDDDDD"/>
<path d="M-194.691 290.613L1639.4 290.613" stroke="#DDDDDD"/>
<path d="M558.555 1183V4.72665e-05" stroke="#DDDDDD"/>
<path d="M-192.344 102.742L1641.75 102.742" stroke="#DDDDDD"/>
<path d="M370.684 1183V4.72665e-05" stroke="#DDDDDD"/>
<path d="M182.812 1183V4.72665e-05" stroke="#DDDDDD"/>
</g>
</mask>
<g mask="url(#mask0_83_9709)">
<g filter="url(#filter0_f_83_9709)">
<rect x="1565.43" y="582.986" width="1690.84" height="652.852" transform="rotate(180 1565.43 582.986)" fill="#D3D3D3" fill-opacity="0.7"/>
</g>
</g>
<defs>
<filter id="filter0_f_83_9709" x="-525.41" y="-469.865" width="2490.84" height="1452.85" filterUnits="userSpaceOnUse" color-interpolation-filters="sRGB">
<feFlood flood-opacity="0" result="BackgroundImageFix"/>
<feBlend mode="normal" in="SourceGraphic" in2="BackgroundImageFix" result="shape"/>
<feGaussianBlur stdDeviation="200" result="effect1_foregroundBlur_83_9709"/>
</filter>
</defs>
</svg>
