<svg width="1600" height="182" viewBox="0 0 1600 182" fill="none" xmlns="http://www.w3.org/2000/svg">
<path opacity="0.54" d="M530.002 32.3489C250.289 32.9505 92.1731 88.677 90.713 89.4174L91.2275 89.5613C91.603 89.3865 147.576 69.1864 255.81 52.6571C352.473 37.8913 510.297 23.6859 713.233 39.8398C802.874 46.9451 900.831 51.5414 1004.52 53.4694C1090.47 55.0051 1176.59 54.8558 1262.51 53.0221C1412.77 49.8911 1516.27 42.8475 1517.36 42.7755L1517.23 42.5441C1516.2 42.6161 1412.68 49.6546 1262.52 52.7856C1123.93 55.6699 916.169 55.7264 713.372 39.5828C653.144 34.7093 591.656 32.2836 530.002 32.3489Z" fill="#C0BEF8" fill-opacity="0.3"/>
<path opacity="0.59" d="M535.572 29.8415C508.445 29.8969 481.346 30.4821 454.386 31.5947C386.563 34.3776 320.109 40.6184 256.915 50.1394C213.212 56.7009 171.472 64.925 132.37 74.6788C104.557 81.6864 88.8427 87.0179 88.3698 87.3367L88.9539 87.4652C89.2599 87.3007 147.361 66.9 257.764 50.2833C356.04 35.4712 515.505 21.1733 717.162 37.1884C806.246 44.2629 903.952 48.7564 1007.54 50.5558C1093.53 51.9757 1179.67 51.6891 1265.57 49.6972C1415.99 46.2937 1520.06 39.0084 1521.08 38.9365L1520.95 38.6897C1519.91 38.7617 1415.9 46.0469 1265.52 49.4504C1126.75 52.5866 918.971 52.9671 717.301 36.9519C657.601 32.152 596.666 29.7678 535.572 29.8415Z" fill="#C0BEF8" fill-opacity="0.3"/>
<path opacity="0.63" d="M541.224 27.3148C513.46 27.3738 485.723 27.9796 458.133 29.1297C389.537 31.9934 322.31 38.2891 258.298 47.844C213.748 54.461 171.125 62.7293 131.083 72.5222C101.476 79.8383 86.1927 85.0207 85.8867 85.2881L86.5405 85.3961C87.2219 85.0053 103.075 79.7406 132.223 72.5428C172.294 62.7768 214.935 54.5345 259.494 47.9417C359.384 33.0782 520.573 18.6774 720.964 34.5589C809.548 41.5767 906.935 45.9726 1010.4 47.6178C1096.42 48.923 1182.56 48.5008 1268.46 46.353C1419.09 42.677 1523.63 35.145 1524.62 35.0679L1524.48 34.8057C1523.43 34.8828 1418.94 42.4148 1268.35 46.0857C1129.37 49.4789 921.606 50.1987 721.048 34.2967C661.967 29.57 601.672 27.229 541.224 27.3148Z" fill="#C0BEF8" fill-opacity="0.3"/>
<path opacity="0.67" d="M546.883 24.7923C448.49 24.9935 351.079 32.0362 259.729 45.5529C148.784 61.9587 84.0082 82.524 83.4797 83.2386L83.8413 83.2746L84.189 83.3311C85.8439 82.3029 150.94 61.8611 261.245 45.63C362.762 30.6894 525.578 16.1857 724.815 31.9336C812.926 38.8949 909.951 43.1879 1013.32 44.6994C1099.37 45.8828 1185.52 45.3232 1271.41 43.0233C1422.26 39.0697 1527.28 31.2909 1528.33 31.1984L1528.17 30.9259C1527.13 31.003 1422.15 38.7818 1271.34 42.7251C1132.16 46.3703 924.4 47.4037 724.982 31.6456C666.46 26.9887 606.745 24.6909 546.883 24.7923Z" fill="#C0BEF8" fill-opacity="0.3"/>
<path opacity="0.71" d="M552.558 22.2453C479.841 22.4169 407.529 26.2657 337.634 33.6847C228.65 45.1806 150.649 62.5325 113.853 71.8537C93.7855 76.9384 81.2421 80.851 81.0752 81.216L81.8678 81.2623H81.4784L81.84 81.3137C83.2306 80.342 150.482 59.7202 262.957 43.3657C411.076 21.8365 573.097 16.9626 728.682 29.3557C816.293 36.2605 913.04 40.4558 1016.24 41.8233C1102.3 42.8733 1188.45 42.161 1274.3 39.6897C1425.37 35.4687 1530.89 27.4431 1531.93 27.3506L1531.78 27.0627C1530.72 27.1398 1425.25 35.1602 1274.23 39.4018C1134.86 43.2989 927.085 44.6613 728.794 29.0267C670.883 24.4202 611.793 22.1465 552.558 22.2453Z" fill="#C0BEF8" fill-opacity="0.3"/>
<path opacity="0.75" d="M558.123 19.7387C538.181 19.7799 518.277 20.0969 498.409 20.6899C433.09 22.6681 368.64 27.5126 306.417 35.1215C187.365 49.62 111.018 69.635 90.4509 75.419C89.9781 75.5527 78.7554 78.7146 78.686 79.1413H79.1032L79.4926 79.1876C80.8832 78.2364 148.135 57.7638 264.643 40.9929C369.413 25.9083 535.65 11.1733 732.551 26.6692C819.661 33.5174 916.116 37.615 1019.15 38.8386C1105.26 39.7864 1191.45 38.9539 1277.31 36.3451C1428.59 31.8465 1534.58 23.5793 1535.65 23.4919L1535.48 23.1885C1534.42 23.2759 1428.4 31.538 1277.22 36.0418C1137.66 40.1908 929.897 41.8772 732.718 26.371C675.334 21.8459 616.797 19.6223 558.123 19.7387Z" fill="#C0BEF8" fill-opacity="0.3"/>
<path opacity="0.79" d="M563.871 17.2274C538.905 17.2788 513.947 17.7604 488.999 18.6721C420.35 21.2224 352.794 26.847 287.815 35.4225C155.315 52.8258 80.7349 75.5247 79.9978 75.7303C76.2848 76.8768 76.2849 77.0156 76.2988 77.103H76.7297L77.1471 77.1442C78.343 76.2496 148.445 55.4941 266.274 38.7078C372.686 23.5512 540.62 8.7083 736.311 24.0602C822.92 30.857 919.027 34.857 1021.96 35.9418C1108.1 36.7697 1194.3 35.7981 1280.15 33.0318C1431.64 28.2658 1538.14 19.7518 1539.2 19.6644L1539.02 19.3508C1537.96 19.4382 1431.51 27.947 1280.06 32.7182C1140.29 37.1191 932.53 39.1294 736.491 23.7517C679.751 19.2936 621.878 17.1062 563.871 17.2274Z" fill="#C0BEF8" fill-opacity="0.3"/>
<path opacity="0.83" d="M569.56 14.6851C542.043 14.7452 514.552 15.3201 487.193 16.4074C416.731 19.259 347.461 25.251 280.891 34.2529C163.605 50.0264 87.9539 70.1855 75.5632 74.2985C74.0197 74.8126 73.9222 74.9257 73.9501 75.0337H74.395L74.8262 75.0748C75.9526 74.1957 146.583 53.5174 268.028 36.3968C375.942 21.1529 545.6 6.19682 740.289 21.4202C826.412 28.1605 922.213 32.0576 1025.01 33.0036C1111.18 33.7146 1197.39 32.6075 1283.22 29.6874C1434.94 24.649 1541.88 15.8882 1542.98 15.8059L1542.79 15.482C1541.73 15.5694 1434.79 24.3251 1283.13 29.3635C1143.16 33.9907 935.466 36.3557 740.484 21.1015C684.294 16.7079 626.992 14.5568 569.56 14.6851Z" fill="#C0BEF8" fill-opacity="0.3"/>
<path opacity="0.88" d="M575.266 12.1531C546.266 12.2174 517.296 12.8473 488.476 14.04C416.817 17.0605 346.394 23.2432 278.712 32.4561C155.529 49.1036 79.6696 69.8899 72.48 72.4503C71.59 72.7691 71.4508 72.8822 71.5063 72.9644L72.4382 72.9079C72.4518 72.9281 72.4518 72.9493 72.4382 72.9696C74.2599 71.494 151.997 50.4712 269.645 34.0499C379.297 18.77 550.651 3.69054 744.131 18.77C829.767 25.4537 925.248 29.2685 1027.91 30.0808C1114.11 30.666 1200.33 29.4197 1286.15 26.3482C1438.09 21.0373 1545.56 12.0297 1546.63 11.9526L1546.42 11.6133C1545.35 11.7007 1437.95 20.7031 1286.05 26.0089C1145.89 30.9086 938.126 33.5769 744.326 18.4564C688.743 14.1292 632.066 12.0161 575.266 12.1531Z" fill="#C0BEF8" fill-opacity="0.3"/>
<path opacity="0.92" d="M580.966 9.61733C550.903 9.68939 520.873 10.3587 491.005 11.6224C418.373 14.7763 347 21.0836 278.362 30.4139C152.537 47.3802 75.6486 68.2693 69.7662 70.4749C69.1542 70.7011 68.9874 70.8194 69.0569 70.9376L70.0165 70.8554C70.0336 70.8789 70.0336 70.9038 70.0165 70.9273C71.7409 69.4724 150.423 48.4701 271.214 31.7712C382.466 16.3884 555.572 1.19073 747.94 16.1622C833.13 22.7893 928.278 26.4808 1030.81 27.1543C1117.05 27.6221 1203.29 26.2402 1289.09 23.0156C1441.17 17.4321 1549.21 8.17776 1550.28 8.08522L1550.06 7.73047C1548.99 7.82301 1441.08 17.0722 1288.98 22.6402C1148.62 27.7815 940.863 30.7841 748.19 15.792C693.202 11.5383 637.143 9.46835 580.966 9.61733Z" fill="#C0BEF8" fill-opacity="0.3"/>
<path opacity="0.96" d="M1553.71 3.86328C1552.63 3.95582 1444.24 13.4518 1291.92 19.2872C1151.37 24.6907 943.609 28.0274 752.076 13.1433C669.152 6.70641 582.348 5.36969 494.084 9.16911C422.647 12.2539 350.223 18.6651 278.813 28.2485C157.383 44.5413 74.8618 65.4149 67.2828 68.4329C66.8657 68.5974 66.6294 68.7311 66.7407 68.8648L67.714 68.7619C67.7363 68.787 67.7363 68.814 67.714 68.8391C69.3689 67.4046 149.052 46.4076 272.917 29.4464C385.851 13.9865 560.613 -1.33457 751.867 13.5084C836.502 20.1098 931.343 23.7087 1033.72 24.2331C1115.64 24.6547 1202.55 23.1277 1292.03 19.6882C1444.42 13.8271 1552.86 4.33114 1553.95 4.23346L1553.71 3.86328Z" fill="#C0BEF8" fill-opacity="0.3"/>
<path d="M1557.35 0C1556.27 0.0976847 1447.39 9.83531 1294.87 15.9637C1154.11 21.6192 946.36 25.2644 755.94 10.5242C673.35 4.13361 586.365 2.8637 497.406 6.75052C425.426 9.897 352.168 16.3956 279.66 26.0664C153.862 42.8425 70.9105 63.8653 64.8057 66.4153C64.4858 66.549 64.2075 66.693 64.3467 66.8369L65.348 66.7135C65.3676 66.7405 65.3676 66.7688 65.348 66.7958C66.9333 65.3768 147.66 44.3797 274.528 27.1666C389.103 11.6296 565.575 -3.8097 755.69 10.9098C839.837 17.4187 934.359 20.92 1036.6 21.3107C1118.41 21.6192 1205.33 19.9483 1294.94 16.3493C1447.59 10.2209 1556.52 0.478139 1557.6 0.375313L1557.35 0Z" fill="#C0BEF8" fill-opacity="0.3"/>
<g style="mix-blend-mode:darken">
<path d="M212.791 105.778L194.601 106.163H177.719C190.596 105.79 203.631 105.541 216.824 105.418L212.791 105.778Z" fill="#C0BEF8" fill-opacity="0.3"/>
<path d="M1608.39 71.6228C1631.1 69.52 1650.81 67.2938 1667.51 65.1602C1657.31 67.0659 1646.78 68.951 1635.93 70.8156C1619.55 72.5533 1601.23 74.2808 1581.01 75.8849C1590.23 74.5105 1599.35 73.0897 1608.39 71.6228Z" fill="#C0BEF8" fill-opacity="0.3"/>
<path d="M43.7985 105.448C48.7399 104.779 53.7369 104.12 58.7896 103.468L67.4811 103.34C62.1688 103.967 56.8473 104.615 51.5166 105.283L43.7985 105.448Z" fill="#C0BEF8" fill-opacity="0.3"/>
<path d="M321.469 102.414H321.65L315.058 102.723L321.469 102.414Z" fill="#C0BEF8" fill-opacity="0.3"/>
<path d="M1469.62 90.0206C1480.01 88.9272 1490.32 87.7773 1500.53 86.5708C1518.45 85.6933 1535.44 84.7062 1551.52 83.6094C1541.32 84.9804 1530.88 86.3034 1520.2 87.5785C1505.44 88.4148 1490.03 89.1706 1473.99 89.8458L1469.62 90.0206Z" fill="#C0BEF8" fill-opacity="0.3"/>
<path d="M1521.69 87.9854C1540.44 86.916 1558.11 85.7232 1574.65 84.4688C1563.7 85.9906 1552.66 87.449 1541.52 88.844C1524.68 89.9288 1506.92 90.9314 1488.27 91.8105C1499.66 90.5766 1510.8 89.3016 1521.69 87.9854Z" fill="#C0BEF8" fill-opacity="0.3"/>
<path d="M646.151 92.675L648.849 93.2611L649.308 93.3588C642.355 93.2817 635.485 93.2251 628.574 93.1737L625.375 92.5156C632.273 92.5533 639.198 92.6065 646.151 92.675Z" fill="#C0BEF8" fill-opacity="0.3"/>
<path d="M647.464 92.6875C654.417 92.7595 661.37 92.8366 668.407 92.9394L671.828 93.6592C664.754 93.5495 657.685 93.4536 650.621 93.3713L649.23 93.0577L647.464 92.6875Z" fill="#C0BEF8" fill-opacity="0.3"/>
<path d="M744.127 94.5964L748.925 95.4139C740.155 95.1534 731.375 94.9118 722.586 94.689L718.414 93.9023C726.925 94.108 735.519 94.3496 744.127 94.5964Z" fill="#C0BEF8" fill-opacity="0.3"/>
<path d="M1444.16 96.2262C1456.54 95.0814 1468.66 93.8817 1480.5 92.6273C1499.1 91.7995 1516.86 90.8432 1533.73 89.8047C1521.96 91.2374 1510.09 92.6084 1498.12 93.9177C1485.61 94.5552 1472.71 95.1379 1459.43 95.6658C1454.42 95.8611 1449.33 96.0479 1444.16 96.2262Z" fill="#C0BEF8" fill-opacity="0.3"/>
<path d="M691.974 93.3219L695.701 94.0622C688.163 93.9114 680.621 93.7794 673.075 93.6663L669.64 92.9414C677.038 93.0648 684.492 93.1985 691.974 93.3219Z" fill="#C0BEF8" fill-opacity="0.3"/>
<path d="M623.876 92.5068L627.102 93.1649C619.991 93.1203 612.894 93.0861 605.811 93.0621L602.488 92.4297C609.58 92.44 616.71 92.4657 623.876 92.5068Z" fill="#C0BEF8" fill-opacity="0.3"/>
<path d="M499.322 93.3594L502.84 93.7964C494.607 93.9403 486.379 94.1014 478.156 94.2797C477.057 94.1511 475.945 94.0175 474.832 93.8941C482.935 93.6987 491.098 93.5205 499.322 93.3594Z" fill="#C0BEF8" fill-opacity="0.3"/>
<path d="M526.137 92.9141L529.683 93.4282C521.701 93.5276 513.719 93.6424 505.737 93.7727C504.61 93.6236 503.484 93.4693 502.344 93.3254C510.242 93.1677 518.174 93.0306 526.137 92.9141Z" fill="#C0BEF8" fill-opacity="0.3"/>
<path d="M471.313 93.9844L474.692 94.3494C466.228 94.5413 457.773 94.7521 449.327 94.9818L446.073 94.663C454.444 94.4197 462.858 94.1935 471.313 93.9844Z" fill="#C0BEF8" fill-opacity="0.3"/>
<path d="M552.023 92.625L555.472 93.17C547.722 93.2214 539.981 93.2934 532.249 93.3859L528.814 92.8718C536.509 92.7758 544.245 92.6936 552.023 92.625Z" fill="#C0BEF8" fill-opacity="0.3"/>
<path d="M576.911 92.4609L580.263 93.0522C572.744 93.0522 565.221 93.083 557.693 93.1447L554.286 92.5998C561.786 92.5381 569.328 92.4918 576.911 92.4609Z" fill="#C0BEF8" fill-opacity="0.3"/>
<path d="M590.736 94.9336L593.809 95.5043C586.467 95.5043 579.124 95.5043 571.782 95.5043L568.694 94.9901C575.991 94.9559 583.338 94.937 590.736 94.9336Z" fill="#C0BEF8" fill-opacity="0.3"/>
<path d="M600.794 92.4303C601.921 92.6411 603.033 92.8416 604.16 93.0575C596.859 93.0575 589.558 93.0575 582.257 93.0575L578.836 92.4662C586.123 92.4388 593.442 92.4268 600.794 92.4303Z" fill="#C0BEF8" fill-opacity="0.3"/>
<path d="M1178.79 102.316C1191.05 102.738 1203.35 103.096 1215.68 103.391C1199.98 103.902 1184.16 104.315 1168.22 104.63C1156.94 104.239 1145.54 103.787 1134.02 103.273C1149.05 103.036 1163.97 102.717 1178.79 102.316Z" fill="#C0BEF8" fill-opacity="0.3"/>
<path d="M467.144 97.375L469.62 97.6629C461.053 97.8206 452.496 98.0022 443.948 98.2079L441.668 97.9765C450.095 97.7554 458.606 97.5601 467.144 97.375Z" fill="#C0BEF8" fill-opacity="0.3"/>
<path d="M440.271 94.108L436.795 93.7841C445.203 93.5065 453.677 93.2477 462.216 93.0078L465.831 93.3883C457.302 93.6111 448.782 93.851 440.271 94.108Z" fill="#C0BEF8" fill-opacity="0.3"/>
<path d="M497.347 92.6822L493.745 92.2349C501.737 92.0636 509.789 91.911 517.901 91.7773L521.6 92.2915C513.506 92.4012 505.422 92.5314 497.347 92.6822Z" fill="#C0BEF8" fill-opacity="0.3"/>
<path d="M574.911 91.7816L571.393 91.1853C578.81 91.1441 586.227 91.1201 593.643 91.1133C594.784 91.3189 595.938 91.54 597.078 91.7508C589.722 91.7508 582.31 91.7816 574.911 91.7816Z" fill="#C0BEF8" fill-opacity="0.3"/>
<path d="M550.044 91.9447L546.456 91.3843C554.049 91.3055 561.683 91.2438 569.36 91.1992L572.92 91.7802C565.299 91.8213 557.674 91.8762 550.044 91.9447Z" fill="#C0BEF8" fill-opacity="0.3"/>
<path d="M524.226 92.2365L520.597 91.7223C528.384 91.599 536.213 91.4858 544.084 91.3984C545.336 91.5835 546.574 91.7635 547.811 91.9537C539.94 92.0325 532.079 92.1268 524.226 92.2365Z" fill="#C0BEF8" fill-opacity="0.3"/>
<path d="M469.377 93.3255L465.831 92.9399C474.045 92.7137 482.315 92.5098 490.64 92.3281C491.864 92.4721 493.087 92.6263 494.297 92.7754C485.981 92.9228 477.674 93.1062 469.377 93.3255Z" fill="#C0BEF8" fill-opacity="0.3"/>
<path d="M1397.71 89.8524C1411.79 89.6331 1425.78 89.3229 1439.68 88.9219C1429.44 89.9501 1419.11 90.9287 1408.7 91.8576C1395.2 92.1352 1381.21 92.3357 1366.72 92.4591C1377.1 91.6331 1387.43 90.7642 1397.71 89.8524Z" fill="#C0BEF8" fill-opacity="0.3"/>
<path d="M644.262 91.9961L641.036 91.2969C647.989 91.3586 654.943 91.4408 661.896 91.5282L665.178 92.2429C658.178 92.1503 651.206 92.0681 644.262 91.9961Z" fill="#C0BEF8" fill-opacity="0.3"/>
<path d="M666.301 92.2576C665.202 92.0262 664.118 91.7795 663.019 91.543C670.25 91.6424 677.51 91.7555 684.797 91.8823L688.426 92.6226C681.056 92.489 673.681 92.3673 666.301 92.2576Z" fill="#C0BEF8" fill-opacity="0.3"/>
<path d="M598.907 91.7781L595.417 91.1406C602.611 91.1406 609.842 91.1526 617.111 91.1766L620.504 91.8398C613.301 91.7987 606.102 91.7781 598.907 91.7781Z" fill="#C0BEF8" fill-opacity="0.3"/>
<path d="M621.953 91.8195L618.615 91.1562C625.569 91.1871 632.647 91.2282 639.725 91.2848L642.952 91.984C635.943 91.9189 628.943 91.864 621.953 91.8195Z" fill="#C0BEF8" fill-opacity="0.3"/>
<path d="M579.627 97.2465L582.408 97.7606C574.969 97.7606 567.515 97.7606 560.075 97.7606L557.293 97.303C564.692 97.2619 572.136 97.2431 579.627 97.2465Z" fill="#C0BEF8" fill-opacity="0.3"/>
<path d="M310.754 99.8405L308.585 99.7737C317.642 99.2253 326.788 98.6992 336.022 98.1953L338.803 98.3084C329.421 98.7917 320.071 99.3024 310.754 99.8405Z" fill="#C0BEF8" fill-opacity="0.3"/>
<path d="M379.751 97.1055L382.462 97.2854C374.703 97.6008 366.952 97.9332 359.211 98.2828L355.039 98.4782L352.689 98.3497C361.635 97.9144 370.656 97.4996 379.751 97.1055Z" fill="#C0BEF8" fill-opacity="0.3"/>
<path d="M346.411 98.668L348.803 98.7811C339.412 99.2301 330.039 99.7014 320.685 100.195L318.863 100.128C327.958 99.6208 337.141 99.1341 346.411 98.668Z" fill="#C0BEF8" fill-opacity="0.3"/>
<path d="M444.842 98.8359L446.886 99.0416C438 99.2318 429.114 99.4323 420.228 99.6637L418.587 99.5146C427.246 99.2747 435.997 99.0484 444.842 98.8359Z" fill="#C0BEF8" fill-opacity="0.3"/>
<path d="M474.379 98.2188L476.729 98.4912C468.181 98.6283 459.633 98.7826 451.086 98.954L449.027 98.738C457.408 98.5564 465.859 98.3833 474.379 98.2188Z" fill="#C0BEF8" fill-opacity="0.3"/>
<path d="M409.942 95.135L406.548 94.8625C415.161 94.5198 423.834 94.201 432.567 93.9062L436.113 94.2199C427.38 94.5112 418.656 94.8163 409.942 95.135Z" fill="#C0BEF8" fill-opacity="0.3"/>
<path d="M411.583 95.832L414.656 96.0737C405.71 96.3822 396.777 96.7129 387.859 97.0659L385.147 96.8757C393.852 96.5055 402.664 96.1576 411.583 95.832Z" fill="#C0BEF8" fill-opacity="0.3"/>
<path d="M413.743 99.6523L415.357 99.7912L404.635 100.079C399.072 100.238 393.398 100.418 387.78 100.593L386.598 100.501C395.563 100.202 404.612 99.9197 413.743 99.6523Z" fill="#C0BEF8" fill-opacity="0.3"/>
<path d="M380.888 100.695L381.959 100.767C372.336 101.076 362.708 101.41 353.076 101.77L352.658 101.744C361.976 101.374 371.386 101.024 380.888 100.695Z" fill="#C0BEF8" fill-opacity="0.3"/>
<path d="M378.15 96.4071L375.174 96.222C383.944 95.8141 392.793 95.4302 401.721 95.0703L405.059 95.312C396.075 95.665 387.106 96.03 378.15 96.4071Z" fill="#C0BEF8" fill-opacity="0.3"/>
<path d="M554.939 97.2969L557.65 97.7493C549.974 97.7493 542.298 97.7819 534.621 97.847L532.021 97.446C539.614 97.3808 547.253 97.3312 554.939 97.2969Z" fill="#C0BEF8" fill-opacity="0.3"/>
<path d="M442.093 94.7969C443.206 94.8997 444.318 94.9974 445.417 95.1054C436.711 95.3521 428.015 95.6195 419.328 95.9074L416.269 95.6555C424.808 95.3539 433.416 95.0677 442.093 94.7969Z" fill="#C0BEF8" fill-opacity="0.3"/>
<path d="M347.863 97.8302L345.18 97.9741L342.579 97.8456C351.507 97.3726 360.509 96.9202 369.585 96.4883L372.575 96.6682C364.324 97.0384 356.087 97.4257 347.863 97.8302Z" fill="#C0BEF8" fill-opacity="0.3"/>
<path d="M717.217 93.8747L721.389 94.6562C713.23 94.454 705.058 94.2689 696.872 94.1009L693.103 93.3555C701.113 93.5097 709.151 93.6828 717.217 93.8747Z" fill="#C0BEF8" fill-opacity="0.3"/>
<path d="M1433.31 86.4472C1447.56 86.1044 1461.7 85.652 1475.73 85.0898C1466.16 86.1695 1456.53 87.1978 1446.84 88.1746C1433.36 88.5928 1419.29 88.9355 1404.64 89.2029C1414.26 88.3254 1423.82 87.4069 1433.31 86.4472Z" fill="#C0BEF8" fill-opacity="0.3"/>
<path d="M1048.78 105.83C1058.48 106.447 1068.22 107.025 1077.99 107.563C1058.36 107.457 1038.56 107.211 1018.58 106.828C1010.79 106.276 1002.98 105.697 995.134 105.09C1013.13 105.443 1031.01 105.69 1048.78 105.83Z" fill="#C0BEF8" fill-opacity="0.3"/>
<path d="M597.205 96.1236L600.069 96.684C592.796 96.6583 585.509 96.6377 578.236 96.6377L575.358 96.1236C582.608 96.1099 589.89 96.1099 597.205 96.1236Z" fill="#C0BEF8" fill-opacity="0.3"/>
<path d="M573.248 96.1289L576.169 96.643C568.668 96.643 561.168 96.6619 553.668 96.6996L550.789 96.2266C558.234 96.1786 565.72 96.146 573.248 96.1289Z" fill="#C0BEF8" fill-opacity="0.3"/>
<path d="M429.397 97.3359L431.915 97.5724C423.042 97.8192 414.175 98.0866 405.312 98.3745L403.128 98.1945C411.815 97.8929 420.572 97.6067 429.397 97.3359Z" fill="#C0BEF8" fill-opacity="0.3"/>
<path d="M398.021 98.375L400.204 98.5395C394.113 98.7452 388.022 98.9577 381.931 99.1771C378.871 99.2902 375.826 99.4187 372.767 99.5369L370.931 99.4187C379.84 99.0519 388.87 98.704 398.021 98.375Z" fill="#C0BEF8" fill-opacity="0.3"/>
<path d="M566.555 94.9805L569.711 95.4946C562.118 95.5152 554.53 95.5494 546.947 95.5974L543.859 95.1193C551.378 95.061 558.943 95.0147 566.555 94.9805Z" fill="#C0BEF8" fill-opacity="0.3"/>
<path d="M459.286 96.5234L462.067 96.8268C453.473 97.0187 444.884 97.2278 436.299 97.454L433.768 97.2124C442.214 96.9656 450.72 96.7359 459.286 96.5234Z" fill="#C0BEF8" fill-opacity="0.3"/>
<path d="M487.859 95.8906L490.807 96.2557C482.463 96.3928 474.156 96.5521 465.887 96.7338L463.105 96.4253C471.292 96.2368 479.543 96.0586 487.859 95.8906Z" fill="#C0BEF8" fill-opacity="0.3"/>
<path d="M1550.74 76.1699C1568.25 75.0234 1584.54 73.7535 1599.62 72.4219C1590.63 73.8477 1581.59 75.2187 1572.49 76.5349C1557.64 77.6557 1541.81 78.7097 1525.02 79.6454C1533.67 78.5349 1542.25 77.3764 1550.74 76.1699Z" fill="#C0BEF8" fill-opacity="0.3"/>
<path d="M1446.9 88.6929C1458.5 88.3502 1470.04 87.9286 1481.52 87.4282C1485.34 87.2637 1489.12 87.094 1492.89 86.9141C1482.64 88.0931 1472.32 89.2208 1461.94 90.297C1447.31 90.8454 1431.92 91.3064 1415.78 91.68C1426.23 90.7443 1436.6 89.7486 1446.9 88.6929Z" fill="#C0BEF8" fill-opacity="0.3"/>
<path d="M1517.42 80.6388C1534.02 79.7614 1549.72 78.7828 1564.52 77.7031C1555.41 79.009 1546.24 80.2738 1536.98 81.4974C1522.17 82.4074 1506.58 83.2403 1490.26 83.9601C1499.38 82.8907 1508.43 81.7836 1517.42 80.6388Z" fill="#C0BEF8" fill-opacity="0.3"/>
<path d="M1583.76 71.286C1603.01 69.7436 1620.41 68.0624 1635.97 66.3555C1630.75 67.2706 1625.44 68.1823 1620.06 69.0906C1616.08 69.7556 1612.08 70.412 1608.07 71.0598C1592.95 72.4633 1576.5 73.8104 1558.73 75.034C1567.14 73.8206 1575.48 72.5713 1583.76 71.286Z" fill="#C0BEF8" fill-opacity="0.3"/>
<path d="M1454 87.9691C1463.73 86.9409 1473.57 85.9126 1483.2 84.7866C1485.07 84.7095 1486.93 84.6427 1488.77 84.5604C1502.82 83.9486 1516.31 83.2494 1529.26 82.5039C1519.67 83.7447 1510 84.9357 1500.27 86.0771C1494.04 86.3856 1487.69 86.6769 1481.23 86.9511C1472.48 87.3144 1463.4 87.6538 1454 87.9691Z" fill="#C0BEF8" fill-opacity="0.3"/>
<path d="M331.159 101.291L326.111 101.533H324.803L330.199 101.266L331.159 101.291Z" fill="#C0BEF8" fill-opacity="0.3"/>
<path d="M1615.42 66.1683L1617.56 65.8033C1637.91 63.8005 1657.95 61.3978 1677.6 58.6055C1667.34 60.6311 1656.68 62.6448 1645.62 64.6465C1629.86 66.4717 1612.02 68.2968 1592.07 69.9883C1599.88 68.7441 1607.7 67.4794 1615.42 66.1683Z" fill="#C0BEF8" fill-opacity="0.3"/>
<path d="M364.979 99.668L366.718 99.7708C357.234 100.144 347.759 100.544 338.293 100.969L337.208 100.912C346.35 100.477 355.607 100.062 364.979 99.668Z" fill="#C0BEF8" fill-opacity="0.3"/>
<path d="M450.98 95.6641L454.04 95.9725C445.39 96.1885 436.75 96.425 428.118 96.682L425.337 96.4353C433.811 96.1576 442.359 95.9006 450.98 95.6641Z" fill="#C0BEF8" fill-opacity="0.3"/>
<path d="M507.469 94.4141L510.779 94.8511C502.639 94.9676 494.517 95.103 486.415 95.2572L483.23 94.8819C491.268 94.7071 499.348 94.5512 507.469 94.4141Z" fill="#C0BEF8" fill-opacity="0.3"/>
<path d="M389.229 97.7344L391.649 97.9143C384.613 98.1714 377.585 98.4439 370.567 98.7318L364.309 99.0043L362.154 98.8809C371.091 98.4799 380.116 98.0977 389.229 97.7344Z" fill="#C0BEF8" fill-opacity="0.3"/>
<path d="M479.835 94.9492L483.062 95.3194C474.718 95.4839 466.346 95.6673 457.947 95.8695L454.887 95.5559C463.148 95.3365 471.464 95.1343 479.835 94.9492Z" fill="#C0BEF8" fill-opacity="0.3"/>
<path d="M420.792 96.5859L423.573 96.8276C414.673 97.1018 405.778 97.3983 396.887 97.717L394.439 97.5319C403.173 97.1995 411.957 96.8841 420.792 96.5859Z" fill="#C0BEF8" fill-opacity="0.3"/>
<path d="M1474.38 82.0085C1482.92 81.0214 1491.41 80.0034 1499.86 78.9546C1501.04 78.9032 1502.23 78.8569 1503.4 78.8004C1517.17 78.1663 1530.33 77.4568 1542.9 76.6719C1534.42 77.8304 1525.86 78.9683 1517.21 80.0857C1510.24 80.4559 1503.11 80.7986 1495.82 81.114C1488.9 81.4379 1481.74 81.7309 1474.38 82.0085Z" fill="#C0BEF8" fill-opacity="0.3"/>
<path d="M1530.9 74.8707C1546.63 73.9967 1561.49 73.0096 1575.4 71.9453C1567.19 73.1964 1558.91 74.4114 1550.58 75.5905C1536.78 76.4954 1522.23 77.3145 1506.91 78.048C1514.95 77.0198 1522.94 75.9607 1530.9 74.8707Z" fill="#C0BEF8" fill-opacity="0.3"/>
<path d="M1467.31 82.8023C1476.97 82.4596 1486.57 82.0843 1496.11 81.6764C1500.76 81.4707 1505.35 81.2497 1509.88 81.0234C1500.92 82.1511 1491.9 83.2359 1482.82 84.2779C1469.45 84.8332 1455.36 85.313 1440.54 85.7174C1449.53 84.7817 1458.45 83.81 1467.31 82.8023Z" fill="#C0BEF8" fill-opacity="0.3"/>
<path d="M1561.58 70.482C1578.42 69.3252 1594 68.045 1608.31 66.7031C1600.11 68.0741 1591.86 69.404 1583.55 70.6928C1569.53 71.8187 1554.54 72.8778 1538.55 73.8238C1546.28 72.7407 1553.96 71.6268 1561.58 70.482Z" fill="#C0BEF8" fill-opacity="0.3"/>
<path d="M1592.44 65.6707C1611.62 64.0512 1628.74 62.2826 1643.9 60.4883C1635.3 62.0684 1626.45 63.633 1617.35 65.1823C1602.83 66.627 1586.9 68.0203 1569.54 69.2953C1577.22 68.106 1584.85 66.8978 1592.44 65.6707Z" fill="#C0BEF8" fill-opacity="0.3"/>
<path d="M356.057 99.1641L358.115 99.272C348.686 99.6833 339.267 100.119 329.857 100.578L328.397 100.516C337.519 100.043 346.739 99.5925 356.057 99.1641Z" fill="#C0BEF8" fill-opacity="0.3"/>
<path d="M322.556 100.93C319.593 101.079 316.645 101.239 313.697 101.393H312.098L321.29 100.879L322.556 100.93Z" fill="#C0BEF8" fill-opacity="0.3"/>
<path d="M607.577 93.7238L610.762 94.3408C603.54 94.3099 596.332 94.2945 589.137 94.2945L585.883 93.7033C593.073 93.693 600.318 93.7033 607.577 93.7238Z" fill="#C0BEF8" fill-opacity="0.3"/>
<path d="M534.014 94.043L537.296 94.5571C529.411 94.6291 521.54 94.7268 513.655 94.8347L510.387 94.3977C518.23 94.2538 526.106 94.1355 534.014 94.043Z" fill="#C0BEF8" fill-opacity="0.3"/>
<path d="M652.425 94.0365L655.568 94.7151C648.671 94.6328 641.778 94.5591 634.889 94.494L631.83 93.8359C638.644 93.8874 645.509 93.9542 652.425 94.0365Z" fill="#C0BEF8" fill-opacity="0.3"/>
<path d="M699.234 94.7744L703.128 95.525C695.368 95.3536 687.609 95.2028 679.849 95.0726L676.33 94.3477C683.923 94.4813 691.558 94.615 699.234 94.7744Z" fill="#C0BEF8" fill-opacity="0.3"/>
<path d="M675.077 94.3465C676.231 94.5881 677.399 94.8247 678.567 95.0612C671.336 94.9378 664.109 94.8315 656.887 94.7424L653.744 94.0586C660.818 94.134 667.929 94.23 675.077 94.3465Z" fill="#C0BEF8" fill-opacity="0.3"/>
<path d="M559.512 93.8359L562.739 94.3501C555.09 94.3878 547.442 94.4392 539.793 94.5043L536.497 93.9902C544.137 93.9216 551.808 93.8702 559.512 93.8359Z" fill="#C0BEF8" fill-opacity="0.3"/>
<path d="M630.347 93.8372L633.435 94.4901C626.426 94.4285 619.417 94.3822 612.408 94.3513L609.279 93.7344C616.26 93.7515 623.283 93.7858 630.347 93.8372Z" fill="#C0BEF8" fill-opacity="0.3"/>
<path d="M583.974 93.707L587.255 94.288C579.839 94.288 572.422 94.3051 565.005 94.3394L561.709 93.7996C569.089 93.7516 576.51 93.7207 583.974 93.707Z" fill="#C0BEF8" fill-opacity="0.3"/>
<path d="M394.689 101.723C389.386 101.854 384.083 101.989 378.78 102.13C383.911 101.975 389.07 101.831 394.244 101.688L394.689 101.723Z" fill="#C0BEF8" fill-opacity="0.3"/>
<path d="M346.235 102.03L338.35 102.338H338.183L345.929 102.02L346.235 102.03Z" fill="#C0BEF8" fill-opacity="0.3"/>
<path d="M312.4 102.15C315.515 101.991 318.644 101.826 321.787 101.672H323.01L313.165 102.145L312.4 102.15Z" fill="#C0BEF8" fill-opacity="0.3"/>
<path d="M21.2407 103.904L19.85 103.929C23.5028 103.216 27.1879 102.507 30.9056 101.801H32.9081L28.2494 102.639C25.8853 103.054 23.5491 103.475 21.2407 103.904Z" fill="#C0BEF8" fill-opacity="0.3"/>
<path d="M17.1692 103.986C20.6597 103.267 24.1919 102.552 27.738 101.848H29.0314C25.3045 102.557 21.6331 103.272 17.9757 103.992L17.1692 103.986Z" fill="#C0BEF8" fill-opacity="0.3"/>
<path d="M23.2547 103.874L28.5947 102.887L34.8248 101.761L37.6061 101.73C33.5593 102.414 29.5126 103.124 25.4519 103.838L23.2547 103.874Z" fill="#C0BEF8" fill-opacity="0.3"/>
<path d="M689.629 92.6452L685.93 91.8945C693.718 92.0333 701.519 92.1927 709.377 92.3727L713.382 93.1439C705.455 92.9536 697.542 92.8045 689.629 92.6452Z" fill="#C0BEF8" fill-opacity="0.3"/>
<path d="M23.9948 101.891H24.1199L19.3499 102.919C20.9352 102.574 22.4651 102.225 23.9948 101.891Z" fill="#C0BEF8" fill-opacity="0.3"/>
<path d="M15.4267 104.019C18.7642 103.306 22.1389 102.591 25.5506 101.875H26.2737C22.7136 102.59 19.1676 103.304 15.6632 104.029L15.4267 104.019Z" fill="#C0BEF8" fill-opacity="0.3"/>
<path d="M40.4731 103.576C44.951 102.89 49.4799 102.215 54.0597 101.55L60.1785 101.488C55.3947 102.136 50.6016 102.803 45.7993 103.488L40.4731 103.576Z" fill="#C0BEF8" fill-opacity="0.3"/>
<path d="M27.6934 103.798C31.7077 103.092 35.773 102.394 39.8893 101.705L43.5884 101.664C39.3145 102.35 35.0452 103.035 30.7806 103.721L27.6934 103.798Z" fill="#C0BEF8" fill-opacity="0.3"/>
<path d="M33.3705 103.69C37.598 103.004 41.8812 102.319 46.22 101.633L51.0038 101.582C46.4981 102.25 41.9832 102.936 37.459 103.639L33.3705 103.69Z" fill="#C0BEF8" fill-opacity="0.3"/>
<path d="M339.029 101.664H338.737H337.694L338.403 101.633L339.029 101.664Z" fill="#C0BEF8" fill-opacity="0.3"/>
<path d="M400.087 102.16L396.04 102.242L399.948 102.145L400.087 102.16Z" fill="#C0BEF8" fill-opacity="0.3"/>
<path d="M681.891 95.717C683.059 95.9586 684.241 96.1951 685.423 96.4316C678.006 96.2911 670.589 96.1694 663.173 96.0666L659.905 95.3828C667.164 95.4754 674.493 95.5936 681.891 95.717Z" fill="#C0BEF8" fill-opacity="0.3"/>
<path d="M1428.49 94.0707C1439.8 93.0424 1451 91.9508 1462.12 90.7957C1466.15 90.6466 1470.2 90.4975 1474.22 90.3278C1487.38 89.7829 1500.12 89.1762 1512.43 88.5078C1501.47 89.7931 1490.23 91.039 1478.74 92.2455C1474.76 92.4203 1470.75 92.5917 1466.71 92.7597C1454.51 93.2498 1441.77 93.6868 1428.49 94.0707Z" fill="#C0BEF8" fill-opacity="0.3"/>
<path d="M406.177 99.0195L408.054 99.1686L393.285 99.6313C389.114 99.7702 384.816 99.9244 380.589 100.074L379.073 99.9655C388.029 99.6296 397.063 99.3143 406.177 99.0195Z" fill="#C0BEF8" fill-opacity="0.3"/>
<path d="M373.262 100.18L374.652 100.277C365.113 100.62 355.582 100.983 346.061 101.367L345.296 101.326C354.521 100.925 363.843 100.543 373.262 100.18Z" fill="#C0BEF8" fill-opacity="0.3"/>
<path d="M1433.55 85.8976C1421.12 86.1992 1408.22 86.434 1394.85 86.602C1403.77 85.7725 1412.65 84.9156 1421.46 84.0313C1434.53 83.7845 1447.47 83.4538 1460.3 83.0391C1451.45 84.0296 1442.53 84.9825 1433.55 85.8976Z" fill="#C0BEF8" fill-opacity="0.3"/>
<path d="M1523.44 75.2773C1515.54 76.3433 1507.6 77.3716 1499.6 78.3621C1487.21 78.9122 1474.14 79.3904 1460.35 79.812C1468.27 78.9071 1476.12 77.9662 1483.99 76.9997C1492.98 76.6706 1501.91 76.3108 1510.74 75.8943C1515.03 75.7024 1519.26 75.4967 1523.44 75.2773Z" fill="#C0BEF8" fill-opacity="0.3"/>
<path d="M1467.31 82.2513C1454.87 82.6797 1441.86 83.0345 1428.27 83.3155C1436.61 82.4449 1444.96 81.5486 1453.3 80.6266C1466.55 80.2633 1479.66 79.8057 1492.64 79.2539C1484.23 80.289 1475.79 81.2881 1467.31 82.2513Z" fill="#C0BEF8" fill-opacity="0.3"/>
<path d="M1397.88 89.3252C1385.46 89.5103 1372.65 89.6286 1359.43 89.68C1368.92 88.9088 1378.36 88.0965 1387.74 87.243C1400.78 87.1093 1413.74 86.8968 1426.61 86.6055C1417.1 87.5515 1407.52 88.4581 1397.88 89.3252Z" fill="#C0BEF8" fill-opacity="0.3"/>
<path d="M1352.61 93.0646C1341.59 93.8975 1330.51 94.6789 1319.34 95.409C1307.17 95.3679 1294.72 95.2616 1282 95.0902C1285.27 94.9 1288.54 94.7098 1291.74 94.5093C1299.4 94.0363 1307.03 93.541 1314.64 93.0234C1327.34 93.1057 1340 93.1194 1352.61 93.0646Z" fill="#C0BEF8" fill-opacity="0.3"/>
<path d="M1498.52 94.3522C1519.27 93.2879 1538.85 92.09 1557.34 90.8047C1544.83 92.3985 1532.19 93.91 1519.42 95.3393C1500.33 96.4087 1480.22 97.437 1459.18 98.2853C1472.43 97.0514 1485.54 95.7403 1498.52 94.3522Z" fill="#C0BEF8" fill-opacity="0.3"/>
<path d="M1561.44 69.8544C1548.57 70.7422 1534.93 71.5476 1520.54 72.2708C1527.72 71.2871 1534.84 70.2794 1541.92 69.2478C1556.81 68.3892 1570.8 67.4174 1583.87 66.3789C1576.45 67.5648 1568.97 68.7233 1561.44 69.8544Z" fill="#C0BEF8" fill-opacity="0.3"/>
<path d="M1553.7 71.0039C1546.11 72.1247 1538.47 73.213 1530.8 74.2686C1524.15 74.632 1517.34 74.985 1510.37 75.3277C1504.05 75.6259 1497.51 75.907 1490.77 76.1709C1498.34 75.2181 1505.86 74.2429 1513.33 73.2455L1518.02 73.0347C1530.46 72.4246 1542.35 71.7477 1553.7 71.0039Z" fill="#C0BEF8" fill-opacity="0.3"/>
<path d="M1178.81 101.827C1168.13 101.457 1157.33 101.035 1146.41 100.562C1159.9 100.254 1173.3 99.8801 1186.63 99.4414C1198.03 99.839 1209.44 100.182 1220.85 100.47C1206.94 100.994 1192.93 101.447 1178.81 101.827Z" fill="#C0BEF8" fill-opacity="0.3"/>
<path d="M741.214 93.8775L736.639 93.0703C745.845 93.3274 755.116 93.6153 764.452 93.934L769.75 94.7824C760.219 94.4533 750.708 94.1517 741.214 93.8775Z" fill="#C0BEF8" fill-opacity="0.3"/>
<path d="M771.673 94.8639L766.375 94.0156C777.055 94.3789 787.8 94.7817 798.61 95.2238L804.798 96.1236C793.756 95.654 782.715 95.2341 771.673 94.8639Z" fill="#C0BEF8" fill-opacity="0.3"/>
<path d="M714.504 93.1645L710.457 92.3984C718.653 92.5835 726.886 92.7926 735.155 93.0257L739.758 93.8329C731.34 93.5895 722.922 93.3667 714.504 93.1645Z" fill="#C0BEF8" fill-opacity="0.3"/>
<path d="M1013.38 102.941C1006.51 102.434 999.623 101.898 992.726 101.332C1007.9 101.517 1023 101.627 1038.01 101.661C1046.13 102.227 1054.27 102.765 1062.42 103.275C1046.2 103.255 1029.85 103.143 1013.38 102.941Z" fill="#C0BEF8" fill-opacity="0.3"/>
<path d="M852.222 98.2557C849.441 97.9061 846.66 97.5462 843.878 97.1914C858.211 97.8015 872.489 98.3533 886.71 98.8469C890.52 99.2788 894.345 99.7038 898.183 100.122C882.932 99.5701 867.612 98.948 852.222 98.2557Z" fill="#C0BEF8" fill-opacity="0.3"/>
<path d="M388.561 101.255C380.329 101.491 372.092 101.743 363.85 102.01H363.433C371.489 101.726 379.601 101.457 387.769 101.203L388.561 101.255Z" fill="#C0BEF8" fill-opacity="0.3"/>
<path d="M12.7583 104.067L5.80511 104.201C8.78109 103.471 11.7711 102.741 14.8027 102.011L21.8253 101.918L17.0416 103.064L12.7583 104.067Z" fill="#C0BEF8" fill-opacity="0.3"/>
<path d="M-2.0207 104.361C0.969172 103.616 3.98689 102.865 7.0463 102.12L13.8744 102.027C10.8428 102.757 7.85296 103.493 4.87699 104.223L-2.0207 104.361Z" fill="#C0BEF8" fill-opacity="0.3"/>
<path d="M481.141 99.0273L483.227 99.2844C474.697 99.3975 466.168 99.526 457.639 99.67L455.845 99.4746C464.217 99.3101 472.648 99.161 481.141 99.0273Z" fill="#C0BEF8" fill-opacity="0.3"/>
<path d="M614.062 94.985L617.066 95.5968C609.932 95.5557 602.798 95.5197 595.664 95.5043L592.632 94.9336C599.734 94.9404 606.877 94.9576 614.062 94.985Z" fill="#C0BEF8" fill-opacity="0.3"/>
<path d="M437.433 98.0898L439.672 98.3109C430.828 98.5234 421.983 98.7599 413.139 99.0204L411.136 98.8559C419.823 98.592 428.589 98.3366 437.433 98.0898Z" fill="#C0BEF8" fill-opacity="0.3"/>
<path d="M325.372 102.233L334.369 101.816H335.301C332.158 101.95 329.029 102.084 325.886 102.228L325.372 102.233Z" fill="#C0BEF8" fill-opacity="0.3"/>
<path d="M893.787 179.737C880.807 179.027 867.861 178.249 854.946 177.402C867.888 178.143 880.835 178.921 893.787 179.737Z" fill="#C0BEF8" fill-opacity="0.3"/>
<path d="M1541.92 69.2432C1544.41 68.8833 1546.87 68.5131 1549.35 68.1481C1564.64 67.2021 1578.92 66.1481 1592.22 65.0273C1589.44 65.4798 1586.66 65.9271 1583.88 66.3744C1570.8 67.4129 1556.81 68.3846 1541.92 69.2432Z" fill="#C0BEF8" fill-opacity="0.3"/>
<path d="M1592.44 65.6719C1595.23 65.2143 1598.01 64.7465 1600.79 64.2786C1621.2 62.4483 1639.11 60.4638 1654.61 58.4844C1651.07 59.1699 1647.49 59.8383 1643.86 60.4895C1628.74 62.2838 1611.62 64.0524 1592.44 65.6719Z" fill="#C0BEF8" fill-opacity="0.3"/>
<path d="M1525.32 70.145C1442.02 74.3094 1348.89 74.258 1248.5 69.9959C1123.05 64.6644 985.845 52.7006 840.69 34.4284C512.499 -6.88198 245.872 21.7602 80.01 53.0604C39.5568 60.714 0.473755 69.3193 -36.9984 78.8235V78.042C0.213013 68.6246 39.0066 60.0917 79.1478 52.4949C184.836 32.5364 295.879 20.0019 409.105 15.241C550.63 9.29254 696.008 15.5392 841.219 33.8166C1169.56 75.1372 1394.23 76.0369 1524.9 69.5126C1530.46 69.235 1535.9 68.9419 1541.23 68.6334L1533.72 69.708L1525.32 70.145Z" fill="#C0BEF8" fill-opacity="0.3"/>
<path opacity="0.96" d="M1237.56 72.7578C1111.6 67.3234 975.317 55.2259 832.513 36.7687C509.383 -4.93244 244.981 23.5349 80.0789 54.7632C39.603 62.442 0.509644 71.0785 -36.9574 80.6188V79.863C0.265503 70.4184 39.0834 61.8629 79.2584 54.2491C184.377 34.3265 294.502 21.8589 406.546 17.1957C546.625 11.3603 690.111 17.7561 833.055 36.2185C1151.82 77.3489 1377.45 78.8913 1512.06 72.7218C1509.7 73.0354 1507.33 73.349 1504.94 73.6575C1423.1 77.1484 1333.2 76.8708 1237.56 72.7578Z" fill="#C0BEF8" fill-opacity="0.3"/>
<path opacity="0.96" d="M1569.51 69.281C1586.86 68.0214 1602.8 66.6281 1617.32 65.168L1614.76 65.6101L1608.32 66.6847C1594.01 68.0265 1578.43 69.3067 1561.59 70.4635C1564.23 70.0831 1566.88 69.6717 1569.51 69.281Z" fill="#C0BEF8" fill-opacity="0.3"/>
<path opacity="0.96" d="M1553.7 71.0032C1542.35 71.7436 1530.46 72.4188 1518.02 73.0289L1513.33 73.2397C1515.74 72.9158 1518.16 72.597 1520.55 72.268C1534.93 71.555 1548.56 70.7496 1561.45 69.8516C1558.87 70.2423 1556.29 70.6228 1553.7 71.0032Z" fill="#C0BEF8" fill-opacity="0.3"/>
<path opacity="0.92" d="M1530.8 74.2695L1523.44 75.2978C1519.26 75.5172 1515.01 75.7297 1510.7 75.9353C1501.87 76.3518 1492.95 76.7116 1483.95 77.0407C1486.23 76.7631 1488.51 76.4752 1490.78 76.1872C1497.51 75.9267 1504.04 75.6457 1510.37 75.3441C1517.35 74.991 1524.16 74.6328 1530.8 74.2695Z" fill="#C0BEF8" fill-opacity="0.3"/>
<path opacity="0.92" d="M1226.63 75.4893C1100.29 69.983 964.944 57.7518 824.336 39.1454C506.324 -2.94126 244.091 25.3513 80.1211 56.4973C39.6235 64.2069 0.515991 72.8761 -36.957 82.4506V81.7206C0.272339 72.2283 39.1091 63.6281 79.3145 55.9729C183.849 36.1172 293.084 23.7267 403.973 19.1458C542.592 13.4235 684.201 19.9632 824.878 38.5799C1122.13 77.8954 1342.68 81.4943 1482.22 76.4816L1475.2 77.3299C1397.63 79.9211 1314.2 79.3093 1226.63 75.4893Z" fill="#C0BEF8" fill-opacity="0.3"/>
<path opacity="0.92" d="M1538.53 73.8225C1554.52 72.8765 1569.51 71.8174 1583.53 70.6914L1575.34 71.9459C1561.43 73.0101 1546.61 74.0024 1530.84 74.8713C1533.46 74.5217 1536.02 74.1772 1538.53 73.8225Z" fill="#C0BEF8" fill-opacity="0.3"/>
<path opacity="0.92" d="M1592.04 69.9902C1612 68.2988 1629.84 66.4736 1645.6 64.6484C1642.43 65.2174 1639.22 65.7864 1635.97 66.3553C1620.41 68.0622 1603.01 69.7383 1583.77 71.2859C1586.53 70.8608 1589.29 70.429 1592.04 69.9902Z" fill="#C0BEF8" fill-opacity="0.3"/>
<path opacity="0.88" d="M1215.7 78.2457C1088.92 72.6468 954.496 60.2871 816.142 41.5059C503.247 -0.961237 243.198 27.1565 80.1451 58.2203C39.6289 65.9616 0.511719 74.6652 -36.9607 84.2764V83.5566C0.283569 74.0268 39.1438 65.3905 79.3804 57.701C183.317 37.8967 291.661 25.5782 401.397 21.0898C538.556 15.4806 678.273 22.1643 816.684 40.9507C1093.87 78.5901 1308.34 83.8548 1451.3 80.0862L1444.35 80.8523C1371.86 82.6157 1295.16 81.7572 1215.7 78.2457Z" fill="#C0BEF8" fill-opacity="0.3"/>
<path opacity="0.88" d="M1558.74 75.0328C1576.51 73.8092 1592.96 72.4622 1608.08 71.0586C1605.3 71.5145 1602.48 71.9669 1599.62 72.4159C1584.55 73.7475 1568.25 75.0174 1550.74 76.1639C1553.41 75.7886 1556.08 75.4184 1558.74 75.0328Z" fill="#C0BEF8" fill-opacity="0.3"/>
<path opacity="0.88" d="M1492.63 79.2529C1479.65 79.7979 1466.53 80.2555 1453.26 80.6257C1455.64 80.3583 1458.02 80.1115 1460.37 79.8288C1474.14 79.438 1487.21 78.9239 1499.59 78.3789L1492.63 79.2529Z" fill="#C0BEF8" fill-opacity="0.3"/>
<path opacity="0.88" d="M1499.86 78.9237C1502.21 78.6306 1504.54 78.3221 1506.88 78.0239C1522.19 77.2973 1536.74 76.4781 1550.54 75.5664L1542.9 76.6409C1530.33 77.4224 1517.17 78.1319 1503.4 78.7694C1502.23 78.8466 1500.98 78.8928 1499.86 78.9237Z" fill="#C0BEF8" fill-opacity="0.3"/>
<path opacity="0.84" d="M1204.77 80.9863C1077.54 75.3309 944.038 62.8169 807.964 43.8661C500.187 1.0082 242.307 28.9563 80.172 59.9429C39.6332 67.7096 0.505737 76.4443 -36.9617 86.0916V85.4181C0.283325 75.8468 39.1635 67.176 79.4351 59.4597C182.787 39.7016 290.242 27.4551 398.809 23.0592C534.48 17.5632 672.348 24.3909 808.436 43.3468C1066.53 79.2845 1273.98 86.0196 1418.93 83.4952L1411.97 84.1945C1342.78 85.2041 1273.49 84.1312 1204.77 80.9863Z" fill="#C0BEF8" fill-opacity="0.3"/>
<path opacity="0.84" d="M1467.32 82.8047C1469.67 82.5424 1472.03 82.2905 1474.38 82.0026C1481.74 81.7353 1488.9 81.4422 1495.83 81.1337C1503.11 80.791 1510.24 80.4482 1517.22 80.1055L1509.89 81.0412C1505.35 81.2674 1500.76 81.4885 1496.12 81.6941C1486.59 82.1123 1476.99 82.4825 1467.32 82.8047Z" fill="#C0BEF8" fill-opacity="0.3"/>
<path opacity="0.84" d="M1460.31 83.0379C1447.47 83.4492 1434.52 83.7748 1421.47 84.0147C1423.73 83.7885 1426 83.5468 1428.27 83.3103C1441.85 83.0327 1454.86 82.678 1467.3 82.2461C1464.96 82.5237 1462.64 82.7859 1460.31 83.0379Z" fill="#C0BEF8" fill-opacity="0.3"/>
<path opacity="0.84" d="M1581.01 75.8935C1601.23 74.2895 1619.54 72.562 1635.93 70.8242C1633.02 71.3383 1630.09 71.8165 1627.12 72.3101C1610.8 73.9656 1592.71 75.5902 1572.89 77.0863L1581.01 75.8935Z" fill="#C0BEF8" fill-opacity="0.3"/>
<path opacity="0.84" d="M1525.03 79.6613C1541.82 78.7255 1557.64 77.6716 1572.49 76.5508C1569.85 76.9381 1567.19 77.322 1564.52 77.7024C1549.69 78.7718 1533.99 79.7504 1517.42 80.6381L1525.03 79.6613Z" fill="#C0BEF8" fill-opacity="0.3"/>
<path opacity="0.8" d="M1193.84 83.7425C1066.18 77.9636 933.6 65.3418 799.779 46.211C497.134 2.96748 241.423 30.7356 80.2197 61.6349C39.656 69.4322 0.514038 78.2014 -36.9557 87.8864V87.2386C0.301392 77.6309 39.2001 68.9239 79.4966 61.1722C182.265 41.4655 288.83 29.2961 396.229 24.9877C530.481 19.6047 666.43 26.5763 800.307 45.702C1040.01 79.9533 1239.54 88.0149 1385.1 86.7039L1377.92 87.3311C1316.41 87.7398 1254.9 86.5406 1193.84 83.7425Z" fill="#C0BEF8" fill-opacity="0.3"/>
<path opacity="0.8" d="M1483.22 84.7865L1490.26 83.9588C1506.58 83.239 1522.24 82.4164 1536.98 81.4961C1534.44 81.8354 1531.88 82.1645 1529.31 82.4935C1516.36 83.2493 1502.88 83.9485 1488.81 84.55C1486.95 84.6426 1485.08 84.7094 1483.22 84.7865Z" fill="#C0BEF8" fill-opacity="0.3"/>
<path opacity="0.8" d="M1426.61 86.6028C1413.74 86.8907 1400.76 87.1032 1387.67 87.2403L1394.78 86.6028C1408.16 86.4383 1421.06 86.2035 1433.48 85.8984L1426.61 86.6028Z" fill="#C0BEF8" fill-opacity="0.3"/>
<path opacity="0.8" d="M1440.54 85.7169C1455.38 85.3227 1469.47 84.8429 1482.82 84.2773L1475.73 85.0897C1461.71 85.6415 1447.57 86.0939 1433.31 86.447L1440.54 85.7169Z" fill="#C0BEF8" fill-opacity="0.3"/>
<path opacity="0.8" d="M1606.6 76.24C1628.25 74.2812 1647.36 72.2401 1663.81 70.2812C1660.85 70.8159 1657.86 71.3489 1654.83 71.8802C1638.3 73.7619 1619.42 75.6899 1598.27 77.5356C1601.1 77.0935 1603.89 76.6719 1606.6 76.24Z" fill="#C0BEF8" fill-opacity="0.3"/>
<path opacity="0.76" d="M1404.64 89.2079C1419.31 88.9509 1433.38 88.6081 1446.85 88.1797C1444.46 88.4265 1442.08 88.6681 1439.68 88.9046C1425.78 89.3056 1411.79 89.6158 1397.71 89.8352C1400.02 89.645 1402.33 89.4239 1404.64 89.2079Z" fill="#C0BEF8" fill-opacity="0.3"/>
<path opacity="0.76" d="M1508.27 85.6652C1526.26 84.7346 1543.33 83.6806 1559.37 82.5547C1556.77 82.9094 1554.14 83.259 1551.52 83.6086C1535.45 84.6952 1518.46 85.6823 1500.54 86.57C1503.11 86.2667 1505.71 85.9736 1508.27 85.6652Z" fill="#C0BEF8" fill-opacity="0.3"/>
<path opacity="0.76" d="M1390.61 89.964C1377.87 90.1457 1365.06 90.2365 1352.19 90.2365C1354.59 90.0463 1357.01 89.856 1359.42 89.6555C1372.63 89.6075 1385.45 89.4893 1397.87 89.3008L1390.61 89.964Z" fill="#C0BEF8" fill-opacity="0.3"/>
<path opacity="0.76" d="M1182.92 86.4971C1054.81 80.6257 923.159 67.8701 791.604 48.5954C494.007 4.96632 240.535 32.5648 80.2499 63.3972C39.6713 71.2192 0.519897 80.0142 -36.9532 89.7258V89.1088C0.315674 79.4618 39.238 70.7186 79.5685 62.9345C181.739 43.2844 287.4 31.1818 393.645 26.9454C526.451 21.6756 660.508 28.7911 792.105 48.0864C1013.9 80.6309 1204.47 89.7824 1349.31 89.7258C1346.9 89.916 1344.47 90.1011 1342.05 90.2811C1288.85 90.2013 1235.71 88.9377 1182.92 86.4971Z" fill="#C0BEF8" fill-opacity="0.3"/>
<path opacity="0.76" d="M1446.9 88.6934C1449.28 88.4518 1451.64 88.1793 1454 87.9531C1463.4 87.6412 1472.49 87.2984 1481.27 86.9248C1487.76 86.654 1494.11 86.3627 1500.31 86.0508L1492.89 86.9197C1489.12 87.0945 1485.33 87.2641 1481.51 87.4338C1470.03 87.9308 1458.5 88.3507 1446.9 88.6934Z" fill="#C0BEF8" fill-opacity="0.3"/>
<path opacity="0.72" d="M1415.78 91.7033C1431.91 91.3366 1447.3 90.8756 1461.93 90.3203L1454.48 91.0812C1439.27 91.6159 1423.97 92.0409 1408.59 92.3563C1411.01 92.1455 1413.37 91.9244 1415.78 91.7033Z" fill="#C0BEF8" fill-opacity="0.3"/>
<path opacity="0.72" d="M1171.98 89.2414C1043.46 83.2878 912.738 70.3985 783.409 50.9387C490.999 6.94975 239.669 34.3426 80.2733 65.0979C39.6727 72.9572 0.511322 81.7935 -36.9577 91.5499V90.9535C0.315277 81.2669 39.257 72.4893 79.6197 64.6763C181.136 45.0725 285.977 33.0419 391.123 28.9185C522.469 23.7772 654.65 31.0213 783.979 50.4863C988.069 81.221 1168.62 91.3134 1311.32 92.4547L1303.88 92.9432C1260.28 92.5113 1216.32 91.2774 1171.98 89.2414Z" fill="#C0BEF8" fill-opacity="0.3"/>
<path opacity="0.72" d="M1529.26 87.056C1548.19 85.9197 1565.99 84.6704 1582.58 83.3594C1579.95 83.7347 1577.31 84.0997 1574.65 84.4699C1558.12 85.7244 1540.44 86.9172 1521.7 87.9865C1524.24 87.6678 1526.74 87.3644 1529.26 87.056Z" fill="#C0BEF8" fill-opacity="0.3"/>
<path opacity="0.72" d="M1462.04 90.7914C1464.54 90.5344 1467.06 90.2773 1469.54 90.0202L1473.91 89.8454C1489.96 89.1805 1505.36 88.4247 1520.12 87.5781C1517.55 87.8917 1514.95 88.1951 1512.35 88.5036C1500.05 89.1685 1487.31 89.7752 1474.13 90.3236C1470.18 90.4933 1466.14 90.6423 1462.04 90.7914Z" fill="#C0BEF8" fill-opacity="0.3"/>
<path opacity="0.68" d="M1311.78 95.8904C1299.38 95.8287 1286.95 95.7019 1274.48 95.51C1277.01 95.3729 1279.51 95.2289 1282.01 95.0781C1294.72 95.2529 1307.16 95.3592 1319.35 95.3969C1316.83 95.5717 1314.31 95.7413 1311.78 95.8904Z" fill="#C0BEF8" fill-opacity="0.3"/>
<path opacity="0.68" d="M1161.06 91.9922C1032.06 85.946 902.258 72.9282 775.237 53.2987C487.945 8.89332 238.756 36.1422 80.3066 66.8152C39.6874 74.7064 0.516357 83.5772 -36.9523 93.37V92.8096C0.349731 83.0795 39.3339 74.2622 79.7504 66.4142C180.725 46.8773 284.619 34.9032 388.472 30.8724C518.386 25.8339 648.661 33.2322 775.724 52.872C962.459 81.7301 1132.13 92.5886 1271.04 94.9227L1263.62 95.334C1229.53 94.7068 1195.34 93.5928 1161.06 91.9922Z" fill="#C0BEF8" fill-opacity="0.3"/>
<path opacity="0.68" d="M1488.27 91.8103C1506.92 90.9311 1524.68 89.9286 1541.52 88.8438L1533.73 89.8052C1516.86 90.8334 1499.1 91.8 1480.5 92.6277C1483.1 92.3553 1485.68 92.0879 1488.27 91.8103Z" fill="#C0BEF8" fill-opacity="0.3"/>
<path opacity="0.68" d="M1420.99 94.7318C1423.49 94.5107 1425.99 94.2948 1428.48 94.0686C1441.75 93.6881 1454.49 93.2494 1466.71 92.7524C1470.76 92.5879 1474.77 92.4165 1478.74 92.2383L1471.05 93.0352L1466.88 93.2048C1451.66 93.8252 1436.36 94.3342 1420.99 94.7318Z" fill="#C0BEF8" fill-opacity="0.3"/>
<path opacity="0.64" d="M1506.47 93.4717C1527.16 92.3663 1546.7 91.117 1565.02 89.8008C1562.46 90.1298 1559.91 90.464 1557.34 90.7879C1538.9 92.0732 1519.27 93.2712 1498.52 94.3354C1501.17 94.0475 1503.76 93.7647 1506.47 93.4717Z" fill="#C0BEF8" fill-opacity="0.3"/>
<path opacity="0.64" d="M1283.07 98.0781C1296.92 98.2324 1310.46 98.3061 1323.69 98.2992L1315.91 98.7825C1302.4 98.7619 1288.87 98.6659 1275.33 98.4946L1283.07 98.0781Z" fill="#C0BEF8" fill-opacity="0.3"/>
<path opacity="0.64" d="M1436.53 96.9217L1444.16 96.2328C1449.33 96.0546 1454.43 95.8643 1459.46 95.6621C1472.73 95.1411 1485.63 94.5584 1498.15 93.9141C1495.53 94.1985 1492.92 94.4762 1490.3 94.747C1480.33 95.2337 1470.11 95.6844 1459.64 96.0991C1451.93 96.4076 1444.23 96.6647 1436.53 96.9217Z" fill="#C0BEF8" fill-opacity="0.3"/>
<path opacity="0.6" d="M1275.57 101.443L1283.79 101.031C1299.09 101.161 1314.01 101.197 1328.56 101.139L1320.21 101.622C1305.37 101.65 1290.49 101.59 1275.57 101.443Z" fill="#C0BEF8" fill-opacity="0.3"/>
<path opacity="0.6" d="M1220.85 100.469C1209.44 100.181 1198.03 99.8383 1186.62 99.4407L1194.26 99.1836C1206 99.5709 1217.56 99.8948 1228.94 100.155L1220.85 100.469Z" fill="#C0BEF8" fill-opacity="0.3"/>
<path opacity="0.55" d="M1399.02 103.286C1401.8 103.081 1404.58 102.885 1407.36 102.674C1420.29 102.332 1432.78 101.929 1444.81 101.466C1453.05 101.158 1461.16 100.825 1469.12 100.469C1466.44 100.721 1463.74 100.983 1461.04 101.214C1455.74 101.434 1450.38 101.648 1444.96 101.857C1429.67 102.429 1414.35 102.906 1399.02 103.286Z" fill="#C0BEF8" fill-opacity="0.3"/>
<path opacity="0.55" d="M1275.5 104.356L1284.04 103.965C1300.55 104.068 1316.63 104.068 1332.27 103.965L1323.48 104.448C1307.49 104.52 1291.5 104.489 1275.5 104.356Z" fill="#C0BEF8" fill-opacity="0.3"/>
<path opacity="0.55" d="M1170.63 102.033C1160.06 101.649 1149.51 101.215 1138.99 100.732L1146.41 100.562C1157.34 101.042 1168.14 101.464 1178.82 101.827L1170.63 102.033Z" fill="#C0BEF8" fill-opacity="0.3"/>
<path opacity="0.55" d="M1186.85 102.09C1199.45 102.501 1211.88 102.844 1224.13 103.118C1221.35 103.218 1218.53 103.31 1215.68 103.396C1203.36 103.098 1191.06 102.739 1178.79 102.321C1181.47 102.239 1184.17 102.172 1186.85 102.09Z" fill="#C0BEF8" fill-opacity="0.3"/>
<path opacity="0.51" d="M1413.18 105.554C1415.96 105.354 1418.6 105.143 1421.31 104.937C1426.82 104.759 1432.24 104.572 1437.58 104.377C1455.54 103.719 1472.89 102.963 1489.62 102.109C1487.02 102.361 1484.43 102.624 1481.82 102.865C1467.55 103.551 1452.85 104.176 1437.71 104.742C1429.53 105.045 1421.35 105.307 1413.18 105.554Z" fill="#C0BEF8" fill-opacity="0.3"/>
<path opacity="0.51" d="M1176.96 104.93C1190.65 105.372 1204.13 105.737 1217.42 106.025C1214.4 106.107 1211.39 106.194 1208.38 106.272C1195.03 105.956 1181.71 105.569 1168.44 105.11L1176.96 104.93Z" fill="#C0BEF8" fill-opacity="0.3"/>
<path opacity="0.51" d="M1275.36 107.268C1278.42 107.145 1281.43 107.011 1284.46 106.878C1303.37 106.95 1321.73 106.886 1339.53 106.688L1330.49 107.176C1312.08 107.337 1293.7 107.368 1275.36 107.268Z" fill="#C0BEF8" fill-opacity="0.3"/>
<path opacity="0.51" d="M1134.01 103.277C1145.53 103.791 1156.93 104.244 1168.21 104.635L1159.56 104.804C1148.38 104.39 1137.23 103.922 1126.11 103.401C1128.76 103.36 1131.38 103.324 1134.01 103.277Z" fill="#C0BEF8" fill-opacity="0.3"/>
<path opacity="0.47" d="M1163.84 107.656C1178.2 108.14 1192.35 108.534 1206.3 108.839C1203 108.911 1199.69 108.978 1196.39 109.039C1182.4 108.697 1168.5 108.278 1154.67 107.785L1163.84 107.656Z" fill="#C0BEF8" fill-opacity="0.3"/>
<path opacity="0.47" d="M1062.43 103.278C1054.26 102.768 1046.12 102.23 1038.01 101.664H1044.81C1053.23 102.23 1061.62 102.764 1069.98 103.268L1062.43 103.278Z" fill="#C0BEF8" fill-opacity="0.3"/>
<path opacity="0.43" d="M1006.47 102.85C999.769 102.336 993.08 101.801 986.405 101.246L992.732 101.333C999.63 101.896 1006.51 102.432 1013.38 102.943L1006.47 102.85Z" fill="#C0BEF8" fill-opacity="0.3"/>
<path opacity="0.43" d="M1022.42 103.606C1030.76 104.202 1039.03 104.764 1047.21 105.292C1044.59 105.272 1041.96 105.246 1039.33 105.215C1031.36 104.684 1023.43 104.125 1015.53 103.539L1022.42 103.606Z" fill="#C0BEF8" fill-opacity="0.3"/>
<path opacity="0.43" d="M1146.67 110.234C1162.69 110.807 1178.48 111.271 1194.05 111.628C1190.34 111.679 1186.63 111.725 1182.92 111.766C1167.25 111.365 1151.66 110.872 1136.17 110.286C1139.72 110.286 1143.21 110.286 1146.67 110.234Z" fill="#C0BEF8" fill-opacity="0.3"/>
<path opacity="0.39" d="M1028.85 107.537C1038.48 108.185 1048.09 108.788 1057.66 109.347L1048.19 109.208C1039 108.643 1029.85 108.039 1020.74 107.398L1028.85 107.537Z" fill="#C0BEF8" fill-opacity="0.3"/>
<path opacity="0.39" d="M995.122 105.091C1002.97 105.701 1010.78 106.28 1018.57 106.828L1010.41 106.664C1002.91 106.115 995.433 105.541 987.988 104.941L995.122 105.091Z" fill="#C0BEF8" fill-opacity="0.3"/>
<path opacity="0.35" d="M1033.06 111.262C1045.55 112.054 1057.97 112.771 1070.32 113.411C1066.24 113.329 1062.17 113.247 1058.08 113.154C1046.32 112.503 1034.63 111.79 1023.02 111.016L1033.06 111.262Z" fill="#C0BEF8" fill-opacity="0.3"/>
<path opacity="0.35" d="M993.913 108.552C1002.88 109.237 1011.83 109.875 1020.77 110.464C1017.5 110.377 1014.22 110.289 1010.95 110.192C1002.49 109.602 994.089 108.978 985.736 108.32L993.913 108.552Z" fill="#C0BEF8" fill-opacity="0.3"/>
<path opacity="0.31" d="M848.251 98.0673C845.553 97.728 842.856 97.3784 840.158 97.0391L843.829 97.1984C846.61 97.5532 849.392 97.9131 852.173 98.2627L848.251 98.0673Z" fill="#C0BEF8" fill-opacity="0.3"/>
<path opacity="0.31" d="M1019.58 114.23C1023.85 114.374 1028.12 114.518 1032.39 114.652C1049.5 115.68 1066.51 116.585 1083.41 117.367C1077.6 117.223 1071.77 117.067 1065.93 116.899L1062.68 116.739C1048.17 115.996 1033.8 115.159 1019.58 114.23Z" fill="#C0BEF8" fill-opacity="0.3"/>
<path opacity="0.31" d="M860.209 99.2295C863.421 99.6202 866.633 100.001 869.846 100.381L865.396 100.175C862.309 99.8053 859.235 99.4351 856.162 99.0547L860.209 99.2295Z" fill="#C0BEF8" fill-opacity="0.3"/>
<path opacity="0.31" d="M878.383 101.371C882.124 101.798 885.851 102.214 889.592 102.625L884.363 102.384C880.775 101.983 877.215 101.571 873.669 101.16L878.383 101.371Z" fill="#C0BEF8" fill-opacity="0.3"/>
<path opacity="0.27" d="M842.359 100.907C845.224 101.267 848.088 101.627 850.953 101.976L847.017 101.786L838.743 100.758L842.359 100.907Z" fill="#C0BEF8" fill-opacity="0.3"/>
<path opacity="0.27" d="M858.751 102.919C862.005 103.305 865.245 103.69 868.485 104.066L863.854 103.829C860.711 103.459 857.583 103.084 854.467 102.703L858.751 102.919Z" fill="#C0BEF8" fill-opacity="0.3"/>
<path opacity="0.27" d="M804.793 96.1107L798.605 95.2109L801.261 95.3189L807.491 96.2238L804.793 96.1107Z" fill="#C0BEF8" fill-opacity="0.3"/>
<path opacity="0.27" d="M877.238 105.065C881.132 105.504 885.026 105.931 888.92 106.346L883.079 106.027C879.371 105.626 875.713 105.215 872.107 104.793L877.238 105.065Z" fill="#C0BEF8" fill-opacity="0.3"/>
<path opacity="0.23" d="M769.713 94.7858L764.415 93.9375L766.376 94.0043L771.674 94.8681L769.713 94.7858Z" fill="#C0BEF8" fill-opacity="0.3"/>
<path opacity="0.23" d="M871.298 108.233C875.275 108.675 879.257 109.11 883.243 109.538L877.834 109.251C874.093 108.839 870.352 108.418 866.709 107.996L871.298 108.233Z" fill="#C0BEF8" fill-opacity="0.3"/>
<path opacity="0.23" d="M776.894 95.667L782.54 96.5358L780.412 96.4587L774.849 95.5898L776.894 95.667Z" fill="#C0BEF8" fill-opacity="0.3"/>
<path opacity="0.23" d="M838.651 104.337C841.432 104.697 844.366 105.051 847.217 105.401L843.601 105.231C840.82 104.889 838.039 104.546 835.258 104.203L838.651 104.337Z" fill="#C0BEF8" fill-opacity="0.3"/>
<path opacity="0.23" d="M853.918 106.215C857.214 106.611 860.523 106.991 863.819 107.372L859.494 107.156C856.352 106.786 853.209 106.416 850.08 106.035L853.918 106.215Z" fill="#C0BEF8" fill-opacity="0.3"/>
<path opacity="0.23" d="M-3.10482 104.38C-0.119577 103.636 2.9026 102.887 5.96201 102.133H7.04675C3.98734 102.878 0.969628 103.629 -2.02025 104.374L-3.10482 104.38Z" fill="#C0BEF8" fill-opacity="0.3"/>
<path opacity="0.19" d="M745.683 94.6439L750.495 95.4665L748.923 95.4151L744.126 94.5977L745.683 94.6439Z" fill="#C0BEF8" fill-opacity="0.3"/>
<path opacity="0.19" d="M862.469 111.061C866.177 111.483 869.885 111.894 873.594 112.295L868.935 112.064C865.347 111.668 861.787 111.262 858.227 110.855L862.469 111.061Z" fill="#C0BEF8" fill-opacity="0.3"/>
<path opacity="0.19" d="M880.464 113.024C885.1 113.514 889.735 113.989 894.371 114.448L888.001 114.088C883.829 113.656 879.546 113.214 875.36 112.762L880.464 113.024Z" fill="#C0BEF8" fill-opacity="0.3"/>
<path opacity="0.19" d="M739.755 93.8384L735.152 93.0312L736.64 93.0724L741.216 93.8796L739.755 93.8384Z" fill="#C0BEF8" fill-opacity="0.3"/>
<path opacity="0.19" d="M846.702 109.228C849.919 109.616 853.132 109.994 856.339 110.364L852.446 110.174C849.317 109.809 846.216 109.434 843.114 109.059C844.31 109.11 845.506 109.172 846.702 109.228Z" fill="#C0BEF8" fill-opacity="0.3"/>
<path opacity="0.19" d="M774.572 99.3598L780.273 100.229L778.271 100.157L772.708 99.293L774.572 99.3598Z" fill="#C0BEF8" fill-opacity="0.3"/>
<path opacity="0.19" d="M4.87785 104.223C7.85382 103.493 10.8437 102.757 13.8753 102.027H14.8486C11.817 102.757 8.8272 103.487 5.85123 104.218L4.87785 104.223Z" fill="#C0BEF8" fill-opacity="0.3"/>
<path opacity="0.19" d="M764.566 97.787L769.975 98.6405L768.126 98.5788L762.869 97.7305L764.566 97.787Z" fill="#C0BEF8" fill-opacity="0.3"/>
<path opacity="0.15" d="M849.65 113.449C852.974 113.83 856.311 114.21 859.649 114.581L855.477 114.36C852.306 114 849.163 113.635 846.02 113.27L849.65 113.449Z" fill="#C0BEF8" fill-opacity="0.3"/>
<path opacity="0.15" d="M761.161 101.32C762.886 101.597 764.61 101.88 766.348 102.153L764.721 102.096L759.604 101.273L761.161 101.32Z" fill="#C0BEF8" fill-opacity="0.3"/>
<path opacity="0.15" d="M21.8662 101.918H22.0748C20.4061 102.298 18.7372 102.679 17.0823 103.064L21.8662 101.918Z" fill="#C0BEF8" fill-opacity="0.3"/>
<path opacity="0.15" d="M882.742 117.036C887.777 117.547 892.811 118.042 897.845 118.522C895.606 118.389 893.339 118.265 891.086 118.137C886.451 117.681 881.852 117.215 877.291 116.738L882.742 117.036Z" fill="#C0BEF8" fill-opacity="0.3"/>
<path opacity="0.15" d="M864.884 115.159C868.852 115.59 872.825 116.014 876.802 116.428L871.671 116.146C867.958 115.75 864.245 115.344 860.546 114.938L864.884 115.159Z" fill="#C0BEF8" fill-opacity="0.3"/>
<path opacity="0.15" d="M713.378 93.1462L709.373 92.375H710.458L714.505 93.141L713.378 93.1462Z" fill="#C0BEF8" fill-opacity="0.3"/>
<path opacity="0.15" d="M770.468 102.795L775.905 103.638L774.167 103.576L768.771 102.738L770.468 102.795Z" fill="#C0BEF8" fill-opacity="0.3"/>
<path opacity="0.15" d="M718.392 93.9007L722.564 94.6873L721.41 94.6565L717.238 93.875L718.392 93.9007Z" fill="#C0BEF8" fill-opacity="0.3"/>
<path opacity="0.15" d="M1061.54 129.736C1051.69 129.335 1041.96 128.883 1032.34 128.405L1019.82 127.484C1029.94 128.022 1040.05 128.516 1050.14 128.965L1061.54 129.736Z" fill="#C0BEF8" fill-opacity="0.3"/>
<path opacity="0.19" d="M1061.07 132.668L1067.56 133.182C1061.43 132.956 1055.33 132.712 1049.25 132.452C1046.3 132.221 1043.34 131.984 1040.37 131.758C1046.91 132.053 1053.44 132.332 1059.95 132.596L1061.07 132.668Z" fill="#C0BEF8" fill-opacity="0.3"/>
<path opacity="0.19" d="M700.5 94.8008C701.793 95.0476 703.059 95.3149 704.352 95.5514H703.128L699.234 94.8008H700.5Z" fill="#C0BEF8" fill-opacity="0.3"/>
<path opacity="0.19" d="M846.301 116.778C849.481 117.142 852.67 117.498 855.868 117.848L850.918 117.575C847.914 117.232 844.915 116.89 841.92 116.547L846.301 116.778Z" fill="#C0BEF8" fill-opacity="0.3"/>
<path opacity="0.19" d="M875.695 119.931C880.331 120.404 885.013 120.865 889.741 121.314L881.828 120.841C877.656 120.42 873.345 119.993 869.146 119.551L875.695 119.931Z" fill="#C0BEF8" fill-opacity="0.3"/>
<path opacity="0.19" d="M693.14 93.3555L696.908 94.1009H695.699L691.972 93.3606L693.14 93.3555Z" fill="#C0BEF8" fill-opacity="0.3"/>
<path opacity="0.19" d="M773.173 107.202L778.735 108.02L776.566 107.937C774.744 107.67 772.923 107.423 771.101 107.125L773.173 107.202Z" fill="#C0BEF8" fill-opacity="0.3"/>
<path opacity="0.19" d="M859.894 118.283C863.603 118.687 867.367 119.085 871.186 119.476L865.22 119.131C861.758 118.766 858.267 118.391 854.874 118.016L859.894 118.283Z" fill="#C0BEF8" fill-opacity="0.3"/>
<path opacity="0.19" d="M12.9912 104.069H12.8104L17.1353 103.066L12.9912 104.069Z" fill="#C0BEF8" fill-opacity="0.3"/>
<path opacity="0.19" d="M22.7304 101.91H22.8276L21.437 102.219L22.7304 101.91Z" fill="#C0BEF8" fill-opacity="0.3"/>
<path opacity="0.19" d="M1168.37 135.637C1156.11 135.487 1143.96 135.288 1131.93 135.041L1124.06 134.594C1136.22 134.878 1148.31 135.104 1160.33 135.272C1163.05 135.396 1165.7 135.524 1168.37 135.637Z" fill="#C0BEF8" fill-opacity="0.3"/>
<path opacity="0.19" d="M764.379 105.879C766.09 106.147 767.8 106.393 769.525 106.671L767.578 106.604L762.432 105.812L764.379 105.879Z" fill="#C0BEF8" fill-opacity="0.3"/>
<path opacity="0.19" d="M688.43 92.6232L684.8 91.8828H685.927L689.626 92.6334L688.43 92.6232Z" fill="#C0BEF8" fill-opacity="0.3"/>
<path opacity="0.15" d="M13.118 104.059H12.9372L17.1092 103.057C18.764 102.671 20.4329 102.291 22.1017 101.91H22.7552L21.448 102.219C18.6481 102.829 15.8715 103.442 13.118 104.059Z" fill="#C0BEF8" fill-opacity="0.3"/>
<path opacity="0.19" d="M13.118 104.059H12.9372L17.1092 103.057C18.764 102.671 20.4329 102.291 22.1017 101.91H22.7552L21.448 102.219C18.6481 102.829 15.8715 103.442 13.118 104.059Z" fill="#C0BEF8" fill-opacity="0.3"/>
<path opacity="0.15" d="M23.4685 101.737H22.8426C27.9787 100.572 33.1844 99.408 38.4596 98.2461C33.3977 99.4183 28.4007 100.582 23.4685 101.737Z" fill="#C0BEF8" fill-opacity="0.3"/>
<path opacity="0.19" d="M23.4685 101.737H22.8426C27.9787 100.572 33.1844 99.408 38.4596 98.2461C33.3977 99.4183 28.4007 100.582 23.4685 101.737Z" fill="#C0BEF8" fill-opacity="0.3"/>
<path opacity="0.23" d="M14.0619 104.041H13.7976L14.0619 103.974C17.0564 103.289 20.0648 102.603 23.0871 101.918H23.9911C22.4614 102.252 20.9316 102.586 19.4158 102.946L14.0619 104.041Z" fill="#C0BEF8" fill-opacity="0.3"/>
<path opacity="0.23" d="M676.333 94.3477L679.851 95.0623H678.572C677.404 94.8258 676.236 94.5893 675.081 94.3477H676.333Z" fill="#C0BEF8" fill-opacity="0.3"/>
<path opacity="0.23" d="M1211.3 138.941C1199.45 138.941 1187.68 138.881 1176 138.761L1169.29 138.422C1180.93 138.552 1192.47 138.634 1203.9 138.669C1206.37 138.766 1208.83 138.854 1211.3 138.941Z" fill="#C0BEF8" fill-opacity="0.3"/>
<path opacity="0.23" d="M669.637 92.957L673.072 93.682H671.82L668.399 92.9622L669.637 92.957Z" fill="#C0BEF8" fill-opacity="0.3"/>
<path opacity="0.23" d="M683.155 95.7434C684.337 95.9799 685.505 96.2216 686.687 96.4529H685.296C684.114 96.2164 682.932 95.9799 681.764 95.7383L683.155 95.7434Z" fill="#C0BEF8" fill-opacity="0.3"/>
<path opacity="0.23" d="M762.952 109.677L767.777 110.392L765.33 110.289L760.699 109.59L762.952 109.677Z" fill="#C0BEF8" fill-opacity="0.3"/>
<path opacity="0.23" d="M770.796 110.835L775.636 111.544C774.773 111.508 773.925 111.467 773.063 111.436L768.363 110.742L770.796 110.835Z" fill="#C0BEF8" fill-opacity="0.3"/>
<path opacity="0.23" d="M665.105 92.242L661.823 91.5273H663.019C664.117 91.7638 665.202 92.0106 666.301 92.242H665.105Z" fill="#C0BEF8" fill-opacity="0.3"/>
<path opacity="0.23" d="M703.975 99.7691L707.73 100.473L706.255 100.437L702.459 99.7383L703.975 99.7691Z" fill="#C0BEF8" fill-opacity="0.3"/>
<path opacity="0.23" d="M696.91 98.4671L700.664 99.1766L699.274 99.1458L695.561 98.4414L696.91 98.4671Z" fill="#C0BEF8" fill-opacity="0.3"/>
<path opacity="0.23" d="M1170.87 138.706C1161.95 138.614 1153.09 138.495 1144.29 138.351L1137.76 137.945C1146.6 138.11 1155.41 138.245 1164.18 138.351L1170.87 138.706Z" fill="#C0BEF8" fill-opacity="0.3"/>
<path opacity="0.19" d="M23.8458 101.732H23.6232L28.9911 100.57L23.8458 101.732Z" fill="#C0BEF8" fill-opacity="0.3"/>
<path opacity="0.23" d="M23.8458 101.732H23.6232L28.9911 100.57L23.8458 101.732Z" fill="#C0BEF8" fill-opacity="0.3"/>
<path opacity="0.19" d="M21.4185 102.219L22.8091 101.91H23.0732C20.0416 102.596 17.0332 103.281 14.048 103.967L21.4185 102.219Z" fill="#C0BEF8" fill-opacity="0.3"/>
<path opacity="0.23" d="M21.4185 102.219L22.8091 101.91H23.0732C20.0416 102.596 17.0332 103.281 14.048 103.967L21.4185 102.219Z" fill="#C0BEF8" fill-opacity="0.3"/>
<path opacity="0.15" d="M14.0648 103.978L13.7728 104.045H13.119C15.9003 103.428 18.6816 102.813 21.4629 102.199L14.0648 103.978Z" fill="#C0BEF8" fill-opacity="0.3"/>
<path opacity="0.19" d="M14.0648 103.978L13.7728 104.045H13.119C15.9003 103.428 18.6816 102.813 21.4629 102.199L14.0648 103.978Z" fill="#C0BEF8" fill-opacity="0.3"/>
<path opacity="0.23" d="M14.0648 103.978L13.7728 104.045H13.119C15.9003 103.428 18.6816 102.813 21.4629 102.199L14.0648 103.978Z" fill="#C0BEF8" fill-opacity="0.3"/>
<path opacity="0.27" d="M653.745 94.0508L656.86 94.7346H655.539L652.396 94.0559L653.745 94.0508Z" fill="#C0BEF8" fill-opacity="0.3"/>
<path opacity="0.27" d="M1207.05 141.945C1198.15 141.945 1189.3 141.91 1180.51 141.842L1174.44 141.492C1183.36 141.568 1192.22 141.621 1201.02 141.652C1203.02 141.749 1205.04 141.852 1207.05 141.945Z" fill="#C0BEF8" fill-opacity="0.3"/>
<path opacity="0.27" d="M14.313 104.045L19.4167 102.903L24.1866 101.875H25.5773C22.1748 102.588 18.8003 103.303 15.4535 104.019L14.313 104.045Z" fill="#C0BEF8" fill-opacity="0.3"/>
<path opacity="0.27" d="M642.957 91.9844L639.73 91.2852H641.038L644.264 91.9844H642.957Z" fill="#C0BEF8" fill-opacity="0.3"/>
<path opacity="0.27" d="M646.156 92.6758H647.463L649.173 93.046L650.564 93.3596H649.257L648.798 93.2619L646.156 92.6758Z" fill="#C0BEF8" fill-opacity="0.3"/>
<path opacity="0.23" d="M14.3182 104.04H14.0679L19.4219 102.898L14.3182 104.04Z" fill="#C0BEF8" fill-opacity="0.3"/>
<path opacity="0.27" d="M14.3182 104.04H14.0679L19.4219 102.898L14.3182 104.04Z" fill="#C0BEF8" fill-opacity="0.3"/>
<path opacity="0.31" d="M620.501 91.8156L617.108 91.1523H618.624L621.961 91.8156H620.501Z" fill="#C0BEF8" fill-opacity="0.3"/>
<path opacity="0.31" d="M631.833 93.8359L634.948 94.494H633.488L630.401 93.8411L631.833 93.8359Z" fill="#C0BEF8" fill-opacity="0.3"/>
<path opacity="0.31" d="M15.6672 104.017C19.1716 103.293 22.7177 102.578 26.2777 101.863H27.8075C24.2614 102.568 20.7292 103.282 17.2387 104.002L15.6672 104.017Z" fill="#C0BEF8" fill-opacity="0.3"/>
<path opacity="0.31" d="M625.377 92.5156L628.576 93.1737H627.101L623.875 92.5156H625.377Z" fill="#C0BEF8" fill-opacity="0.3"/>
<path opacity="0.35" d="M609.273 93.7305L612.36 94.3526H610.719L607.535 93.7356L609.273 93.7305Z" fill="#C0BEF8" fill-opacity="0.3"/>
<path opacity="0.35" d="M18.0414 103.968C21.6988 103.248 25.3701 102.534 29.097 101.824H30.863C27.1547 102.53 23.4695 103.24 19.8075 103.953L18.0414 103.968Z" fill="#C0BEF8" fill-opacity="0.3"/>
<path opacity="0.35" d="M615.669 94.9922L618.7 95.604H617.059L614.056 94.9922H615.669Z" fill="#C0BEF8" fill-opacity="0.3"/>
<path opacity="0.35" d="M597.066 91.7781C595.926 91.5673 594.772 91.3463 593.631 91.1406H595.342L598.902 91.7781H597.066Z" fill="#C0BEF8" fill-opacity="0.3"/>
<path opacity="0.35" d="M602.482 92.4297L605.806 93.0621H604.151C603.025 92.8461 601.912 92.6456 600.786 92.4348L602.482 92.4297Z" fill="#C0BEF8" fill-opacity="0.3"/>
<path opacity="0.39" d="M23.2601 103.869L21.2437 103.905C23.5522 103.473 25.8698 103.044 28.1968 102.619L32.8555 101.781H34.8163L28.5862 102.907L23.2601 103.869Z" fill="#C0BEF8" fill-opacity="0.3"/>
<path opacity="0.39" d="M578.835 92.457L582.255 93.0483H580.267L576.915 92.457H578.835Z" fill="#C0BEF8" fill-opacity="0.3"/>
<path opacity="0.39" d="M585.934 93.7031L589.188 94.2944H587.31L584.029 93.7134L585.934 93.7031Z" fill="#C0BEF8" fill-opacity="0.3"/>
<path opacity="0.39" d="M592.624 94.9336L595.669 95.5043H593.82L590.746 94.9336H592.624Z" fill="#C0BEF8" fill-opacity="0.3"/>
<path opacity="0.39" d="M572.92 91.78L569.36 91.1836H571.39L574.909 91.78H572.92Z" fill="#C0BEF8" fill-opacity="0.3"/>
<path opacity="0.39" d="M598.983 96.1289L601.917 96.6945H600.068L597.203 96.1341L598.983 96.1289Z" fill="#C0BEF8" fill-opacity="0.3"/>
<path opacity="0.43" d="M581.612 97.2461L584.393 97.7602H582.321L579.54 97.2461H581.612Z" fill="#C0BEF8" fill-opacity="0.3"/>
<path opacity="0.43" d="M575.359 96.1211L578.238 96.6352H576.207L573.287 96.1211H575.359Z" fill="#C0BEF8" fill-opacity="0.3"/>
<path opacity="0.43" d="M561.689 93.8008L564.985 94.3509H562.774L559.548 93.8368L561.689 93.8008Z" fill="#C0BEF8" fill-opacity="0.3"/>
<path opacity="0.43" d="M568.693 94.9688L571.781 95.4829H569.708L566.552 94.9688H568.693Z" fill="#C0BEF8" fill-opacity="0.3"/>
<path opacity="0.43" d="M598.46 100.418L600.81 100.876H598.835L596.485 100.423L598.46 100.418Z" fill="#C0BEF8" fill-opacity="0.3"/>
<path opacity="0.43" d="M547.807 91.9654C546.569 91.7752 545.331 91.5952 544.08 91.4102H546.458L550.046 91.9706L547.807 91.9654Z" fill="#C0BEF8" fill-opacity="0.3"/>
<path opacity="0.43" d="M25.4439 103.837C29.5046 103.122 33.5513 102.413 37.5981 101.729L39.8927 101.703C35.7857 102.389 31.7203 103.086 27.6968 103.796L25.4439 103.837Z" fill="#C0BEF8" fill-opacity="0.3"/>
<path opacity="0.43" d="M554.283 92.6055L557.691 93.1504H555.466L552.017 92.6055H554.283Z" fill="#C0BEF8" fill-opacity="0.3"/>
<path opacity="0.43" d="M593.171 99.3945L595.605 99.8624H593.602L591.197 99.3945H593.171Z" fill="#C0BEF8" fill-opacity="0.3"/>
<path opacity="0.47" d="M600.344 105.223L601.499 105.455L599.343 105.419L598.203 105.188L600.344 105.223Z" fill="#C0BEF8" fill-opacity="0.3"/>
<path opacity="0.47" d="M521.596 92.2935L517.897 91.7794L520.595 91.7383L524.225 92.2524L521.596 92.2935Z" fill="#C0BEF8" fill-opacity="0.3"/>
<path opacity="0.47" d="M596.936 104.523L598.326 104.801L596.129 104.76L594.808 104.492L596.936 104.523Z" fill="#C0BEF8" fill-opacity="0.3"/>
<path opacity="0.47" d="M528.817 92.8789L532.252 93.393L529.707 93.4187L526.161 92.9046L528.817 92.8789Z" fill="#C0BEF8" fill-opacity="0.3"/>
<path opacity="0.47" d="M593.062 103.772C593.604 103.875 594.146 103.977 594.675 104.085L592.519 104.055L590.92 103.746L593.062 103.772Z" fill="#C0BEF8" fill-opacity="0.3"/>
<path opacity="0.47" d="M30.777 103.74C35.0509 103.03 39.3202 102.345 43.5848 101.683L46.2131 101.652C41.8743 102.338 37.5912 103.023 33.3636 103.709L30.777 103.74Z" fill="#C0BEF8" fill-opacity="0.3"/>
<path opacity="0.47" d="M557.292 97.2852L560.074 97.7427H557.71L554.998 97.2903L557.292 97.2852Z" fill="#C0BEF8" fill-opacity="0.3"/>
<path opacity="0.47" d="M536.528 94.0117L539.824 94.5258L537.293 94.5516L534.011 94.0374C534.86 94.0374 535.68 94.022 536.528 94.0117Z" fill="#C0BEF8" fill-opacity="0.3"/>
<path opacity="0.47" d="M543.859 95.1328L546.946 95.611H544.512L541.467 95.1328H543.859Z" fill="#C0BEF8" fill-opacity="0.3"/>
<path opacity="0.47" d="M550.782 96.2188L553.661 96.6917H551.338L548.376 96.229L550.782 96.2188Z" fill="#C0BEF8" fill-opacity="0.3"/>
<path opacity="0.51" d="M37.4591 103.603C41.9741 102.917 46.489 102.232 51.0039 101.546L54.0634 101.516C49.4742 102.181 44.9454 102.856 40.4768 103.541L37.4591 103.603Z" fill="#C0BEF8" fill-opacity="0.3"/>
<path opacity="0.51" d="M510.409 94.3477L513.677 94.7847L510.771 94.8258L507.461 94.3888L510.409 94.3477Z" fill="#C0BEF8" fill-opacity="0.3"/>
<path opacity="0.51" d="M502.365 93.3242C503.506 93.4682 504.632 93.6224 505.759 93.7715L502.838 93.8178L499.32 93.3808L502.365 93.3242Z" fill="#C0BEF8" fill-opacity="0.3"/>
<path opacity="0.51" d="M494.291 92.7485C493.081 92.5994 491.858 92.4452 490.634 92.3012L493.735 92.2344L497.337 92.6817L494.291 92.7485Z" fill="#C0BEF8" fill-opacity="0.3"/>
<path opacity="0.51" d="M532.023 97.4336L534.623 97.8346H531.953L529.269 97.4387L532.023 97.4336Z" fill="#C0BEF8" fill-opacity="0.3"/>
<path opacity="0.55" d="M465.824 93.3922L462.208 93.0117L465.824 92.9141L469.37 93.2997L465.824 93.3922Z" fill="#C0BEF8" fill-opacity="0.3"/>
<path opacity="0.55" d="M474.826 93.8984C475.939 94.0218 477.051 94.1555 478.15 94.284L474.687 94.3509L471.239 93.9756L474.826 93.8984Z" fill="#C0BEF8" fill-opacity="0.3"/>
<path opacity="0.55" d="M483.218 94.8633L486.403 95.2386L483.051 95.3054L479.825 94.9353L483.218 94.8633Z" fill="#C0BEF8" fill-opacity="0.3"/>
<path opacity="0.55" d="M45.8026 103.489C50.5957 102.804 55.3887 102.137 60.1818 101.489L63.7975 101.453C58.9302 102.101 54.1186 102.761 49.3626 103.433L45.8026 103.489Z" fill="#C0BEF8" fill-opacity="0.3"/>
<path opacity="0.6" d="M446.14 94.6719L449.394 94.9906L445.417 95.1037C444.318 94.9958 443.206 94.8981 442.093 94.7953L446.14 94.6719Z" fill="#C0BEF8" fill-opacity="0.3"/>
<path opacity="0.6" d="M454.886 95.5586L458.001 95.8928L454.094 95.9956L451.034 95.6871L454.886 95.5586Z" fill="#C0BEF8" fill-opacity="0.3"/>
<path opacity="0.6" d="M436.137 94.2427L432.591 93.9291L436.763 93.7852L440.24 94.1091L436.137 94.2427Z" fill="#C0BEF8" fill-opacity="0.3"/>
<path opacity="0.6" d="M470.746 97.3008L473.291 97.599L469.62 97.6658L467.144 97.3779C468.354 97.3522 469.536 97.3213 470.746 97.3008Z" fill="#C0BEF8" fill-opacity="0.3"/>
<path opacity="0.6" d="M463.082 96.4375L465.864 96.746L462.053 96.8282L459.272 96.5249L463.082 96.4375Z" fill="#C0BEF8" fill-opacity="0.3"/>
<path opacity="0.6" d="M484.663 98.9766L486.777 99.2388L483.231 99.285L481.145 99.028L484.663 98.9766Z" fill="#C0BEF8" fill-opacity="0.3"/>
<path opacity="0.6" d="M477.991 98.1523L480.272 98.4351L476.725 98.4917L474.375 98.2192L477.991 98.1523Z" fill="#C0BEF8" fill-opacity="0.3"/>
<path opacity="0.6" d="M490.886 99.7695L492.763 100.006L489.329 100.037L487.507 99.8055L490.886 99.7695Z" fill="#C0BEF8" fill-opacity="0.3"/>
<path opacity="0.64" d="M405.061 95.3209L401.723 95.0792L406.549 94.8633L409.914 95.1152L405.061 95.3209Z" fill="#C0BEF8" fill-opacity="0.3"/>
<path opacity="0.64" d="M416.279 95.6523L419.338 95.9043L414.666 96.0688L411.592 95.8271L416.279 95.6523Z" fill="#C0BEF8" fill-opacity="0.3"/>
<path opacity="0.64" d="M449.032 98.7383L451.049 98.9799L446.877 99.0673L444.833 98.8617L449.032 98.7383Z" fill="#C0BEF8" fill-opacity="0.3"/>
<path opacity="0.64" d="M433.776 97.2148L436.307 97.4565L431.912 97.5747L429.395 97.3382L433.776 97.2148Z" fill="#C0BEF8" fill-opacity="0.3"/>
<path opacity="0.64" d="M441.679 97.9805L443.96 98.2118L439.676 98.3147L437.437 98.0936L441.679 97.9805Z" fill="#C0BEF8" fill-opacity="0.3"/>
<path opacity="0.64" d="M425.321 96.4375L428.102 96.6843L423.569 96.8282L420.787 96.5866L425.321 96.4375Z" fill="#C0BEF8" fill-opacity="0.3"/>
<path opacity="0.64" d="M455.849 99.4883L457.643 99.6837L453.471 99.7556L451.705 99.5654L455.849 99.4883Z" fill="#C0BEF8" fill-opacity="0.3"/>
<path opacity="0.64" d="M486.633 103.195L486.87 103.231H484.089H483.032H482.893L486.633 103.195Z" fill="#C0BEF8" fill-opacity="0.3"/>
<path opacity="0.68" d="M385.145 96.8711L387.857 97.0613L382.461 97.2824L379.749 97.1024L385.145 96.8711Z" fill="#C0BEF8" fill-opacity="0.3"/>
<path opacity="0.68" d="M372.574 96.6675L369.584 96.4875L375.147 96.2305L378.123 96.4155L372.574 96.6675Z" fill="#C0BEF8" fill-opacity="0.3"/>
<path opacity="0.68" d="M394.455 97.5312L396.903 97.7163L391.66 97.9117L389.24 97.7318L394.455 97.5312Z" fill="#C0BEF8" fill-opacity="0.3"/>
<path opacity="0.68" d="M411.14 98.8594L413.143 99.0239L408.053 99.1679L406.175 99.0188L411.14 98.8594Z" fill="#C0BEF8" fill-opacity="0.3"/>
<path opacity="0.68" d="M418.591 99.4883L420.232 99.6374L415.365 99.7659L413.751 99.6271L418.591 99.4883Z" fill="#C0BEF8" fill-opacity="0.3"/>
<path opacity="0.68" d="M403.125 98.1953L405.308 98.3752L400.205 98.5398L398.022 98.3752L403.125 98.1953Z" fill="#C0BEF8" fill-opacity="0.3"/>
<path opacity="0.72" d="M386.606 100.516L387.788 100.608L381.962 100.783L380.891 100.711L386.606 100.516Z" fill="#C0BEF8" fill-opacity="0.3"/>
<path opacity="0.72" d="M379.067 99.9648L380.582 100.073L374.658 100.278L373.268 100.181L379.067 99.9648Z" fill="#C0BEF8" fill-opacity="0.3"/>
<path opacity="0.72" d="M393.458 101.031L394.334 101.103L388.563 101.263L387.84 101.206L393.458 101.031Z" fill="#C0BEF8" fill-opacity="0.3"/>
<path opacity="0.72" d="M405.517 102.016H405.767L400.094 102.139H399.955L405.517 102.016Z" fill="#C0BEF8" fill-opacity="0.3"/>
<path opacity="0.72" d="M370.933 99.4219L372.768 99.5401L366.719 99.7766L364.981 99.6738L370.933 99.4219Z" fill="#C0BEF8" fill-opacity="0.3"/>
<path opacity="0.72" d="M399.764 101.551L400.264 101.592C398.401 101.633 396.537 101.69 394.702 101.736L394.257 101.7L399.764 101.551Z" fill="#C0BEF8" fill-opacity="0.3"/>
<path opacity="0.72" d="M362.159 98.8789L364.314 99.0023L358.112 99.2697L356.054 99.1617L362.159 98.8789Z" fill="#C0BEF8" fill-opacity="0.3"/>
<path opacity="0.72" d="M352.737 98.3516L355.088 98.4647L348.802 98.768L346.41 98.6549L352.737 98.3516Z" fill="#C0BEF8" fill-opacity="0.3"/>
<path opacity="0.72" d="M338.747 98.3104L335.966 98.1973L342.572 97.8477L345.172 97.9762L338.747 98.3104Z" fill="#C0BEF8" fill-opacity="0.3"/>
<path opacity="0.76" d="M345.93 102.018L347.001 101.977H347.571L346.181 102.028L345.93 102.018Z" fill="#C0BEF8" fill-opacity="0.3"/>
<path opacity="0.76" d="M345.361 101.324L346.126 101.365C343.776 101.458 341.44 101.561 339.09 101.664L338.464 101.633L345.361 101.324Z" fill="#C0BEF8" fill-opacity="0.3"/>
<path opacity="0.76" d="M337.203 100.914L338.288 100.971L331.154 101.289L330.195 101.248L337.203 100.914Z" fill="#C0BEF8" fill-opacity="0.3"/>
<path opacity="0.76" d="M353.079 101.769L351.215 101.841H350.52L352.661 101.754L353.079 101.769Z" fill="#C0BEF8" fill-opacity="0.3"/>
<path opacity="0.76" d="M318.866 100.129L320.688 100.196C318.198 100.329 315.709 100.453 313.22 100.592L311.648 100.535L318.866 100.129Z" fill="#C0BEF8" fill-opacity="0.3"/>
<path opacity="0.76" d="M1588.39 164C1596.67 163.314 1604.92 162.612 1613.11 161.892C1647.03 159.65 1676.9 157.45 1701.72 155.496C1698.01 155.966 1694.31 156.427 1690.6 156.879C1661.95 159.085 1627.45 161.547 1588.39 164Z" fill="#C0BEF8" fill-opacity="0.3"/>
<path opacity="0.76" d="M328.398 100.516L329.858 100.577L322.557 100.932L321.292 100.881L328.398 100.516Z" fill="#C0BEF8" fill-opacity="0.3"/>
<path opacity="0.76" d="M359.536 102.154L354.808 102.318L359.439 102.148L359.536 102.154Z" fill="#C0BEF8" fill-opacity="0.3"/>
<path d="M1590.09 181.539C1597.22 180.902 1604.34 180.24 1611.46 179.555C1638.01 177.879 1662.26 176.218 1683.78 174.66C1679.17 175.215 1674.49 175.771 1669.77 176.316C1645.95 177.997 1619.18 179.771 1590.09 181.539Z" fill="#C0BEF8" fill-opacity="0.3"/>
<path d="M220.052 105.934L216.923 106.18H208.107L220.052 105.934Z" fill="#C0BEF8" fill-opacity="0.3"/>
<path d="M194.907 107.272L206.755 106.969L200.094 107.483C196.075 107.601 192.056 107.719 188.023 107.848L188.747 107.781L194.907 107.272Z" fill="#C0BEF8" fill-opacity="0.3"/>
<path d="M180.036 109.168L175.447 109.574C171.401 109.744 167.34 109.919 163.293 110.088C165.059 109.924 166.812 109.749 168.578 109.574L180.036 109.168Z" fill="#C0BEF8" fill-opacity="0.3"/>
<path d="M200.424 106.808L205.903 106.355H214.553L212.648 106.505L200.424 106.808Z" fill="#C0BEF8" fill-opacity="0.3"/>
<path d="M181.998 108.405C185.864 108.277 189.758 108.159 193.68 108.035L187.839 108.518C183.778 108.668 179.704 108.811 175.643 108.966L177.701 108.786L181.998 108.405Z" fill="#C0BEF8" fill-opacity="0.3"/>
<path d="M218.555 106.688L212.478 107.135C208.306 107.253 204.217 107.382 200.087 107.51L206.748 106.996L218.555 106.688Z" fill="#C0BEF8" fill-opacity="0.3"/>
<path d="M212.653 106.512L214.558 106.363H218.41L212.653 106.512Z" fill="#C0BEF8" fill-opacity="0.3"/>
<path d="M191.494 108.742L187.614 109.056L175.446 109.57L180.035 109.164L191.494 108.742Z" fill="#C0BEF8" fill-opacity="0.3"/>
<path d="M178.189 109.848L175.407 110.074L163.267 110.645L166.938 110.321L178.189 109.848Z" fill="#C0BEF8" fill-opacity="0.3"/>
<path d="M205.306 107.688L200.244 108.078L187.84 108.52L193.68 108.037L205.306 107.688Z" fill="#C0BEF8" fill-opacity="0.3"/>
<path d="M189.199 109.402L187.808 109.505C183.637 109.69 179.465 109.886 175.376 110.076L178.157 109.85L189.199 109.402Z" fill="#C0BEF8" fill-opacity="0.3"/>
<path d="M202.802 108.367L199.812 108.588L187.616 109.072L191.496 108.758L202.802 108.367Z" fill="#C0BEF8" fill-opacity="0.3"/>
<path d="M216.808 107.359L212.497 107.668L200.245 108.079L205.307 107.688L216.808 107.359Z" fill="#C0BEF8" fill-opacity="0.3"/>
<path d="M213.905 107.996L211.958 108.125C207.907 108.272 203.86 108.426 199.818 108.587L202.808 108.366C206.479 108.233 210.192 108.114 213.905 107.996Z" fill="#C0BEF8" fill-opacity="0.3"/>
<path d="M199.73 108.98C195.781 109.15 191.818 109.32 187.868 109.495L189.259 109.392L199.73 108.98Z" fill="#C0BEF8" fill-opacity="0.3"/>
<path d="M313.168 102.153L323.014 101.68L334.375 101.813L325.378 102.23C321.317 102.199 317.242 102.178 313.168 102.153Z" fill="#C0BEF8" fill-opacity="0.3"/>
<path d="M313.048 102.82L315.05 102.723L321.642 102.414L333.852 102.512C331.07 102.62 328.289 102.738 325.508 102.856C321.336 102.841 317.192 102.825 313.048 102.82Z" fill="#C0BEF8" fill-opacity="0.3"/>
<path d="M338.183 102.333C334.011 102.302 329.992 102.261 325.89 102.236C329.033 102.092 332.162 101.958 335.305 101.824L347 101.973L345.929 102.014L338.183 102.333Z" fill="#C0BEF8" fill-opacity="0.3"/>
<path d="M312.737 103.405L320.33 103.086L332.29 103.132L325.337 103.4L312.737 103.405Z" fill="#C0BEF8" fill-opacity="0.3"/>
<path d="M325.482 102.86C328.263 102.742 331.044 102.624 333.826 102.516L346.021 102.618L338.053 102.906L325.482 102.86Z" fill="#C0BEF8" fill-opacity="0.3"/>
<path d="M354.814 102.32L351.101 102.448L338.348 102.34L346.233 102.032L347.624 101.98L359.681 102.145H359.5L354.814 102.32Z" fill="#C0BEF8" fill-opacity="0.3"/>
<path d="M182.947 111.125L178.414 111.428L175.229 111.639H174.756L182.947 111.125Z" fill="#C0BEF8" fill-opacity="0.3"/>
<path d="M325.33 103.392L332.284 103.125L344.327 103.176L337.971 103.387L325.33 103.392Z" fill="#C0BEF8" fill-opacity="0.3"/>
<path d="M338.089 102.905L346.057 102.617L358.183 102.735L350.576 102.967L338.089 102.905Z" fill="#C0BEF8" fill-opacity="0.3"/>
<path d="M363.616 102.578C359.444 102.532 355.272 102.485 351.1 102.449L354.813 102.321L359.542 102.156H359.806L372.016 102.331L363.616 102.578Z" fill="#C0BEF8" fill-opacity="0.3"/>
<path d="M325.081 103.839C320.909 103.839 316.737 103.88 312.454 103.906L318.253 103.664H330.059L325.081 103.839Z" fill="#C0BEF8" fill-opacity="0.3"/>
<path d="M207.375 109.66C202.897 109.917 198.475 110.174 194.067 110.447C190.326 110.668 186.627 110.894 182.942 111.125L174.751 111.64H172.401C183.869 110.964 195.527 110.305 207.375 109.66Z" fill="#C0BEF8" fill-opacity="0.3"/>
<path d="M325.083 103.836L330.062 103.656H341.674L337.502 103.78L325.083 103.836Z" fill="#C0BEF8" fill-opacity="0.3"/>
<path d="M337.979 103.39L344.334 103.18L356.03 103.252L350.564 103.411L337.979 103.39Z" fill="#C0BEF8" fill-opacity="0.3"/>
<path d="M363.145 103.047L350.629 102.97L358.236 102.738L370.293 102.867L363.145 103.047Z" fill="#C0BEF8" fill-opacity="0.3"/>
<path d="M363.625 102.576L371.969 102.324L384.137 102.514L376.322 102.71L363.625 102.576Z" fill="#C0BEF8" fill-opacity="0.3"/>
<path d="M312.666 104.297L316.018 104.169L327.282 104.117L324.987 104.194C320.885 104.225 316.768 104.256 312.666 104.297Z" fill="#C0BEF8" fill-opacity="0.3"/>
<path d="M363.292 103.435L350.553 103.409L356.019 103.25L367.853 103.327L363.292 103.435Z" fill="#C0BEF8" fill-opacity="0.3"/>
<path d="M376.367 102.711L384.182 102.516L396.267 102.716L388.952 102.865C384.766 102.814 380.566 102.757 376.367 102.711Z" fill="#C0BEF8" fill-opacity="0.3"/>
<path d="M324.987 104.195L327.282 104.118L338.268 104.082H338.031L324.987 104.195Z" fill="#C0BEF8" fill-opacity="0.3"/>
<path d="M363.149 103.047L370.242 102.867L382.229 103.006L375.818 103.14C371.591 103.093 367.377 103.093 363.149 103.047Z" fill="#C0BEF8" fill-opacity="0.3"/>
<path d="M337.433 103.791L341.605 103.668H352.994L350.213 103.74C345.958 103.761 341.688 103.776 337.433 103.791Z" fill="#C0BEF8" fill-opacity="0.3"/>
<path d="M350.211 103.756L352.992 103.684L364.117 103.714L362.727 103.74C358.527 103.745 354.369 103.745 350.211 103.756Z" fill="#C0BEF8" fill-opacity="0.3"/>
<path d="M375.815 103.138L382.226 103.004L394.061 103.153L388.568 103.246C384.298 103.204 380.126 103.168 375.815 103.138Z" fill="#C0BEF8" fill-opacity="0.3"/>
<path d="M388.953 102.864L396.268 102.715L408.255 102.926L401.733 103.028L388.953 102.864Z" fill="#C0BEF8" fill-opacity="0.3"/>
<path d="M375.867 103.482C371.695 103.482 367.523 103.446 363.351 103.436L367.912 103.328L379.246 103.421L375.867 103.482Z" fill="#C0BEF8" fill-opacity="0.3"/>
<path d="M375.871 103.48L379.195 103.418L390.542 103.511L388.706 103.541C384.437 103.516 380.126 103.5 375.871 103.48Z" fill="#C0BEF8" fill-opacity="0.3"/>
<path d="M388.567 103.245L394.06 103.152L405.727 103.312L401.402 103.363L388.567 103.245Z" fill="#C0BEF8" fill-opacity="0.3"/>
<path d="M414.085 103.503L401.402 103.364L405.727 103.312L416.991 103.482L414.085 103.503Z" fill="#C0BEF8" fill-opacity="0.3"/>
<path d="M388.703 103.543L390.538 103.512L400.482 103.615L388.703 103.543Z" fill="#C0BEF8" fill-opacity="0.3"/>
</g>
</svg>
