<svg width="48" height="52" viewBox="0 0 48 52" fill="none" xmlns="http://www.w3.org/2000/svg">
<path d="M44.9045 16.7738C44.2183 16.7746 43.5518 17.0221 43.0092 17.4775C42.4666 17.9328 42.0787 18.5702 41.9062 19.2899H30.148C30.0098 18.0946 29.5755 16.9621 28.8912 16.0126L34.0113 10.4635C34.6029 10.8409 35.2933 10.9948 35.9743 10.9011C36.6553 10.8073 37.2883 10.4712 37.774 9.94555C38.0622 9.63453 38.2907 9.26475 38.4463 8.85753C38.6019 8.45032 38.6815 8.01374 38.6805 7.57299C38.6803 7.05721 38.5703 6.54842 38.3591 6.08618C38.148 5.62393 37.8413 5.22068 37.4629 4.90774C37.0845 4.5948 36.6447 4.38062 36.1775 4.28183C35.7104 4.18302 35.2284 4.20229 34.7693 4.3381C34.3101 4.47392 33.8859 4.72265 33.5299 5.06494C33.1738 5.40722 32.8954 5.83387 32.7162 6.31172C32.537 6.78957 32.4619 7.30574 32.4968 7.82014C32.5316 8.33454 32.6755 8.83332 32.9171 9.27769L27.7951 14.8269C26.9206 14.0904 25.8792 13.6228 24.7803 13.4734V6.60322C25.5099 6.39909 26.1458 5.91361 26.5687 5.23779C26.9916 4.56196 27.1726 3.74219 27.0776 2.93215C26.9827 2.1221 26.6184 1.37739 26.0529 0.837592C25.4875 0.297802 24.7599 0 24.0063 0C23.2527 0 22.525 0.297802 21.9596 0.837592C21.3942 1.37739 21.0298 2.1221 20.9349 2.93215C20.84 3.74219 21.0209 4.56196 21.4438 5.23779C21.8668 5.91361 22.5027 6.39909 23.2323 6.60322V13.4734C21.9303 13.651 20.7143 14.2734 19.7608 15.2505L17.432 12.6431C17.8173 11.9413 17.9531 11.1114 17.8141 10.3088C17.6751 9.50631 17.2707 8.78628 16.6769 8.28369C16.0829 7.78111 15.3403 7.53049 14.588 7.5788C13.8358 7.62711 13.1257 7.97105 12.5907 8.54613C12.0558 9.12122 11.7327 9.888 11.6822 10.7027C11.6316 11.5174 11.8569 12.3241 12.316 12.9717C12.7751 13.6191 13.4364 14.063 14.1759 14.2201C14.9153 14.3771 15.6823 14.2364 16.3329 13.8246L18.7701 16.5536C18.2835 17.3861 17.9736 18.3254 17.8626 19.3036H6.09376C5.90538 18.5129 5.45735 17.8239 4.83367 17.3656C4.20999 16.9073 3.45347 16.7112 2.70592 16.8141C1.95837 16.917 1.27112 17.3118 0.772968 17.9245C0.274826 18.5372 0 19.3257 0 20.1423C0 20.9588 0.274826 21.7474 0.772968 22.3601C1.27112 22.9728 1.95837 23.3675 2.70592 23.4704C3.45347 23.5733 4.20999 23.3772 4.83367 22.919C5.45735 22.4606 5.90538 21.7716 6.09376 20.981H17.8655C18.0106 22.1698 18.4454 23.2952 19.1252 24.2415L10.7959 33.2661C10.1467 32.8509 9.37992 32.7064 8.6395 32.8599C7.89905 33.0134 7.23568 33.4542 6.77373 34.0998C6.31179 34.7454 6.08299 35.5515 6.13024 36.3667C6.17748 37.182 6.49752 37.9507 7.03036 38.5286C7.5632 39.1065 8.27226 39.4539 9.02464 39.5059C9.77698 39.5578 10.521 39.3106 11.1172 38.8106C11.7134 38.3106 12.1208 37.5922 12.2631 36.7899C12.4053 35.9877 12.2728 35.1567 11.8901 34.4529L20.2175 25.4294C20.665 25.8076 21.1585 26.1171 21.6842 26.3488V34.3816L20.9189 33.6677C20.4813 33.2064 19.8937 32.9503 19.2832 32.9548C18.6727 32.9593 18.0883 33.224 17.6565 33.6918C16.8602 34.5557 16.7219 35.9595 17.3034 37.271C17.3392 37.3507 23.2323 43.9598 23.2323 43.9598V45.2902C23.027 45.2902 22.8301 45.3786 22.6849 45.5359C22.5398 45.6931 22.4583 45.9065 22.4583 46.129V51.1613C22.4583 51.3836 22.5398 51.597 22.6849 51.7544C22.8301 51.9116 23.027 52 23.2323 52H34.0684C34.2737 52 34.4706 51.9116 34.6157 51.7544C34.7608 51.597 34.8424 51.3836 34.8424 51.1613V46.129C34.8424 45.9065 34.7608 45.6931 34.6157 45.5359C34.4706 45.3786 34.2737 45.2902 34.0684 45.2902V43.9598L35.39 42.5288C35.535 42.3713 35.6165 42.1578 35.6164 41.9354V31.2417C35.6163 30.8313 35.5236 30.4272 35.3464 30.0645C35.1691 29.7019 34.9128 29.3917 34.5997 29.1609C34.2865 28.9303 33.926 28.786 33.5495 28.7408C33.1732 28.6957 32.7923 28.7508 32.4401 28.9017C32.3358 28.488 32.1356 28.11 31.8587 27.8037C31.5817 27.4973 31.2372 27.2728 30.8576 27.1513C30.4781 27.0297 30.0762 27.0153 29.69 27.1094C29.3039 27.2035 28.9464 27.4028 28.6513 27.6887C28.3406 27.388 27.9612 27.1832 27.5526 27.0958C27.1439 27.0084 26.7211 27.0415 26.3283 27.1917V26.3488C27.3463 25.8962 28.2359 25.1601 28.9069 24.2151C29.5779 23.2701 30.0064 22.1497 30.149 20.9674H41.9062C42.051 21.5748 42.3501 22.1263 42.7695 22.5588C43.1889 22.9914 43.7119 23.2878 44.279 23.4144C44.8462 23.5411 45.4347 23.4929 45.9778 23.2752C46.5209 23.0576 46.9968 22.6793 47.3514 22.1833C47.7061 21.6873 47.9252 21.0935 47.984 20.4693C48.0428 19.8451 47.9388 19.2155 47.684 18.6521C47.4292 18.0887 47.0336 17.614 46.5423 17.2819C46.0509 16.9499 45.4836 16.7739 44.9045 16.7738ZM34.4902 6.3862C34.7806 6.07159 35.1744 5.89484 35.585 5.89484C35.9956 5.89484 36.3894 6.07159 36.6797 6.3862C36.9701 6.70082 37.1332 7.12754 37.1332 7.57247C37.1332 8.01741 36.9701 8.44412 36.6797 8.75873C36.5362 8.91515 36.3656 9.03917 36.1776 9.12358C35.9896 9.20797 35.788 9.25109 35.5845 9.25043C35.2783 9.25048 34.9788 9.1521 34.7242 8.96772C34.4695 8.78334 34.2711 8.52125 34.1539 8.21461C34.0368 7.90799 34.0062 7.57059 34.0661 7.24513C34.126 6.91965 34.2735 6.62074 34.4902 6.3862ZM15.8647 12.1136C15.6115 12.3883 15.2782 12.5594 14.9216 12.5978C14.565 12.6361 14.2072 12.5392 13.9092 12.3236C13.6111 12.1081 13.3913 11.7873 13.2871 11.4157C13.183 11.0442 13.2009 10.645 13.3379 10.2863C13.4749 9.92752 13.7225 9.6313 14.0385 9.44817C14.3545 9.26505 14.7192 9.20632 15.0707 9.282C15.4221 9.35768 15.7385 9.56308 15.9659 9.86325C16.1932 10.1633 16.3175 10.5396 16.3175 10.9279C16.318 11.1482 16.2783 11.3663 16.2006 11.5698C16.1229 11.7733 16.0087 11.9582 15.8647 12.1136ZM3.09544 21.8197C2.78927 21.8197 2.48998 21.7213 2.23541 21.537C1.98084 21.3527 1.78243 21.0907 1.66527 20.7842C1.5481 20.4777 1.51744 20.1404 1.57717 19.815C1.6369 19.4897 1.78434 19.1908 2.00083 18.9561C2.21733 18.7215 2.49316 18.5618 2.79344 18.497C3.09373 18.4323 3.40498 18.4656 3.68785 18.5925C3.97071 18.7195 4.21247 18.9344 4.38257 19.2104C4.55267 19.4862 4.64346 19.8105 4.64346 20.1423C4.64293 20.5869 4.47966 21.0133 4.18947 21.3277C3.89927 21.6422 3.50584 21.8191 3.09544 21.8197ZM10.3179 37.3434C10.0646 37.6184 9.73103 37.7898 9.37421 37.8282C9.01729 37.8666 8.65918 37.7698 8.36084 37.554C8.06251 37.3383 7.84245 37.0172 7.73816 36.6455C7.63388 36.2736 7.65182 35.874 7.78895 35.515C7.92607 35.1559 8.17388 34.8595 8.49014 34.6762C8.80639 34.493 9.17151 34.4343 9.5233 34.5101C9.87499 34.5859 10.1916 34.7915 10.4191 35.0919C10.6466 35.3924 10.7708 35.769 10.7707 36.1576C10.7711 36.3778 10.7313 36.596 10.6536 36.7995C10.576 37.003 10.4619 37.1878 10.3179 37.3434ZM22.4583 3.35423C22.4583 3.02247 22.549 2.69815 22.7192 2.4223C22.8893 2.14645 23.131 1.93145 23.4139 1.80449C23.6968 1.67753 24.008 1.6443 24.3082 1.70903C24.6086 1.77375 24.8844 1.93352 25.1009 2.1681C25.3174 2.40271 25.4648 2.70159 25.5246 3.02699C25.5843 3.35238 25.5536 3.68965 25.4365 3.99617C25.3193 4.30268 25.1209 4.56465 24.8663 4.74897C24.6117 4.93329 24.3125 5.03167 24.0063 5.03167C23.5959 5.0311 23.2025 4.85418 22.9122 4.53972C22.6221 4.22526 22.4588 3.79894 22.4583 3.35423ZM33.2944 50.3226H24.0063V46.9677H33.2944V50.3226ZM27.1023 28.7255C27.204 28.7253 27.3047 28.7469 27.3987 28.7891C27.4926 28.8311 27.578 28.8929 27.6499 28.9709C27.7218 29.0488 27.7788 29.1412 27.8177 29.2431C27.8566 29.3449 27.8764 29.4541 27.8763 29.5643V33.7579C27.8763 33.9802 27.9579 34.1936 28.103 34.3509C28.2481 34.5082 28.445 34.5966 28.6503 34.5966C28.8556 34.5966 29.0525 34.5082 29.1977 34.3509C29.3428 34.1936 29.4243 33.9802 29.4243 33.7579V29.5643C29.4243 29.3418 29.5059 29.1284 29.651 28.9712C29.7962 28.8139 29.993 28.7255 30.1984 28.7255C30.4037 28.7255 30.6005 28.8139 30.7457 28.9712C30.8908 29.1284 30.9724 29.3418 30.9724 29.5643V33.7579C30.9724 33.9802 31.0539 34.1936 31.199 34.3509C31.3442 34.5082 31.5411 34.5966 31.7464 34.5966C31.9517 34.5966 32.1486 34.5082 32.2937 34.3509C32.4388 34.1936 32.5204 33.9802 32.5204 33.7579V31.2417C32.5204 31.0192 32.6019 30.8059 32.7471 30.6486C32.8922 30.4914 33.0891 30.403 33.2944 30.403C33.4997 30.403 33.6966 30.4914 33.8417 30.6486C33.9868 30.8059 34.0684 31.0192 34.0684 31.2417V41.5883L32.7468 43.0194C32.6017 43.1769 32.5203 43.3903 32.5204 43.6128V45.2902H24.7803V43.6128C24.7804 43.3903 24.6989 43.1769 24.5539 43.0194L23.0107 41.3483L18.6521 36.4302C18.4499 35.906 18.4073 35.2518 18.7517 34.8786C18.8234 34.8006 18.9086 34.7386 19.0023 34.6964C19.0961 34.6541 19.1966 34.6323 19.2982 34.6322C19.3998 34.6321 19.5003 34.6537 19.5941 34.6959C19.688 34.7379 19.7732 34.7996 19.845 34.8775L19.8885 34.9216L21.9532 36.8454C22.0655 36.9501 22.2033 37.0178 22.3501 37.0403C22.4969 37.0627 22.6465 37.039 22.7812 36.972C22.916 36.9049 23.0301 36.7975 23.1101 36.6621C23.19 36.5269 23.2325 36.3696 23.2323 36.209V22.8545C23.2323 22.632 23.3138 22.4187 23.459 22.2614C23.6041 22.1042 23.801 22.0158 24.0063 22.0158C24.2116 22.0158 24.4085 22.1042 24.5536 22.2614C24.6987 22.4187 24.7803 22.632 24.7803 22.8545V33.7579C24.7803 33.9802 24.8618 34.1936 25.007 34.3509C25.1521 34.5082 25.349 34.5966 25.5543 34.5966C25.7596 34.5966 25.9565 34.5082 26.1016 34.3509C26.2467 34.1936 26.3283 33.9802 26.3283 33.7579V29.5643C26.3286 29.3419 26.4103 29.1287 26.5553 28.9715C26.7004 28.8142 26.8971 28.7258 27.1023 28.7255ZM26.3283 24.4858V22.8545C26.3283 22.1872 26.0836 21.5471 25.6482 21.0753C25.2128 20.6034 24.6221 20.3383 24.0063 20.3383C23.3905 20.3383 22.7998 20.6034 22.3643 21.0753C21.9289 21.5471 21.6842 22.1872 21.6842 22.8545V24.4858C20.7989 23.9319 20.1069 23.0769 19.7157 22.0534C19.3245 21.03 19.2559 19.8953 19.5205 18.8252C19.785 17.7552 20.3681 16.8096 21.1791 16.1353C21.9902 15.4609 22.984 15.0954 24.0063 15.0954C25.0285 15.0954 26.0224 15.4609 26.8334 16.1353C27.6445 16.8096 28.2275 17.7552 28.4921 18.8252C28.7567 19.8953 28.6881 21.03 28.2968 22.0534C27.9056 23.0769 27.2137 23.9319 26.3283 24.4858ZM44.9045 21.8061C44.5984 21.8061 44.2991 21.7076 44.0445 21.5233C43.79 21.339 43.5915 21.077 43.4744 20.7706C43.3572 20.464 43.3265 20.1268 43.3862 19.8013C43.446 19.476 43.5935 19.1771 43.8099 18.9425C44.0264 18.7079 44.3023 18.5482 44.6026 18.4834C44.9028 18.4187 45.214 18.452 45.4969 18.5789C45.7798 18.7059 46.0215 18.9208 46.1917 19.1967C46.3618 19.4726 46.4526 19.7968 46.4526 20.1287C46.452 20.5733 46.2888 20.9997 45.9986 21.3141C45.7083 21.6286 45.315 21.8055 44.9045 21.8061Z" fill="url(#paint0_linear_178_9323)"/>
<defs>
<linearGradient id="paint0_linear_178_9323" x1="24" y1="0" x2="24" y2="52" gradientUnits="userSpaceOnUse">
<stop stop-color="#F86CA7"/>
<stop offset="1" stop-color="#FF7F18"/>
</linearGradient>
</defs>
</svg>
