<svg width="47" height="50" viewBox="0 0 47 50" fill="none" xmlns="http://www.w3.org/2000/svg">
<path d="M46.5626 31.6575C45.7649 30.4097 44.0711 29.9452 42.7028 30.5979L34.0577 34.501C33.6372 33.3189 32.5734 32.4888 31.3312 32.4888H23.5648C22.4132 32.4888 20.5278 32.1218 19.4411 31.6867L19.3987 31.6681C19.3928 31.6655 19.3868 31.663 19.381 31.6606C17.9875 31.0998 15.8489 30.765 13.6602 30.765H10.399V29.9086C10.399 28.7592 9.54449 27.8241 8.49419 27.8241H6.79535V27.0918C6.79535 26.6873 6.49574 26.3594 6.12612 26.3594H0.669239C0.299613 26.3594 0 26.6873 0 27.0918V49.0629C0 49.4674 0.299613 49.7953 0.669239 49.7953H6.12612C6.49574 49.7953 6.79535 49.4674 6.79535 49.0629V48.0535H8.49419C9.54449 48.0535 10.399 47.1184 10.399 45.969V44.8749L24.7011 48.5064C25.0134 48.581 25.3594 48.6165 25.7208 48.6165C26.8789 48.6164 28.195 48.2525 29.0585 47.6439L45.7072 35.6849C46.3554 35.2283 46.809 34.5122 46.9515 33.72C47.0831 32.9883 46.945 32.2558 46.5626 31.6575ZM5.45677 48.3304H1.33838V27.824H5.45677V48.3304ZM9.06037 31.4863C9.06037 31.4901 9.05986 31.4936 9.05986 31.4973C9.05986 31.501 9.06027 31.5045 9.06037 31.5082V43.9298C9.06016 43.9367 9.06037 43.9435 9.06037 43.9503V45.9689C9.06037 46.3105 8.80637 46.5886 8.49409 46.5886H6.79525V29.2888H8.49409C8.80637 29.2888 9.06037 29.5667 9.06037 29.9085V31.4863ZM45.6381 33.4369C45.5655 33.8405 45.3268 34.2109 44.9778 34.4567L28.329 46.4159C27.5059 46.9957 25.9439 47.3041 24.995 47.0774L10.3988 43.3712V32.2296H13.6601C15.6949 32.2296 17.6564 32.5294 18.9101 33.0318L18.9527 33.0504C18.9585 33.0529 18.9645 33.0554 18.9705 33.0578C20.1979 33.5516 22.2589 33.9534 23.5648 33.9534H31.3312C32.1634 33.9534 32.8718 34.6673 32.9108 35.5551C32.9121 35.5774 32.9126 35.6004 32.9126 35.6235C32.9126 35.7307 32.903 35.8346 32.8835 35.9408C32.7394 36.7238 32.0865 37.2922 31.3312 37.2922H23.5796C23.3256 37.2815 21.2089 37.2457 19.4507 38.9083C19.171 39.1728 19.1402 39.6352 19.3819 39.9413C19.5143 40.1089 19.7009 40.1948 19.8886 40.1948C20.0435 40.1948 20.1994 40.1361 20.3258 40.0166C21.7394 38.6801 23.5125 38.7549 23.528 38.7559C23.5403 38.7567 23.5526 38.757 23.565 38.757H31.3312C32.7214 38.757 33.9261 37.6943 34.1957 36.23C34.2092 36.1566 34.2193 36.0827 34.2279 36.0086L43.2199 31.949C43.2245 31.9468 43.2292 31.9448 43.2337 31.9426C44.0124 31.5685 45.0346 31.8224 45.4659 32.4969C45.6376 32.7659 45.6988 33.0997 45.6381 33.4369Z" fill="url(#paint0_linear_178_9324)"/>
<path d="M14.6461 16.6094L15.6217 16.7978C15.6707 17.243 15.7412 17.6845 15.8327 18.1186L14.9768 18.66C14.0463 19.2483 13.7261 20.5557 14.2632 21.5746L15.6711 24.2432C15.9305 24.736 16.351 25.0888 16.8553 25.2367C17.0243 25.2863 17.1955 25.3109 17.3657 25.3109C17.703 25.3109 18.0356 25.2144 18.3349 25.0255L19.1935 24.4831C19.4927 24.7888 19.806 25.0766 20.1309 25.3442L19.7922 26.3631C19.6142 26.8979 19.638 27.4776 19.859 27.9954C20.0796 28.5127 20.4698 28.9041 20.9569 29.0975L23.6039 30.1522C23.8231 30.2393 24.0476 30.2808 24.2683 30.2808C25.0652 30.2807 25.815 29.7421 26.1025 28.8766L26.4417 27.8567C26.6459 27.8685 26.8504 27.8749 27.0537 27.8749C27.2583 27.8749 27.4628 27.8686 27.6659 27.8568L28.0053 28.8764C28.2928 29.7419 29.0424 30.2806 29.8396 30.2804C30.0603 30.2804 30.2848 30.2391 30.504 30.1519L33.1502 29.0977C33.6384 28.9037 34.0287 28.5118 34.2492 27.9939C34.4694 27.4766 34.4929 26.8975 34.3155 26.3631L33.9767 25.3438C34.3019 25.0758 34.6152 24.788 34.9141 24.4823L35.7722 25.0244C36.0716 25.2138 36.4044 25.3104 36.7421 25.3104C36.9123 25.3104 37.0839 25.2858 37.2529 25.2362C37.7569 25.0882 38.1772 24.7354 38.4358 24.2435L39.844 21.5746C40.104 21.0823 40.1728 20.5072 40.0376 19.9556C39.9024 19.4044 39.5803 18.9443 39.1304 18.6599L38.2742 18.1184C38.3657 17.6835 38.4362 17.242 38.4852 16.7974L39.461 16.6095C40.5192 16.4045 41.2287 15.2959 41.0426 14.1382L40.5536 11.1024C40.3667 9.94464 39.3534 9.16765 38.2949 9.37204L37.3206 9.55975C37.135 9.16156 36.9302 8.77385 36.7076 8.39967L37.3445 7.56927C38.0345 6.66788 37.9262 5.31941 37.1028 4.56315L34.9464 2.58382C34.5491 2.21774 34.044 2.04299 33.5238 2.09268C33.0036 2.14203 32.533 2.40929 32.1988 2.84522L31.5643 3.67371C31.1884 3.49827 30.8032 3.34493 30.4115 3.21479V2.1329C30.4115 0.95682 29.5369 0 28.4617 0H25.6452C24.5704 0 23.6959 0.95682 23.6959 2.1329V3.21501C23.3041 3.34526 22.9188 3.49861 22.543 3.67393L21.9082 2.84533C21.5746 2.40963 21.1046 2.14225 20.5846 2.09245C20.0648 2.04276 19.5596 2.21639 19.1616 2.58179L17.0036 4.5636C16.1805 5.31963 16.0727 6.66788 16.7634 7.56904L17.3996 8.39955C17.1761 8.77487 16.9712 9.16269 16.7861 9.55986L15.812 9.37204C14.7527 9.16934 13.74 9.94599 13.554 11.1031L13.0651 14.1387C12.975 14.6982 13.09 15.2637 13.3891 15.7313C13.6883 16.1992 14.1349 16.5111 14.6461 16.6094ZM14.3832 14.3932L14.8722 11.3573C14.9305 10.9946 15.2493 10.7521 15.5806 10.8149L17.0527 11.0988C17.0613 11.1004 17.0698 11.101 17.0784 11.1022C17.0884 11.1037 17.0983 11.1053 17.1083 11.1063C17.123 11.1078 17.1376 11.1084 17.1523 11.1088C17.1576 11.1089 17.163 11.1097 17.1683 11.1097C17.17 11.1097 17.1715 11.1093 17.1732 11.1093C17.2346 11.109 17.2944 11.0992 17.3517 11.0814C17.3538 11.0807 17.3558 11.0802 17.3579 11.0795C17.4157 11.0608 17.4706 11.0337 17.5214 10.9991C17.5248 10.9969 17.5281 10.9945 17.5315 10.9922C17.5812 10.957 17.6265 10.9148 17.6662 10.8664C17.6694 10.8625 17.6726 10.8585 17.6758 10.8545C17.7155 10.8041 17.7489 10.7475 17.7751 10.6858C17.776 10.6837 17.7772 10.6817 17.7782 10.6796C18.0526 10.017 18.3903 9.37823 18.7817 8.78106C18.7843 8.77712 18.7863 8.77295 18.7888 8.76901C18.7968 8.75628 18.8044 8.74343 18.8116 8.73025C18.8161 8.72202 18.8204 8.7138 18.8246 8.70546C18.8308 8.69318 18.8366 8.68067 18.842 8.66805C18.8464 8.65814 18.8505 8.64822 18.8544 8.6382C18.8587 8.62704 18.8626 8.61577 18.8663 8.60451C18.8703 8.59279 18.874 8.58107 18.8773 8.56913C18.8801 8.55899 18.8826 8.54885 18.8851 8.53859C18.8882 8.52563 18.891 8.51268 18.8934 8.49972C18.8953 8.4898 18.8967 8.47989 18.8982 8.46997C18.9001 8.45679 18.9019 8.44361 18.9031 8.43031C18.9041 8.41984 18.9047 8.40936 18.9053 8.39888C18.906 8.38637 18.9065 8.37386 18.9066 8.36125C18.9067 8.34964 18.9064 8.33803 18.906 8.32632C18.9056 8.31505 18.9052 8.30378 18.9042 8.29251C18.9032 8.27967 18.9018 8.26683 18.9001 8.25409C18.8989 8.24407 18.8975 8.23392 18.8959 8.22401C18.8936 8.21049 18.8909 8.19719 18.8881 8.18379C18.886 8.17432 18.8839 8.16497 18.8816 8.15562C18.8782 8.14243 18.8744 8.12936 18.8703 8.11641C18.8673 8.10683 18.8642 8.09714 18.8608 8.08768C18.8565 8.07573 18.8518 8.0639 18.847 8.05218C18.8427 8.04159 18.8381 8.03123 18.8333 8.02086C18.8286 8.01072 18.8235 8.00069 18.8183 7.99066C18.8122 7.97906 18.8058 7.96757 18.7991 7.9563C18.7941 7.94785 18.7889 7.93951 18.7836 7.93128C18.7757 7.91923 18.7676 7.90751 18.7592 7.89591C18.7563 7.89196 18.7538 7.88768 18.7508 7.88385L17.7891 6.62822C17.5724 6.34552 17.6061 5.92277 17.864 5.68582L20.0218 3.70447C20.1459 3.59055 20.3047 3.53658 20.4679 3.55213C20.6313 3.56779 20.7784 3.65095 20.8823 3.78672L21.8434 5.04122C21.8468 5.04561 21.8506 5.04945 21.8541 5.05384C21.8604 5.06161 21.8668 5.06905 21.8734 5.07649C21.8879 5.09305 21.9028 5.10871 21.9185 5.12347C21.9239 5.12865 21.9292 5.13417 21.9347 5.13913C21.9562 5.15817 21.9785 5.17564 22.0016 5.19141C22.0061 5.19457 22.0109 5.19716 22.0156 5.2002C22.0354 5.21316 22.0558 5.22476 22.0767 5.23524C22.083 5.2384 22.0892 5.24155 22.0956 5.24448C22.1208 5.2562 22.1464 5.26668 22.1727 5.27479C22.1755 5.27569 22.1784 5.27614 22.1811 5.27693C22.2043 5.2838 22.2278 5.2891 22.2515 5.29316C22.2606 5.29473 22.2699 5.29609 22.2792 5.29733C22.2993 5.29992 22.3196 5.30138 22.3399 5.30195C22.3457 5.30206 22.3513 5.3033 22.3572 5.3033C22.3921 5.3033 22.4272 5.29913 22.4621 5.29304C22.4731 5.29113 22.4841 5.28955 22.4951 5.28696C22.5057 5.28448 22.5161 5.28121 22.5266 5.27817C22.5393 5.27457 22.552 5.27073 22.5647 5.26623C22.574 5.26285 22.5833 5.25902 22.5926 5.25519C22.6063 5.24955 22.6198 5.24335 22.6332 5.23671C22.638 5.23434 22.6428 5.23276 22.6474 5.23028C23.2477 4.91322 23.881 4.66106 24.5299 4.48078C24.5346 4.47943 24.5389 4.47752 24.5437 4.47616C24.5567 4.47222 24.5697 4.46783 24.5825 4.46309C24.5912 4.45983 24.5999 4.45633 24.6085 4.45262C24.6199 4.44766 24.6313 4.44247 24.6424 4.43695C24.6521 4.43211 24.6615 4.42715 24.6709 4.42197C24.6803 4.41667 24.6894 4.41115 24.6985 4.40541C24.7089 4.39887 24.719 4.39222 24.729 4.38512C24.7367 4.3796 24.7442 4.37397 24.7517 4.36811C24.7621 4.36011 24.7722 4.35189 24.7821 4.34321C24.7889 4.33724 24.7956 4.33104 24.8022 4.32473C24.8118 4.31572 24.8211 4.30648 24.8302 4.2969C24.8368 4.28992 24.8432 4.28259 24.8495 4.27527C24.8577 4.2658 24.8658 4.25634 24.8734 4.24642C24.88 4.23797 24.8864 4.22918 24.8927 4.2204C24.8993 4.21116 24.9058 4.20181 24.9119 4.19223C24.9185 4.18209 24.9247 4.17161 24.9308 4.16102C24.9359 4.15212 24.941 4.1431 24.9458 4.13398C24.9519 4.12248 24.9574 4.11065 24.963 4.09871C24.9671 4.0897 24.9711 4.08068 24.9749 4.07156C24.98 4.05939 24.9846 4.04699 24.9891 4.03449C24.9926 4.02468 24.9958 4.01488 24.9989 4.00496C25.0026 3.99302 25.0059 3.98097 25.009 3.9688C25.012 3.95742 25.0147 3.94592 25.0172 3.93432C25.0194 3.92339 25.0215 3.91235 25.0232 3.90131C25.0255 3.8879 25.0274 3.87438 25.0289 3.86086C25.03 3.85105 25.031 3.84114 25.0317 3.83122C25.0328 3.81635 25.0334 3.80148 25.0337 3.78649C25.0338 3.7812 25.0345 3.77613 25.0345 3.77083V2.13301C25.0345 1.76457 25.3084 1.46486 25.6453 1.46486H28.4618C28.7989 1.46486 29.0732 1.76457 29.0732 2.13301V3.7706C29.0732 3.77906 29.0741 3.78728 29.0743 3.79562C29.0746 3.80452 29.0749 3.81331 29.0755 3.8221C29.0766 3.83821 29.078 3.8541 29.0801 3.86987C29.081 3.87719 29.082 3.88441 29.083 3.89162C29.0857 3.90897 29.0888 3.92609 29.0926 3.943C29.0938 3.94818 29.095 3.95336 29.0963 3.95866C29.1008 3.97714 29.1058 3.99528 29.1116 4.01319C29.1127 4.0168 29.1139 4.0204 29.1152 4.02401C29.1216 4.04282 29.1285 4.06119 29.1362 4.07922C29.1374 4.08226 29.1388 4.08519 29.1401 4.08812C29.148 4.10615 29.1566 4.12384 29.1658 4.14107C29.1676 4.14434 29.1694 4.1475 29.1712 4.15076C29.1803 4.16721 29.1899 4.18321 29.2002 4.19876C29.2029 4.20282 29.2057 4.20688 29.2085 4.21082C29.2182 4.22502 29.2284 4.23899 29.2391 4.25228C29.2431 4.25724 29.2472 4.26197 29.2512 4.26682C29.2614 4.27887 29.2718 4.2907 29.2827 4.30197C29.2878 4.30727 29.2932 4.31245 29.2984 4.31763C29.309 4.328 29.3199 4.33803 29.3311 4.3476C29.3371 4.35267 29.3431 4.35752 29.3492 4.36248C29.3607 4.3716 29.3724 4.38051 29.3844 4.38884C29.3905 4.39312 29.3968 4.39718 29.4029 4.40124C29.4158 4.40957 29.429 4.41746 29.4424 4.4249C29.4481 4.42805 29.454 4.4311 29.4599 4.43414C29.4745 4.44157 29.4893 4.44845 29.5046 4.45476C29.5099 4.45701 29.5153 4.45915 29.5206 4.46118C29.5365 4.46726 29.5525 4.47267 29.5688 4.4774C29.572 4.4783 29.5749 4.47966 29.5781 4.48056C30.2264 4.66061 30.8595 4.91277 31.4599 5.22995C31.4637 5.23198 31.4677 5.23333 31.4715 5.23524C31.4869 5.2429 31.5023 5.25 31.5181 5.25631C31.5256 5.25936 31.533 5.2624 31.5405 5.26521C31.5556 5.27074 31.5709 5.27524 31.5861 5.27952C31.5942 5.28178 31.6023 5.28437 31.6104 5.28628C31.6255 5.28978 31.6408 5.29225 31.6561 5.29473C31.6642 5.29597 31.6722 5.29789 31.6803 5.29879C31.7024 5.30127 31.7244 5.30262 31.7464 5.30273C31.7478 5.30273 31.7491 5.30296 31.7503 5.30296C31.7546 5.30296 31.7588 5.30206 31.763 5.30195C31.7854 5.30149 31.8079 5.29969 31.8301 5.29688C31.8383 5.29575 31.8463 5.29462 31.8543 5.29327C31.88 5.28888 31.9054 5.28335 31.9305 5.27569C31.9316 5.27535 31.9328 5.27513 31.9339 5.27479C31.9607 5.26645 31.9869 5.25575 32.0128 5.24381C32.0184 5.24121 32.024 5.23829 32.0297 5.23547C32.0513 5.22465 32.0723 5.21259 32.0929 5.19919C32.097 5.19648 32.1013 5.19412 32.1054 5.1913C32.1287 5.17541 32.1512 5.15784 32.1728 5.13868C32.1783 5.13384 32.1834 5.12832 32.1887 5.12325C32.2043 5.10849 32.2193 5.09282 32.2338 5.07615C32.2404 5.0686 32.2469 5.06116 32.2533 5.05328C32.2567 5.04899 32.2605 5.04528 32.2638 5.04088L33.2244 3.78672C33.3285 3.65106 33.4758 3.56779 33.6394 3.55224C33.8028 3.5367 33.961 3.59078 34.0854 3.70548L36.2426 5.68571C36.501 5.923 36.5351 6.3462 36.3189 6.62856L35.3564 7.88362C35.3533 7.88768 35.3508 7.89196 35.3479 7.89602C35.3394 7.90751 35.3313 7.91923 35.3235 7.93128C35.318 7.93962 35.3127 7.94807 35.3077 7.95664C35.3011 7.96779 35.2948 7.97906 35.2889 7.99055C35.2835 8.00069 35.2784 8.01094 35.2735 8.02131C35.2688 8.03145 35.2644 8.0417 35.2601 8.05196C35.2551 8.06401 35.2503 8.07607 35.246 8.08835C35.2427 8.09748 35.2397 8.10672 35.2369 8.11607C35.2326 8.12948 35.2287 8.14277 35.2252 8.15641C35.223 8.16542 35.2209 8.17432 35.2189 8.18345C35.216 8.19719 35.2132 8.21094 35.2109 8.2248C35.2094 8.23438 35.2081 8.24395 35.2069 8.25353C35.2053 8.26682 35.2037 8.28001 35.2027 8.2933C35.2019 8.30412 35.2014 8.31494 35.201 8.32575C35.2006 8.33781 35.2003 8.34998 35.2004 8.36203C35.2005 8.37409 35.201 8.38626 35.2018 8.39831C35.2024 8.40924 35.203 8.42017 35.204 8.43099C35.2053 8.44384 35.2069 8.45668 35.2088 8.46952C35.2103 8.47989 35.2118 8.49014 35.2137 8.5004C35.2161 8.51302 35.2188 8.52552 35.2218 8.53814C35.2243 8.54885 35.227 8.55944 35.23 8.57003C35.2332 8.58152 35.2368 8.5929 35.2406 8.60417C35.2445 8.61589 35.2486 8.6276 35.253 8.6391C35.2567 8.64879 35.2607 8.65836 35.2649 8.66783C35.2705 8.6809 35.2765 8.69374 35.2829 8.70648C35.2869 8.71436 35.291 8.72225 35.2952 8.73002C35.3027 8.74366 35.3106 8.75695 35.3188 8.77014C35.3212 8.77397 35.3231 8.77791 35.3256 8.78163C35.7149 9.37497 36.0526 10.0137 36.329 10.6802C36.3303 10.6834 36.3323 10.6863 36.3336 10.6895C36.3465 10.7195 36.3605 10.7486 36.3767 10.7761C36.377 10.7765 36.3773 10.7768 36.3776 10.7773C36.3929 10.803 36.4101 10.8271 36.4281 10.8503C36.4336 10.8573 36.439 10.8642 36.4446 10.8709C36.462 10.8918 36.4801 10.9117 36.4996 10.9301C36.5031 10.9335 36.5067 10.9366 36.5103 10.9399C36.5296 10.9576 36.55 10.9737 36.5711 10.9889C36.5776 10.9935 36.5841 10.998 36.5907 11.0024C36.6141 11.018 36.6379 11.0325 36.6629 11.0449C36.6632 11.045 36.6634 11.0452 36.6637 11.0453C36.6901 11.0584 36.7176 11.0691 36.7455 11.0784C36.7504 11.0799 36.7553 11.0814 36.7602 11.0829C36.786 11.0908 36.8123 11.0972 36.8391 11.1016C36.8414 11.1019 36.8436 11.1026 36.8458 11.1029C36.874 11.1072 36.9028 11.1093 36.9318 11.1097C36.9342 11.1097 36.9364 11.1102 36.9388 11.1102C36.9464 11.1102 36.9541 11.1092 36.9617 11.1089C36.9733 11.1084 36.9847 11.108 36.9962 11.1069C37.009 11.1056 37.0218 11.1036 37.0345 11.1016C37.0411 11.1006 37.0477 11.1001 37.0544 11.0989L38.5269 10.815C38.8596 10.7512 39.1772 10.9945 39.2358 11.3573L39.7247 14.3927C39.783 14.7557 39.5601 15.1034 39.2287 15.1675L37.7536 15.4515C37.7462 15.453 37.7391 15.4553 37.7318 15.4569C37.723 15.459 37.7144 15.4611 37.7057 15.4635C37.6929 15.467 37.6803 15.4709 37.6677 15.4752C37.6592 15.4781 37.6509 15.4813 37.6424 15.4846C37.63 15.4895 37.6176 15.4947 37.6056 15.5004C37.5978 15.504 37.5902 15.5079 37.5827 15.5118C37.5704 15.5181 37.5585 15.5248 37.5467 15.5319C37.5396 15.5362 37.5326 15.5407 37.5257 15.5452C37.5142 15.5527 37.5029 15.5605 37.492 15.5687C37.485 15.5739 37.4782 15.5794 37.4714 15.5849C37.4612 15.5933 37.4512 15.6017 37.4414 15.6105C37.4342 15.6171 37.4273 15.6239 37.4203 15.6308C37.4118 15.6394 37.4033 15.6479 37.3951 15.6569C37.3877 15.6652 37.3805 15.6736 37.3734 15.6822C37.3664 15.6906 37.3595 15.6992 37.3529 15.708C37.3456 15.7177 37.3386 15.7277 37.3317 15.7378C37.3259 15.7464 37.3203 15.7549 37.3149 15.7636C37.3082 15.7745 37.3019 15.7855 37.2959 15.7967C37.2909 15.8057 37.2861 15.8148 37.2814 15.824C37.2759 15.8352 37.2707 15.8466 37.2658 15.8581C37.2613 15.8683 37.257 15.8787 37.2529 15.8892C37.2488 15.8998 37.2451 15.9106 37.2414 15.9214C37.2373 15.9337 37.2334 15.9462 37.2299 15.9588C37.2273 15.9681 37.2248 15.9777 37.2225 15.9873C37.219 16.0018 37.216 16.0166 37.2133 16.0315C37.2117 16.0398 37.2104 16.0483 37.2092 16.0567C37.2068 16.0726 37.205 16.0887 37.2036 16.1048C37.2032 16.1094 37.2024 16.1139 37.2021 16.1187C37.152 16.8503 37.0359 17.577 36.8567 18.2786C36.8556 18.2829 36.8551 18.2872 36.8541 18.2913C36.8503 18.3069 36.8472 18.3226 36.8444 18.3382C36.8428 18.347 36.8414 18.3558 36.8402 18.3646C36.8381 18.379 36.8365 18.3934 36.8353 18.408C36.8344 18.4183 36.8337 18.4287 36.8332 18.439C36.8325 18.4517 36.8324 18.4643 36.8324 18.4769C36.8324 18.4888 36.8326 18.5006 36.8332 18.5123C36.8337 18.5236 36.8346 18.5347 36.8355 18.5459C36.8367 18.5586 36.8379 18.5711 36.8396 18.5837C36.8411 18.5943 36.8429 18.6048 36.8448 18.6153C36.8471 18.6278 36.8493 18.6402 36.8522 18.6526C36.8547 18.6635 36.8576 18.6742 36.8605 18.6849C36.8636 18.6963 36.8668 18.7076 36.8704 18.7187C36.8742 18.7304 36.8785 18.7419 36.8828 18.7534C36.8865 18.7631 36.8901 18.7728 36.8941 18.7824C36.8994 18.7949 36.9051 18.8071 36.911 18.8191C36.915 18.8273 36.919 18.8356 36.9232 18.8437C36.9298 18.8562 36.937 18.8683 36.9444 18.8804C36.9489 18.8878 36.9534 18.8954 36.9581 18.9026C36.9658 18.9142 36.9739 18.9255 36.9821 18.9367C36.9876 18.9442 36.9932 18.9515 36.9989 18.9587C37.007 18.9687 37.0154 18.9784 37.024 18.9881C37.0311 18.996 37.0382 19.0038 37.0457 19.0113C37.0536 19.0193 37.0617 19.0272 37.0701 19.0349C37.0791 19.0433 37.0884 19.0514 37.098 19.0593C37.1056 19.0655 37.1133 19.0716 37.1211 19.0776C37.1319 19.0858 37.1431 19.0937 37.1544 19.1011C37.1584 19.1038 37.1621 19.1069 37.1662 19.1095L38.4607 19.9282C38.6013 20.0171 38.7022 20.1616 38.7447 20.3352C38.7872 20.5086 38.766 20.6886 38.685 20.8422L37.2763 23.5121C37.1957 23.6652 37.0641 23.7752 36.9058 23.8217C36.747 23.8681 36.5821 23.8451 36.4414 23.7561L35.1444 22.9369C35.1406 22.9344 35.1366 22.9326 35.1327 22.9303C35.1203 22.9229 35.1079 22.9159 35.0953 22.9094C35.0875 22.9053 35.0795 22.9014 35.0716 22.8977C35.0597 22.8921 35.0476 22.8869 35.0355 22.8822C35.0263 22.8786 35.017 22.8751 35.0078 22.872C34.9969 22.8682 34.9858 22.865 34.9748 22.8619C34.9642 22.859 34.9536 22.8562 34.943 22.8538C34.9329 22.8516 34.9227 22.8498 34.9125 22.848C34.9012 22.846 34.8899 22.8442 34.8786 22.843C34.8685 22.8419 34.8583 22.8412 34.8482 22.8405C34.8371 22.8398 34.826 22.8393 34.8149 22.8392C34.804 22.8391 34.7931 22.8395 34.7821 22.84C34.7721 22.8404 34.762 22.841 34.752 22.8419C34.7398 22.843 34.7276 22.8448 34.7154 22.8466C34.7069 22.848 34.6985 22.8492 34.69 22.8509C34.6765 22.8536 34.6631 22.8569 34.6497 22.8605C34.6427 22.8624 34.6358 22.8642 34.6288 22.8663C34.6147 22.8706 34.6007 22.8757 34.5868 22.881C34.5806 22.8833 34.5743 22.8857 34.5682 22.8883C34.5544 22.8942 34.541 22.9006 34.5275 22.9075C34.5211 22.9107 34.5148 22.9139 34.5085 22.9174C34.4961 22.9242 34.4838 22.9317 34.4718 22.9395C34.4646 22.9441 34.4575 22.9487 34.4505 22.9535C34.4398 22.961 34.4295 22.9688 34.4192 22.9769C34.4109 22.9833 34.4028 22.9899 34.3949 22.9969C34.3861 23.0045 34.3776 23.0124 34.3691 23.0205C34.3604 23.0288 34.3518 23.0375 34.3435 23.0464C34.3395 23.0507 34.3352 23.0543 34.3313 23.0587C33.8615 23.5839 33.3454 24.0582 32.7969 24.4683C32.7928 24.4715 32.7891 24.4751 32.785 24.4782C32.7745 24.4865 32.7643 24.4949 32.7543 24.5038C32.7466 24.5106 32.7391 24.5176 32.7317 24.5247C32.723 24.5331 32.7144 24.5418 32.7062 24.5508C32.6983 24.5594 32.6905 24.5679 32.683 24.5768C32.6763 24.5848 32.6698 24.593 32.6634 24.6014C32.6553 24.6117 32.6475 24.6222 32.6401 24.633C32.6349 24.6407 32.6299 24.6485 32.625 24.6563C32.6175 24.6681 32.6103 24.68 32.6035 24.6922C32.5991 24.7 32.5951 24.7079 32.591 24.7157C32.5846 24.7283 32.5784 24.7408 32.5728 24.7536C32.569 24.7623 32.5654 24.7711 32.5619 24.78C32.5569 24.7922 32.5522 24.8045 32.548 24.817C32.5445 24.8272 32.5414 24.8374 32.5384 24.8478C32.535 24.8593 32.5317 24.8708 32.5288 24.8825C32.5259 24.8942 32.5235 24.906 32.5211 24.918C32.5189 24.9286 32.517 24.9393 32.5152 24.95C32.5132 24.9628 32.5117 24.9758 32.5103 24.9888C32.5091 24.999 32.5081 25.0093 32.5075 25.0195C32.5066 25.0326 32.5062 25.0457 32.506 25.0588C32.5057 25.0697 32.5056 25.0804 32.5059 25.0912C32.5062 25.1035 32.5068 25.1156 32.5076 25.128C32.5084 25.1402 32.5095 25.1522 32.5108 25.1643C32.512 25.1751 32.5136 25.1858 32.5152 25.1966C32.5174 25.2105 32.5199 25.2242 32.5227 25.238C32.5247 25.2472 32.5269 25.2564 32.5291 25.2655C32.5328 25.2802 32.5369 25.295 32.5415 25.3096C32.5429 25.3143 32.5438 25.3189 32.5454 25.3234L33.0572 26.8636C33.1127 27.0305 33.105 27.2122 33.0356 27.3753C32.9664 27.5378 32.8448 27.6605 32.6926 27.721L30.0463 28.7752C29.729 28.901 29.3779 28.7219 29.2627 28.3753L28.7501 26.8347C28.7474 26.8267 28.744 26.8194 28.7411 26.8116C28.7382 26.8038 28.7354 26.7961 28.7323 26.7886C28.7261 26.7734 28.7196 26.7586 28.7126 26.7441C28.7097 26.7381 28.7067 26.7321 28.7036 26.7262C28.6955 26.7103 28.687 26.695 28.6779 26.68C28.6755 26.676 28.6731 26.6722 28.6706 26.6684C28.6603 26.6521 28.6496 26.6365 28.6383 26.6213C28.6364 26.6188 28.6345 26.6163 28.6326 26.6138C28.6205 26.5981 28.6079 26.583 28.5947 26.5685C28.5929 26.5665 28.5909 26.5645 28.5891 26.5625C28.5758 26.5483 28.5621 26.5346 28.5479 26.5218C28.5452 26.5193 28.5424 26.5171 28.5396 26.5146C28.5261 26.5027 28.5123 26.4914 28.498 26.4808C28.4936 26.4775 28.4892 26.4743 28.4846 26.4712C28.4718 26.4621 28.4588 26.4534 28.4455 26.4453C28.4389 26.4412 28.4321 26.4375 28.4253 26.4337C28.4137 26.4272 28.4021 26.4209 28.3902 26.4152C28.3814 26.4109 28.3723 26.407 28.3633 26.4031C28.3529 26.3987 28.3425 26.3945 28.3319 26.3905C28.3214 26.3867 28.3107 26.3833 28.2999 26.38C28.2902 26.3771 28.2804 26.3742 28.2705 26.3717C28.2592 26.3689 28.2476 26.3664 28.2361 26.3642C28.2261 26.3622 28.2161 26.3605 28.2061 26.3591C28.1948 26.3575 28.1834 26.3563 28.1719 26.3554C28.1611 26.3545 28.1504 26.3538 28.1396 26.3534C28.1285 26.3531 28.1174 26.3531 28.1063 26.3533C28.095 26.3536 28.0838 26.3542 28.0726 26.3551C28.0666 26.3556 28.0608 26.3555 28.0549 26.356C27.403 26.4268 26.7175 26.4272 26.0508 26.356C26.0454 26.3555 26.0402 26.3556 26.0348 26.3551C26.0234 26.3542 26.012 26.3536 26.0005 26.3533C25.9884 26.353 25.9763 26.353 25.9643 26.3534C25.9556 26.3538 25.9471 26.3542 25.9386 26.3549C25.9239 26.356 25.9095 26.3575 25.8951 26.3596C25.8893 26.3605 25.8836 26.3616 25.8777 26.3626C25.8612 26.3655 25.8449 26.369 25.8287 26.3733C25.8249 26.3743 25.8211 26.3754 25.8173 26.3765C25.8 26.3815 25.7829 26.387 25.766 26.3934C25.7628 26.3947 25.7597 26.3959 25.7565 26.3973C25.7397 26.404 25.7233 26.4113 25.7071 26.4194C25.7033 26.4213 25.6996 26.4233 25.6958 26.4253C25.6807 26.4332 25.666 26.4417 25.6516 26.4507C25.6465 26.454 25.6415 26.4573 25.6365 26.4607C25.6238 26.4692 25.6114 26.478 25.5993 26.4873C25.5928 26.4923 25.5865 26.4977 25.5801 26.5029C25.57 26.5114 25.5599 26.52 25.5502 26.5291C25.5429 26.536 25.5358 26.5432 25.5287 26.5504C25.5203 26.559 25.5121 26.5675 25.5042 26.5765C25.4969 26.5848 25.4899 26.5934 25.4829 26.6021C25.4755 26.6111 25.4684 26.6203 25.4615 26.6297C25.4551 26.6387 25.4488 26.648 25.4426 26.6573C25.4358 26.6676 25.4292 26.6781 25.4229 26.6888C25.4177 26.6978 25.4126 26.7069 25.4077 26.7161C25.4013 26.7282 25.3951 26.7404 25.3893 26.7529C25.3852 26.7616 25.3813 26.7703 25.3776 26.7794C25.372 26.7929 25.3666 26.8066 25.3618 26.8206C25.3601 26.8253 25.3581 26.8297 25.3564 26.8344L24.8439 28.3754C24.7289 28.7216 24.3774 28.9008 24.0608 28.7751L21.4136 27.7203C21.2621 27.6601 21.1405 27.5375 21.0711 27.3752C21.0015 27.2121 20.9938 27.0304 21.0493 26.8635L21.5614 25.3232C21.5631 25.3183 21.564 25.3134 21.5655 25.3084C21.57 25.2942 21.574 25.28 21.5776 25.2657C21.5799 25.2561 21.5822 25.2465 21.5843 25.2369C21.5871 25.2236 21.5895 25.2102 21.5916 25.1967C21.5933 25.1856 21.5949 25.1746 21.5962 25.1634C21.5976 25.1517 21.5986 25.1398 21.5994 25.1281C21.6003 25.1155 21.601 25.1029 21.6013 25.0903C21.6015 25.0798 21.6014 25.0694 21.6013 25.0589C21.6011 25.0454 21.6005 25.032 21.5996 25.0187C21.5989 25.0087 21.598 24.9988 21.5968 24.9889C21.5954 24.9756 21.5938 24.9623 21.5918 24.9491C21.5901 24.9387 21.5882 24.9286 21.5861 24.9183C21.5837 24.9059 21.5811 24.8937 21.5781 24.8815C21.5753 24.8703 21.5722 24.8594 21.5689 24.8484C21.5657 24.8374 21.5624 24.8266 21.5587 24.8159C21.5546 24.804 21.5502 24.7922 21.5456 24.7805C21.5418 24.7711 21.538 24.7616 21.5338 24.7524C21.5285 24.7402 21.5226 24.7284 21.5166 24.7165C21.5122 24.7079 21.5078 24.6992 21.503 24.6906C21.4967 24.6792 21.49 24.6681 21.483 24.657C21.4775 24.6484 21.4719 24.6397 21.4661 24.6312C21.4593 24.6213 21.4521 24.6117 21.4448 24.6022C21.4377 24.5928 21.4303 24.5837 21.4228 24.5748C21.4161 24.5669 21.4092 24.5591 21.4021 24.5516C21.393 24.5417 21.3835 24.532 21.3737 24.5226C21.3673 24.5165 21.3609 24.5106 21.3543 24.5047C21.3431 24.4948 21.3317 24.4854 21.32 24.4763C21.3165 24.4736 21.3133 24.4705 21.3098 24.4679C20.7621 24.0587 20.2459 23.5847 19.7756 23.059C19.7737 23.057 19.7718 23.0553 19.7699 23.0533C19.7573 23.0394 19.7442 23.0262 19.7307 23.0136C19.727 23.0102 19.7234 23.0068 19.7197 23.0035C19.7064 22.9916 19.6928 22.9805 19.6788 22.9699C19.6742 22.9664 19.6695 22.9629 19.6649 22.9595C19.6517 22.95 19.6382 22.9411 19.6245 22.9328C19.6188 22.9292 19.613 22.9257 19.6071 22.9223C19.5941 22.9149 19.5807 22.908 19.5672 22.9015C19.5607 22.8983 19.5542 22.8952 19.5476 22.8924C19.5341 22.8864 19.5203 22.8811 19.5065 22.8761C19.5001 22.8738 19.4936 22.8714 19.4871 22.8694C19.4725 22.8646 19.4578 22.8607 19.443 22.8571C19.4373 22.8557 19.4315 22.8542 19.4257 22.8529C19.4098 22.8495 19.3937 22.8468 19.3774 22.8447C19.3728 22.8441 19.3682 22.8433 19.3635 22.8429C19.3462 22.841 19.3289 22.84 19.3115 22.8395C19.3078 22.8394 19.3041 22.8393 19.3004 22.8393C19.2825 22.8392 19.2647 22.84 19.2467 22.8414C19.2433 22.8418 19.2399 22.8419 19.2364 22.8422C19.2188 22.844 19.2013 22.8466 19.1838 22.8499C19.1797 22.8507 19.1757 22.8513 19.1717 22.8521C19.1553 22.8555 19.1391 22.8598 19.1229 22.8645C19.1175 22.8661 19.1121 22.8677 19.1067 22.8695C19.0923 22.8742 19.078 22.8795 19.0637 22.8854C19.0566 22.8883 19.0496 22.8912 19.0426 22.8944C19.03 22.9001 19.0175 22.9063 19.0051 22.9129C18.9971 22.9171 18.9891 22.9217 18.9812 22.9263C18.9752 22.9298 18.969 22.9327 18.963 22.9364L17.6655 23.756C17.5251 23.8446 17.3603 23.8678 17.2016 23.8212C17.043 23.7747 16.9112 23.6646 16.8302 23.5106L15.4221 20.8417C15.2537 20.5222 15.3541 20.112 15.6462 19.9275L16.9405 19.1088C16.9444 19.1063 16.9478 19.1034 16.9516 19.1009C16.9635 19.093 16.9753 19.0848 16.9866 19.0761C16.9939 19.0706 17.001 19.065 17.0081 19.0592C17.0183 19.0509 17.0281 19.0422 17.0378 19.0332C17.0455 19.026 17.0531 19.0188 17.0605 19.0112C17.0686 19.0031 17.0763 18.9947 17.0839 18.9862C17.0919 18.9772 17.0999 18.9681 17.1075 18.9586C17.1138 18.9507 17.1198 18.9427 17.1258 18.9346C17.1335 18.9241 17.1411 18.9134 17.1483 18.9025C17.1536 18.8945 17.1586 18.8863 17.1636 18.878C17.1704 18.8668 17.1771 18.8554 17.1833 18.8437C17.188 18.8347 17.1924 18.8255 17.1968 18.8164C17.2023 18.8051 17.2076 18.7939 17.2124 18.7824C17.2168 18.7719 17.2208 18.7612 17.2248 18.7505C17.2288 18.7399 17.2327 18.7294 17.2361 18.7186C17.24 18.7066 17.2434 18.6944 17.2468 18.682C17.2495 18.6721 17.2521 18.6623 17.2544 18.6522C17.2574 18.6392 17.26 18.6259 17.2622 18.6126C17.264 18.6029 17.2656 18.5932 17.267 18.5834C17.2688 18.5701 17.2702 18.5567 17.2713 18.5432C17.2722 18.5328 17.273 18.5224 17.2735 18.512C17.2742 18.4995 17.2743 18.4868 17.2743 18.4742C17.2743 18.4623 17.2741 18.4504 17.2735 18.4385C17.273 18.4275 17.2722 18.4163 17.2713 18.4053C17.2702 18.3915 17.2686 18.3779 17.2668 18.3643C17.2654 18.3546 17.2639 18.345 17.2621 18.3354C17.2595 18.3206 17.2565 18.3059 17.253 18.2912C17.2518 18.2865 17.2512 18.2817 17.25 18.2769C17.071 17.578 16.9549 16.8515 16.9046 16.1174C16.9042 16.1115 16.9031 16.1057 16.9026 16.0997C16.9013 16.0865 16.8999 16.0732 16.8981 16.0601C16.8964 16.0487 16.8947 16.0374 16.8926 16.0263C16.8903 16.0143 16.8879 16.0026 16.8852 15.9909C16.8823 15.9785 16.8792 15.9662 16.8757 15.9541C16.8729 15.9443 16.8698 15.9345 16.8667 15.9248C16.8623 15.9115 16.8577 15.8983 16.8526 15.8853C16.8495 15.8771 16.846 15.8689 16.8425 15.8608C16.8367 15.8474 16.8306 15.8341 16.8241 15.8211C16.8203 15.8134 16.8163 15.806 16.8122 15.7986C16.8054 15.786 16.7983 15.7736 16.7909 15.7615C16.786 15.7537 16.781 15.7462 16.7759 15.7386C16.7685 15.7277 16.7611 15.7169 16.7532 15.7064C16.7469 15.6982 16.7404 15.6902 16.7338 15.6822C16.7264 15.6732 16.7189 15.6643 16.7111 15.6557C16.7032 15.647 16.695 15.6387 16.6867 15.6305C16.6795 15.6233 16.6722 15.6162 16.6646 15.6093C16.6553 15.6007 16.6457 15.5927 16.6359 15.5847C16.6286 15.5787 16.6212 15.5729 16.6137 15.5673C16.6035 15.5596 16.5931 15.5525 16.5824 15.5455C16.5743 15.5402 16.5662 15.5349 16.5579 15.53C16.5477 15.5239 16.5372 15.5181 16.5266 15.5125C16.517 15.5074 16.5074 15.5026 16.4975 15.4981C16.4879 15.4937 16.4782 15.4895 16.4683 15.4855C16.4568 15.4808 16.4451 15.4764 16.4333 15.4725C16.4245 15.4696 16.4158 15.4669 16.4068 15.4643C16.3937 15.4604 16.3804 15.4572 16.367 15.4542C16.3624 15.4532 16.3579 15.4518 16.3533 15.4509L14.8777 15.1658C14.7184 15.1352 14.579 15.0374 14.4849 14.8903C14.3908 14.7433 14.355 14.5674 14.3832 14.3932Z" fill="url(#paint1_linear_178_9324)"/>
<path d="M27.0538 22.5708C30.7978 22.5708 33.8439 19.2374 33.8439 15.1401C33.8439 11.0428 30.7978 7.70941 27.0538 7.70941C23.3097 7.70941 20.2637 11.0427 20.2637 15.1401C20.2637 19.2374 23.3096 22.5708 27.0538 22.5708ZM27.0538 9.17416C30.0598 9.17416 32.5054 11.8505 32.5054 15.1401C32.5054 18.4297 30.0598 21.106 27.0538 21.106C24.0478 21.106 21.6022 18.4297 21.6022 15.1401C21.6022 11.8505 24.0477 9.17416 27.0538 9.17416Z" fill="url(#paint2_linear_178_9324)"/>
<defs>
<linearGradient id="paint0_linear_178_9324" x1="23.5" y1="26.3594" x2="23.5" y2="49.7953" gradientUnits="userSpaceOnUse">
<stop stop-color="#F86CA7"/>
<stop offset="1" stop-color="#FF7F18"/>
</linearGradient>
<linearGradient id="paint1_linear_178_9324" x1="27.0537" y1="0" x2="27.0537" y2="30.2808" gradientUnits="userSpaceOnUse">
<stop stop-color="#F86CA7"/>
<stop offset="1" stop-color="#FF7F18"/>
</linearGradient>
<linearGradient id="paint2_linear_178_9324" x1="27.0538" y1="7.70941" x2="27.0538" y2="22.5708" gradientUnits="userSpaceOnUse">
<stop stop-color="#F86CA7"/>
<stop offset="1" stop-color="#FF7F18"/>
</linearGradient>
</defs>
</svg>
