<svg width="40" height="45" viewBox="0 0 40 45" fill="none" xmlns="http://www.w3.org/2000/svg">
<path d="M38.9576 17.1945L33.8451 2.15821C33.6921 1.70815 33.3932 1.35242 33.0037 1.1565C32.6142 0.960677 32.1806 0.948225 31.7829 1.12139L18.4948 6.9064C18.3381 6.97466 18.2116 7.11056 18.1435 7.28435C18.0753 7.45796 18.0709 7.65531 18.1312 7.83268L19.9505 13.1835C19.995 13.3144 20.0717 13.4242 20.1681 13.5039C19.7006 13.2858 19.1958 13.1752 18.6769 13.1842C18.259 13.1911 17.8517 13.2738 17.4665 13.4279V8.88392C17.4665 8.48815 17.1829 8.16727 16.8332 8.16727H2.59568C1.71582 8.16727 1 8.97727 1 9.97288V42.1944C1 43.19 1.71582 44 2.59568 44H31.0709C31.9507 44 32.6665 43.19 32.6665 42.1944V26.7705C32.8875 26.7228 33.1062 26.6528 33.3204 26.5596C35.2758 25.7081 36.2546 23.2152 35.5023 21.0025C35.3451 20.5401 35.1235 20.1195 34.8463 19.7523L38.594 18.1208C38.9204 17.9785 39.0832 17.564 38.9576 17.1945ZM2.26666 9.97288C2.26666 9.76756 2.41423 9.60058 2.59568 9.60058H16.1999V14.6172C16.1999 14.8887 16.3356 15.137 16.5502 15.2583C16.7649 15.3796 17.0218 15.3533 17.2137 15.1901C17.6439 14.8243 18.1563 14.6263 18.6954 14.6173C19.3732 14.608 20.0169 14.901 20.507 15.4477C20.9969 15.994 21.2666 16.7171 21.2666 17.4839C21.2665 19.0645 20.1301 20.3504 18.7333 20.3504C18.1801 20.3504 17.6546 20.1522 17.2137 19.7774C17.0218 19.6145 16.765 19.5881 16.5502 19.7093C16.3356 19.8306 16.1999 20.0789 16.1999 20.3504V25.367H12.8176C12.9536 24.9312 13.0268 24.4703 13.0328 23.9974C13.0477 22.8433 12.6577 21.7506 11.9347 20.9204C11.212 20.0906 10.2525 19.6337 9.23306 19.6337C7.13793 19.6338 5.43332 21.5628 5.43332 23.9337C5.43332 24.4291 5.50654 24.9116 5.64881 25.367H2.26666V9.97288ZM26.4602 26.5141C26.7834 27.001 26.9584 27.5807 26.9663 28.1908C26.9762 28.958 26.7156 29.6861 26.2325 30.2408C25.7497 30.7951 25.1107 31.1003 24.4332 31.1003C23.0363 31.1001 21.8999 29.8143 21.8999 28.2336C21.8999 27.6077 22.075 27.013 22.4063 26.5141C22.5503 26.2969 22.5737 26.0063 22.4664 25.7634C22.3592 25.5204 22.1399 25.367 21.8999 25.367H17.4666V21.5399C17.869 21.7008 18.2954 21.7837 18.7333 21.7837C20.1894 21.7837 21.4562 20.8517 22.094 19.4875L23.5892 23.8854C23.6496 24.0627 23.7697 24.2057 23.9232 24.2829C24.0767 24.3602 24.2511 24.3651 24.4077 24.2969L28.1556 22.6652C28.1669 23.1273 28.2449 23.5871 28.3893 24.031C28.5512 24.5285 28.7894 24.9785 29.0898 25.367H26.9666C26.7266 25.367 26.5072 25.5204 26.4 25.7634C26.2927 26.0063 26.3161 26.2969 26.4602 26.5141ZM22.5342 17.5878C22.5331 17.5874 22.5321 17.5873 22.531 17.587C22.5317 17.5526 22.5332 17.5184 22.5332 17.4839C22.5332 16.3303 22.1294 15.2446 21.3961 14.4268C21.099 14.0954 20.7632 13.8269 20.4018 13.6244C20.4277 13.631 20.454 13.6365 20.4809 13.6394C20.7201 13.6662 20.9511 13.5364 21.0785 13.3062C21.364 12.79 21.7793 12.3971 22.2797 12.1697C22.909 11.8836 23.603 11.8975 24.2339 12.2085C24.8645 12.5193 25.3456 13.0846 25.589 13.8003C26.0905 15.2755 25.4379 16.9373 24.1342 17.5049C23.618 17.7298 23.0647 17.7583 22.5342 17.5878ZM16.1999 42.5667H2.59568C2.41423 42.5667 2.26666 42.3997 2.26666 42.1944V26.8003H6.69998C6.93993 26.8003 7.1593 26.6468 7.26657 26.4039C7.37384 26.1609 7.35049 25.8703 7.2064 25.6532C6.87509 25.1542 6.69998 24.5596 6.69998 23.9337C6.69998 22.353 7.83633 21.0671 9.23322 21.0671C9.91081 21.0671 10.5498 21.3723 11.0326 21.9266C11.5157 22.4812 11.7763 23.2092 11.7664 23.9766C11.7585 24.5866 11.5835 25.1663 11.2603 25.6533C11.1162 25.8704 11.0928 26.161 11.2001 26.404C11.3074 26.6469 11.5267 26.8003 11.7666 26.8003H16.1999V30.6277C15.8148 30.4736 15.4075 30.3909 14.9896 30.384C13.9716 30.3638 13.004 30.8085 12.2704 31.6266C11.5371 32.4444 11.1333 33.5301 11.1333 34.6837C11.1334 37.0546 12.8381 38.9834 14.9333 38.9834C15.3711 38.9834 15.7975 38.9006 16.1999 38.7396V42.5667ZM31.3999 42.1944C31.3999 42.3997 31.2523 42.5667 31.0709 42.5667H17.4666V37.5501C17.4666 37.2786 17.331 37.0303 17.1163 36.909C16.9017 36.7879 16.6448 36.814 16.4529 36.9771C16.0119 37.352 15.4864 37.5501 14.9333 37.5501C13.5365 37.5501 12.4 36.2643 12.4 34.6837C12.4 33.9169 12.6697 33.1937 13.1596 32.6475C13.6497 32.1008 14.2914 31.8089 14.9711 31.8171C15.5102 31.8261 16.0226 32.0241 16.4529 32.3899C16.6447 32.5529 16.9015 32.5793 17.1163 32.4581C17.331 32.3368 17.4666 32.0885 17.4666 31.817V26.8004H20.8487C20.7065 27.2557 20.6333 27.7382 20.6333 28.2337C20.6333 30.6046 22.3379 32.5335 24.4331 32.5336C25.4524 32.5336 26.412 32.0767 27.1347 31.247C27.8577 30.4168 28.2477 29.3241 28.2328 28.17C28.2267 27.6971 28.1537 27.2362 28.0176 26.8004H31.3999V42.1944ZM33.4104 18.8417C33.1864 18.9392 33.0304 19.1716 33.0073 19.4419C32.9843 19.7121 33.0983 19.9739 33.3018 20.118C33.7692 20.4491 34.1214 20.9329 34.32 21.5171C34.8215 22.9923 34.169 24.6543 32.8654 25.2218C32.2329 25.4971 31.5397 25.472 30.9132 25.1507C30.2864 24.8294 29.8121 24.2559 29.5779 23.5357C29.3916 22.9631 29.3709 22.3509 29.5181 21.7652C29.5837 21.5039 29.5132 21.2232 29.336 21.0401C29.2173 20.9173 29.0642 20.8525 28.9087 20.8525C28.8324 20.8525 28.7553 20.8682 28.6815 20.9002L24.5438 22.7017L23.3294 19.1298C23.7561 19.1165 24.1804 19.0205 24.589 18.8426C26.5444 17.9913 27.5233 15.4984 26.771 13.2857C26.405 12.209 25.6836 11.3599 24.7396 10.8946C23.7953 10.4291 22.754 10.4097 21.8074 10.8398C21.4196 11.016 21.0657 11.2586 20.7552 11.5588L19.5406 7.98676L32.2375 2.45911C32.3195 2.42355 32.409 2.42588 32.4893 2.46628C32.5696 2.50668 32.6311 2.58005 32.6627 2.67285L37.5478 17.0403L33.4104 18.8417Z" fill="url(#paint0_linear_178_9328)" stroke="url(#paint1_linear_178_9328)" stroke-width="0.5"/>
<defs>
<linearGradient id="paint0_linear_178_9328" x1="20" y1="1" x2="20" y2="44" gradientUnits="userSpaceOnUse">
<stop stop-color="#F86CA7"/>
<stop offset="1" stop-color="#FF7F18"/>
</linearGradient>
<linearGradient id="paint1_linear_178_9328" x1="20" y1="1" x2="20" y2="44" gradientUnits="userSpaceOnUse">
<stop stop-color="#F86CA7"/>
<stop offset="1" stop-color="#FF7F18"/>
</linearGradient>
</defs>
</svg>
