<svg width="41" height="42" viewBox="0 0 41 42" fill="none" xmlns="http://www.w3.org/2000/svg">
<path d="M2.04167 0H38.7917C39.3331 0 39.8525 0.244369 40.2353 0.679349C40.6182 1.11433 40.8333 1.70429 40.8333 2.31944V39.4306C40.8333 40.0457 40.6182 40.6357 40.2353 41.0707C39.8525 41.5056 39.3331 41.75 38.7917 41.75H2.04167C1.50018 41.75 0.980877 41.5056 0.59799 41.0707C0.215103 40.6357 0 40.0457 0 39.4306V2.31944C0 1.70429 0.215103 1.11433 0.59799 0.679349C0.980877 0.244369 1.50018 0 2.04167 0ZM4.08333 4.63889V37.1111H36.75V4.63889H4.08333ZM36.75 20.875L29.5307 29.0766L26.6437 25.7945L30.9762 20.875L26.6437 15.9555L29.5307 12.6734L36.75 20.875ZM9.85717 20.875L14.1896 25.7945L11.3027 29.0766L4.08333 20.875L11.3027 12.6734L14.1896 15.9578L9.85717 20.875ZM18.8732 32.4722H14.5285L21.9602 9.27778H26.3048L18.8732 32.4722Z" fill="url(#paint0_linear_178_9360)"/>
<defs>
<linearGradient id="paint0_linear_178_9360" x1="20.4167" y1="0" x2="20.4167" y2="41.75" gradientUnits="userSpaceOnUse">
<stop stop-color="#F86CA7"/>
<stop offset="1" stop-color="#FF9F52"/>
</linearGradient>
</defs>
</svg>
