<svg width="113" height="122" viewBox="0 0 113 122" fill="none" xmlns="http://www.w3.org/2000/svg">
<path d="M19.572 95.1488C19.5748 95.6196 19.5952 95.9997 19.598 96.4705L19.5629 96.6518L19.5278 96.8332C19.5917 98.4444 19.8517 99.5294 19.8341 99.62L19.9072 99.7283C20.144 99.9623 20.416 100.015 20.5973 100.05C20.5973 100.05 20.489 100.123 20.4539 100.304C20.3281 100.468 20.3485 100.848 20.5853 101.082C20.8221 101.316 21.1496 101.568 21.4946 101.729C22.4566 102.103 23.635 102.332 24.5415 102.507C25.4655 102.592 26.1176 102.625 26.1176 102.625C26.1176 102.625 26.4071 102.587 26.878 102.584C27.0768 102.529 27.3488 102.581 27.7289 102.561C28.4892 102.52 29.2495 102.479 30.0099 102.439C31.3316 102.413 32.7441 102.404 34.1565 102.396C36.9813 102.379 40.005 102.307 43.1194 102.252C46.3068 102.305 49.5469 102.087 52.9508 101.994C56.2815 101.793 59.7789 102.189 63.4694 101.587C63.9578 101.494 64.4462 101.4 64.8439 101.289L65.5487 101.049C65.7651 100.903 66.0546 100.865 66.2711 100.719C66.7946 100.444 67.245 100.061 67.6224 99.5703C67.9997 99.0791 68.1227 98.4445 68.2281 97.9007C68.3483 96.7953 68.2344 95.9268 68.1382 94.9676C68.1325 94.026 68.0363 93.0668 68.0306 92.1252C67.9175 88.3412 67.7138 84.5396 67.5451 80.5567C67.2809 72.6992 67.1601 64.5873 66.8755 56.3495C66.8088 54.2675 66.742 52.1854 66.6753 50.1033C66.5966 49.0535 66.6085 48.0212 66.5298 46.9714L66.4483 45.4507C66.3724 44.8717 66.3696 44.4009 66.2031 43.8043C66.1651 43.5148 66.1272 43.2253 65.9986 42.9182C65.9606 42.6287 65.832 42.3216 65.6859 42.1052L65.4842 41.6899C65.4111 41.5817 65.3556 41.3828 65.1919 41.2571C65.1188 41.1488 65.0633 40.95 64.8996 40.8242L64.5897 40.482C64.5166 40.3738 64.3529 40.248 64.1891 40.1222C64.0254 39.9964 63.9523 39.8882 63.771 39.8531C63.5167 39.7097 63.1717 39.5488 62.8997 39.4961L62.4465 39.4082L61.9932 39.3204C61.7213 39.2677 61.4318 39.3056 61.1598 39.2529C60.0369 39.2234 58.9871 39.3021 57.9373 39.3808C56.8874 39.4595 55.8376 39.5382 54.7878 39.6169C46.4974 40.1735 38.1283 39.6801 29.762 39.6576C27.6799 39.7244 25.5802 39.8818 23.4454 40.2205C22.9571 40.3139 22.378 40.3898 21.8721 40.5739C21.3837 40.6674 20.7871 40.8339 20.2461 41.1993C19.7225 41.4741 19.0557 42.0032 18.8245 42.7108C18.5933 43.4184 18.5786 43.9799 18.5638 44.5413C18.6425 45.5911 18.6481 46.5328 18.7268 47.5826C18.8055 48.6324 18.8111 49.5741 18.7992 50.6063C18.7929 52.5802 18.8772 54.5716 18.7802 56.5279C18.7675 60.4757 18.6642 64.4058 18.7774 68.1899C18.7886 70.0731 18.8905 71.9739 18.9017 73.8571C18.913 75.7403 18.9418 77.5329 18.9706 79.3255C19.0106 83.0013 19.0858 86.4958 19.2692 89.9172C19.643 91.8707 19.5257 93.4469 19.572 95.1488ZM20.8124 69.3367C20.6992 65.5527 20.7674 61.8038 20.7801 57.856C20.7927 53.9083 20.8054 49.9605 20.6367 45.9776C20.5405 45.0185 20.4793 43.878 20.7485 43.4599C20.927 43.0242 21.7576 42.6209 22.7343 42.434C24.6147 41.9519 26.6237 41.777 28.6152 41.6926C29.665 41.6139 30.6066 41.6083 31.6389 41.6203C32.6711 41.6322 33.7034 41.6442 34.7356 41.6561C36.8002 41.68 38.8647 41.7039 40.9292 41.7278C45.0582 41.7756 49.1873 41.8234 53.369 41.5992C54.4189 41.5205 55.4511 41.5325 56.5009 41.4538C57.5508 41.3751 58.6006 41.2964 59.5598 41.2001C60.519 41.1038 61.5512 41.1158 62.367 41.2739C63.1829 41.432 63.8554 41.8445 64.1856 42.5669C64.6065 43.3068 64.7028 44.266 64.7991 45.2252C64.8925 45.7135 64.8953 46.1844 64.8806 46.7458L64.9621 48.2665C65.0464 50.2579 65.1132 52.34 65.1975 54.3314C65.4996 62.4785 65.5649 70.3915 65.8467 78.1584C65.9423 82.0331 66.146 85.8347 66.2767 89.528C66.3786 91.4288 66.4074 93.2214 66.5269 95.0316C66.5325 95.9732 66.6463 96.8417 66.5964 97.5844C66.5465 98.3272 66.2774 98.7453 65.6457 99.0931C65.1046 99.4585 64.2361 99.5724 63.4406 99.7944C62.6627 99.9258 61.7942 100.04 60.9432 100.063C59.2413 100.109 57.63 100.173 55.9457 100.129C52.5594 100.131 49.3192 100.35 46.2955 100.422C44.7749 100.503 43.2894 100.404 41.7688 100.485C40.2657 100.476 38.8357 100.575 37.4233 100.583C34.5985 100.6 31.9374 100.743 29.402 100.722C28.7324 100.78 28.0803 100.748 27.5012 100.824C27.4106 100.806 27.2117 100.862 27.1211 100.844C26.6503 100.847 26.469 100.812 26.469 100.812C26.469 100.812 25.2379 100.855 24.0974 100.917C23.5359 100.902 22.9745 100.887 22.5212 100.799C22.1587 100.729 21.8867 100.676 21.9598 100.784C21.5065 100.697 21.144 100.626 21.0709 100.518C20.8896 100.483 20.9423 100.211 20.8692 100.103C21.2494 100.082 21.5185 99.6643 21.6618 99.4099C21.6794 99.3193 21.6794 99.3193 21.6794 99.3193C21.697 99.2286 21.5101 98.2519 21.411 96.8219L21.4286 96.7313L21.4461 96.6406C21.3906 96.4418 21.4433 96.1698 21.3878 95.9709C21.3239 94.3597 21.4588 92.6929 21.4124 90.9909C21.3892 90.14 21.366 89.289 21.2522 88.4205C21.229 87.5695 21.2058 86.7186 21.1826 85.8676C21.1363 84.1657 21.1075 82.3731 21.0787 80.5805C20.9655 76.7965 20.9255 73.1207 20.8124 69.3367Z" fill="#5F5F5F"/>
<path d="M13.9605 107.604C13.9281 108.256 14.0595 109.034 14.5156 109.592C14.9716 110.151 15.4804 110.438 15.9891 110.725C17.1149 111.225 18.3108 111.363 19.3255 111.465C20.4309 111.585 21.4631 111.597 22.586 111.627C24.7412 111.668 26.8409 111.511 28.923 111.444C29.9728 111.365 31.005 111.377 32.0549 111.299C33.1047 111.22 34.137 111.232 35.1692 111.244C37.2337 111.268 39.4065 111.219 41.4886 111.152C45.7258 111.127 49.9076 110.902 54.0717 110.769L62.8885 110.408C62.8885 110.408 64.4267 110.236 65.766 110.12C65.8566 110.137 65.9297 110.245 66.111 110.281C66.383 110.333 66.9444 110.348 67.7954 110.325C68.7546 110.229 70.0033 110.094 70.8865 109.419C71.103 109.273 71.3194 109.127 71.4452 108.963C71.6616 108.817 71.7874 108.653 71.9132 108.489C72.1472 108.253 72.1823 108.071 72.1823 108.071C72.2175 107.89 72.3432 107.726 72.3608 107.636L72.5393 107.2C72.5744 107.019 72.6096 106.837 72.6271 106.747L72.6798 106.475L72.6974 106.384C72.6798 106.475 72.7501 106.112 72.7852 105.931C72.8204 105.75 72.8555 105.568 72.8907 105.387C73.008 103.811 72.8913 102.472 72.8829 101.059L72.767 96.8043L72.4445 88.2771C72.337 85.4347 72.3201 82.6098 72.3033 79.785C72.2864 76.9602 72.2695 74.1353 72.2527 71.3105C72.219 65.6608 72.0946 59.9936 71.9702 54.3263L71.7384 45.8167L71.7531 45.2552C71.7883 45.0739 71.7152 44.9657 71.7503 44.7844C71.7124 44.4949 71.7826 44.1323 71.8529 43.7697L72.0757 41.6497C72.1256 40.9069 72.2661 40.1817 72.2254 39.4214C72.2753 38.6787 72.2345 37.9184 72.1031 37.1405C71.9717 36.3626 71.6766 35.4589 70.9661 34.7569C70.8024 34.6312 70.5656 34.3972 70.4019 34.2714C70.2381 34.1456 70.0744 34.0198 69.8025 33.9671C69.3668 33.7886 69.0218 33.6277 68.5685 33.5398C66.9369 33.2236 65.5069 33.3227 64.0769 33.4218C61.3076 33.6375 58.4652 33.745 55.6403 33.7619L47.1658 33.8125C44.341 33.8293 41.4986 33.9368 38.6562 34.0443C35.8138 34.1518 32.9889 34.1687 30.129 34.3668L28.0293 34.5242L25.9297 34.6816C24.5903 34.7983 23.1779 34.8067 21.7655 34.8151C20.8239 34.8207 19.7916 34.8088 18.85 34.8144L18.7418 34.8875C18.616 35.0512 18.5078 35.1243 18.382 35.288C18.2007 35.2529 18.1101 35.2353 17.9288 35.2002C17.458 35.203 16.8059 35.1707 16.2999 35.3548C15.7033 35.5213 15.1623 35.8867 14.82 36.1966C14.3696 36.5796 14.118 36.907 13.9571 37.2521C13.9396 37.3427 13.8313 37.4158 13.8313 37.4158C13.8138 37.5065 13.8138 37.5064 13.7056 37.5795C13.688 37.6702 13.6704 37.7608 13.6704 37.7608C13.5095 38.1058 13.4392 38.4684 13.3865 38.7404C13.3514 38.9217 13.3163 39.103 13.2987 39.1936L13.246 39.4656L13.2284 39.5562L13.1933 39.7375L13.2312 40.027C13.2516 40.4072 13.2544 40.878 13.2924 41.1675L13.2629 42.2904L13.2945 44.5538L13.3401 49.1712C13.331 50.6742 13.4125 52.1949 13.3858 53.7886L13.5397 58.3329C13.612 61.3566 13.7575 64.4886 13.8299 67.5123C13.9022 70.536 13.8664 73.6327 13.8481 76.6389L13.7581 85.8386L13.7588 95.0558C13.8136 98.1702 13.9766 101.211 14.049 104.235C14.0518 104.706 14.0546 105.177 14.0574 105.648C14.0603 106.118 14.0631 106.589 14.1565 107.078C14.1389 107.168 14.0483 107.151 14.0307 107.241C13.978 107.513 13.978 107.513 13.9605 107.604ZM15.5718 95.4072L15.6266 86.3888L15.6814 77.3704C15.6997 74.3642 15.718 71.3581 15.6456 68.3344C15.5915 62.3046 15.2479 56.3127 15.1032 50.2653L15.0674 41.2293C15.047 40.8492 15.0266 40.469 15.0063 40.0888L15.0034 39.618L15.021 39.5274C15.0386 39.4368 15.0737 39.2554 15.0913 39.1648C15.144 38.8929 15.1791 38.7116 15.2142 38.5303C15.2142 38.5303 15.2318 38.4396 15.2494 38.349C15.2669 38.2583 15.2669 38.2583 15.2845 38.1677C15.3021 38.077 15.3197 37.9864 15.4279 37.9133C15.5888 37.5683 15.8579 37.1502 16.2001 36.8403C16.8846 36.2205 18.025 36.1594 17.9344 36.1418C18.0426 36.0687 18.2239 36.1039 18.3321 36.0308C18.3876 36.2296 18.5514 36.3554 18.7151 36.4812C18.8057 36.4988 18.8057 36.4988 18.8057 36.4988C19.7473 36.4932 20.7796 36.5051 21.7212 36.4995C23.1336 36.4911 24.546 36.4826 25.976 36.3836C26.3562 36.3632 26.7364 36.3428 27.0259 36.3049L28.0757 36.2262L30.1753 36.0688C32.9271 35.9437 35.6789 35.8186 38.5037 35.8018C41.3285 35.7849 44.0803 35.6598 46.8145 35.6254L55.1983 35.5573C58.0232 35.5404 60.7749 35.4153 63.6349 35.2172C65.0649 35.1181 66.4042 35.0015 67.6909 35.1568C68.343 35.1891 68.8693 35.3851 69.3956 35.5812C69.4863 35.5987 69.65 35.7245 69.7231 35.8328C69.7962 35.941 69.8868 35.9586 69.9599 36.0668C70.0329 36.175 70.106 36.2832 70.1791 36.3914C70.2522 36.4996 70.3253 36.6078 70.3077 36.6985C70.6759 37.7104 70.6843 39.1228 70.529 40.4094C70.4468 41.8043 70.2009 43.0733 70.0835 44.6495L70.333 53.0685C70.4749 58.6451 70.6168 64.2217 70.6681 69.7807L70.7362 78.1645C70.7531 80.9894 70.6793 83.7967 70.8044 86.5484C70.9463 92.125 71.3602 97.7543 71.429 103.223C71.4874 103.892 71.455 104.544 71.3321 105.179C71.2969 105.36 71.2794 105.451 71.2442 105.632L71.1915 105.904L71.174 105.995L71.1037 106.357C71.051 106.629 70.9252 106.793 70.8901 106.974C70.8901 106.974 70.8725 107.065 70.8549 107.156C70.8374 107.246 70.7116 107.41 70.694 107.501C70.5331 107.846 70.1909 108.156 69.758 108.448C69.4334 108.667 68.9274 108.851 68.6204 108.98C68.4391 108.945 68.1671 108.892 67.8776 108.93C66.0295 108.76 63.3305 108.613 63.3305 108.613L54.9845 108.971C50.7297 109.087 46.4573 109.293 42.2201 109.319C40.0473 109.368 37.9828 109.344 35.8101 109.393L34.2164 109.366C33.6549 109.352 33.0935 109.337 32.6051 109.43C31.5553 109.509 30.4324 109.479 29.3825 109.558C27.2829 109.716 25.1101 109.765 23.0456 109.741C22.0133 109.729 20.9811 109.717 19.8758 109.597C18.8611 109.494 17.8464 109.392 16.9926 108.944C16.6476 108.783 16.3201 108.531 16.174 108.315C16.0278 108.099 15.9723 107.9 15.9519 107.52L15.8788 107.411C16.0046 107.248 16.1128 107.175 16.1304 107.084C16.148 106.993 16.148 106.993 16.148 106.993C16.1276 106.613 16.0166 106.215 16.1044 105.762C16.1016 105.291 16.0988 104.82 16.1135 104.259C15.8247 101.381 15.5711 98.3227 15.5718 95.4072Z" fill="#787878"/>
<path d="M47.3471 106.644C47.3646 106.553 47.3822 106.463 47.3998 106.372C47.3794 105.992 47.4497 105.629 47.3211 105.322C47.3007 104.942 47.0814 104.617 46.9353 104.401C46.8622 104.293 46.7891 104.185 46.6985 104.167C46.6078 104.149 46.6254 104.059 46.6254 104.059C46.298 103.807 45.9529 103.646 45.6079 103.485C45.2453 103.415 44.9909 103.272 44.6108 103.292C43.3066 103.227 42.093 103.18 40.7361 103.388C40.5372 103.443 40.4466 103.426 40.2477 103.481C40.0489 103.537 39.9582 103.519 39.85 103.592C39.7418 103.665 39.5429 103.721 39.4347 103.794C39.3265 103.867 39.2007 104.031 39.1831 104.121C39.148 104.303 39.0398 104.376 39.0047 104.557C38.9695 104.738 38.952 104.829 38.9168 105.01C38.8817 105.192 38.8817 105.191 38.9372 105.39C38.978 106.151 39.1269 106.838 39.4748 107.47C39.6033 107.777 39.6589 107.976 40.0418 108.426C40.1149 108.534 40.188 108.642 40.2786 108.66C40.3693 108.678 40.5506 108.713 40.6237 108.821C40.7143 108.839 40.8956 108.874 40.9863 108.891C41.0769 108.909 41.1675 108.926 41.2582 108.944C41.8197 108.959 42.3811 108.973 42.8695 108.88L42.9777 108.807C43.2117 108.57 43.355 108.316 43.3902 108.134C43.4808 108.152 43.4808 108.152 43.5715 108.17C43.861 108.132 44.3318 108.129 45.1652 108.196C45.4371 108.249 45.7266 108.211 45.9986 108.264C46.4694 108.261 46.9402 108.258 47.4286 108.165C47.3906 107.875 47.4609 107.513 47.423 107.223C47.2944 106.916 47.3119 106.825 47.3471 106.644ZM45.4842 107.035C45.1947 107.073 44.9958 107.129 45.0865 107.146C44.5981 107.24 44.1097 107.333 43.7851 107.553C43.5862 107.608 43.478 107.681 43.3698 107.754C43.3319 107.465 42.9868 107.304 42.8231 107.178C42.7325 107.16 42.7325 107.16 42.7325 107.16C42.2617 107.163 41.7733 107.257 41.4107 107.186L41.32 107.169C41.3931 107.277 41.2645 106.97 41.1008 106.844C40.9167 106.338 40.7326 105.832 40.7298 105.362L40.7473 105.271C40.838 105.288 40.9462 105.215 41.1275 105.251C42.1949 105.081 43.4991 105.146 44.622 105.175C44.894 105.228 45.4378 105.333 45.6016 105.459L45.6922 105.477C45.7829 105.494 45.7829 105.494 45.8384 105.693C45.8939 105.892 45.9318 106.182 45.9698 106.471L46.0077 106.761L45.9902 106.851C45.9902 106.851 45.9726 106.942 46.0632 106.96C45.8819 106.924 45.8644 107.015 45.4842 107.035Z" fill="#686868"/>
<path d="M102.478 6.09672C101.987 5.56437 101.317 5.25755 100.621 5.07733L100.119 4.96666C99.9387 4.95326 99.7579 4.93986 99.6326 4.91219C99.2712 4.88538 98.9795 4.90049 98.6735 4.85942C96.1166 4.79833 93.5331 4.86384 90.9762 4.80274C89.7255 4.76507 88.4603 4.67122 87.1951 4.57738C85.9299 4.48353 84.6093 4.40394 83.2645 4.68989C82.5993 4.86095 82.004 5.07392 81.3821 5.41349C80.8157 5.73881 80.2926 6.23265 79.9093 6.81031C79.526 7.38798 79.3378 8.03522 79.1497 8.68246C79.1111 8.99183 79.0314 9.37162 79.0482 9.66673L79.0022 10.6368C78.8883 13.1813 78.9961 15.6688 79.1449 18.0858C79.3081 20.5591 79.5533 22.8914 79.6322 25.2666C79.7112 27.6417 79.8166 29.8903 79.9221 32.1388C80.0561 35.8772 80.2022 39.4328 80.3314 42.6933C80.3385 43.4101 80.3986 43.8737 80.3986 43.8737L80.4131 43.9299C80.7504 44.3222 81.0396 44.0682 81.1216 43.9273C81.1216 43.9273 81.1216 43.9273 81.1626 43.8569C81.1626 43.8569 81.1579 43.379 81.0954 42.6765C80.995 39.5283 80.8368 36.1555 80.6907 32.5999C80.5997 30.4075 80.5352 28.0886 80.4153 25.7838C80.3509 23.4649 80.0912 21.0763 79.9424 18.6592C79.7382 16.2564 79.6448 13.8251 79.6623 11.3653L79.7228 10.4514L79.7833 9.5376C79.8219 9.22823 79.875 8.97502 79.9137 8.66565C80.0222 8.3982 80.0608 8.08884 80.1693 7.82139C80.2778 7.55394 80.4008 7.34266 80.5648 7.06095C80.7431 6.83542 80.9215 6.60989 81.1144 6.44053C81.541 6.03138 81.9966 5.73456 82.5509 5.59201C83.6307 5.19457 84.8525 5.11991 86.1033 5.15758C86.3949 5.14248 86.7009 5.18355 87.007 5.22462L87.9661 5.2774C88.5782 5.35953 89.2313 5.37124 89.8844 5.38295C92.4003 5.51447 94.9283 5.46322 97.4708 5.46814C98.1239 5.47985 98.7215 5.50581 99.3746 5.51752C99.9723 5.54348 100.529 5.63988 101.059 5.86287C101.589 6.08586 101.982 6.46396 102.293 6.9829C102.589 7.44568 102.803 8.04931 102.892 8.62528C103.14 9.81913 103.166 11.07 103.207 12.377C103.233 13.6279 103.329 14.9207 103.355 16.1716C103.53 21.217 103.731 26.1358 103.945 30.8718C104.012 32.0523 104.023 33.247 104.091 34.4274C104.102 35.6221 104.225 36.7883 104.278 37.9126C104.33 39.0369 104.383 40.1611 104.38 41.2997C104.363 42.382 104.235 43.4929 103.898 44.478C103.56 45.4632 103.068 46.3083 102.155 46.6629C101.256 47.0738 100.299 47.2599 99.3277 47.3899C97.3563 47.5376 95.4091 47.3197 93.5053 47.2703C92.5462 47.2175 91.6159 47.2771 90.7001 47.3928C89.7843 47.5085 88.924 47.61 88.119 47.6973C86.4393 47.8298 84.7861 47.8357 83.4342 47.4049C83.239 47.3353 83.0993 47.2515 82.9595 47.1676C82.8897 47.1257 82.8198 47.0838 82.7499 47.0419L82.6101 46.9581L82.5403 46.9161L82.4704 46.8742C82.4005 46.8323 82.4005 46.8323 82.3307 46.7904C82.1909 46.7065 82.1065 46.6084 82.1065 46.6084C82.1065 46.6084 81.7283 46.2865 81.5019 45.8657C81.2754 45.4448 81.1454 44.9393 81.1599 44.9954C81.0588 44.6022 81.0275 44.251 80.8878 44.1671C80.8733 44.111 80.8324 44.1814 80.8058 44.308C80.7793 44.4346 80.7262 44.6878 80.7574 45.0391C80.7477 45.4608 80.8921 46.0225 81.1041 46.3872C81.2173 46.5976 81.3161 46.7519 81.4004 46.8499C81.4148 46.9061 81.4847 46.948 81.4992 47.0042C81.5136 47.0604 81.5136 47.0604 81.5136 47.0604C81.5136 47.0604 81.5136 47.0604 81.5835 47.1023C81.6534 47.1442 81.6678 47.2004 81.7521 47.2984C81.822 47.3404 81.9063 47.4385 82.0461 47.5223C82.1159 47.5642 82.1159 47.5642 82.1858 47.6061C82.5352 47.8157 82.9955 47.9968 83.3858 48.136C84.222 48.4 85.1257 48.467 86.015 48.4779C86.9043 48.4888 87.8345 48.4292 88.7503 48.3134C89.2082 48.2556 89.6661 48.1977 90.124 48.1398C90.3457 48.0828 90.5819 48.082 90.8036 48.025C91.0398 48.0241 91.2615 47.9671 91.4977 47.9663C93.3582 47.8471 95.3608 48.0508 97.4454 48.1135C98.5154 48.1378 99.5709 48.1059 100.639 47.8912C100.916 47.82 101.193 47.7487 101.47 47.6774C101.747 47.6061 102.01 47.4787 102.273 47.3512L102.632 47.1391C102.743 47.1106 102.894 47.0117 103.046 46.9127C103.295 46.7291 103.543 46.5455 103.721 46.32C104.476 45.3474 104.826 44.1795 104.939 43.0125C105.108 41.8312 105.111 40.6926 105.099 39.4979C105.087 38.3032 104.965 37.137 104.898 35.9566C104.83 34.7762 104.819 33.5815 104.737 32.3449C104.55 27.4822 104.335 22.5072 104.146 17.4056C104.119 16.1548 104.023 14.862 103.983 13.5549C103.942 12.2479 103.916 10.997 103.805 9.64807C103.757 9.00168 103.639 8.31337 103.466 7.63931C103.269 7.3308 102.97 6.62908 102.478 6.09672Z" fill="#686868"/>
<path d="M101.579 39.9649C101.804 39.9071 101.987 39.919 102.212 39.8612L102.238 39.2653C102.238 39.0298 102.251 38.8495 102.251 38.6141C102.264 38.1984 102.277 37.7827 102.234 37.3815C102.197 33.9743 102.117 30.4013 102.009 26.7179C101.948 24.8486 101.83 22.9937 101.643 21.098C101.584 20.1705 101.511 19.1878 101.382 18.2196C101.309 17.2369 101.25 16.3095 101.248 15.3676C101.229 13.4285 101.322 11.4605 101.035 9.41353L100.993 9.24778L100.908 8.91625C100.879 8.80574 100.907 8.68077 100.822 8.58472L100.457 8.56095L99.6125 8.54236L98.1075 8.51705C97.0807 8.48657 96.11 8.44162 95.0974 8.46639C91.0605 8.38527 87.052 8.41466 83.0583 8.73478L82.6505 8.78074L82.299 8.81223L82.1161 8.80037L82.0037 8.82929C81.9474 8.84374 82.0179 8.88452 81.9617 8.89898L81.9925 9.95141C81.9937 10.4224 82.0092 10.9486 82.0666 11.4051C82.0691 12.347 82.0858 13.3441 82.0882 14.286C82.1074 16.2251 82.1123 18.1089 82.0467 19.9519C81.9861 23.6787 82.0238 27.3213 82.1874 30.7549C82.2764 32.4992 82.3931 34.1187 82.5803 35.7789C82.6668 36.5813 82.7533 37.3838 82.896 38.1718C82.9528 38.3929 82.9534 38.6283 83.0245 38.9046C83.1388 39.5821 83.1962 40.0386 83.2104 40.0938L83.2246 40.1491C83.6052 40.4636 83.8437 40.2255 83.9697 40.0164L83.9555 39.9612C83.9555 39.9612 83.8981 39.5047 83.7838 38.8272C83.7554 38.7166 83.7127 38.5509 83.7405 38.4259C83.6682 37.6787 83.5255 36.8907 83.4391 36.0882C83.2661 34.4832 83.1493 32.8638 83.0746 31.1747C82.9252 27.7964 82.9159 24.2643 82.9203 20.552C82.9296 18.7234 82.9247 16.8396 82.9198 14.9558C82.9174 14.0139 82.9149 13.072 82.8982 12.0748C82.897 11.6039 82.8958 11.1329 82.8803 10.6067C82.8513 10.2607 82.8785 9.90029 82.8353 9.49905C83.1868 9.46756 83.5384 9.43606 83.8899 9.40456C84.3681 9.3994 84.8883 9.32453 85.3665 9.31937C86.3649 9.23934 87.3214 9.22903 88.334 9.20425C90.303 9.16916 92.2721 9.13406 94.2553 9.15422C96.2386 9.17438 98.236 9.2498 100.177 9.33967L100.304 9.36601C100.361 9.58703 100.361 9.8225 100.418 10.0435C100.476 10.5 100.477 10.971 100.549 11.4827C100.607 12.4101 100.624 13.4073 100.57 14.3637C100.573 15.3056 100.589 16.3027 100.648 17.2302C100.707 18.1576 100.779 19.1403 100.838 20.0678C100.956 21.9227 101.129 23.7631 101.246 25.618C101.397 29.2317 101.476 32.8046 101.541 36.0868C101.515 36.9182 101.545 37.7352 101.576 38.5521C101.576 38.7876 101.591 39.0783 101.592 39.3138C101.535 39.3282 101.31 39.3861 101.184 39.3598C101.015 39.4031 100.776 39.4057 100.607 39.4491C99.0325 39.6184 97.5417 39.6484 96.0366 39.623C94.5316 39.5977 93.1532 39.5987 91.789 39.655C90.4249 39.7113 89.1453 39.8636 87.9782 39.987C87.5705 40.033 87.2189 40.0645 86.9236 40.0815C86.7407 40.0696 86.6283 40.0985 86.6283 40.0985C86.6283 40.0985 86.108 40.1734 85.5878 40.2483C85.0676 40.3231 84.5474 40.398 84.6036 40.3836C83.7461 40.5452 83.1838 40.6898 84.5906 40.7992C85.4488 40.8731 86.6301 40.805 86.6301 40.805C86.6301 40.805 86.7425 40.776 86.9254 40.7879C87.0379 40.759 87.1645 40.7854 87.277 40.7564C87.6285 40.7249 87.9801 40.6934 88.3878 40.6475C89.0347 40.599 89.6674 40.4952 90.3705 40.4322C91.7204 40.3206 93.1408 40.2499 94.6459 40.2752C96.1509 40.3005 97.7122 40.3114 99.3717 40.2381C99.8919 40.1632 100.722 40.1266 101.579 39.9649Z" fill="#686868"/>
<path d="M94.7807 44.779L94.7263 44.793C94.6174 44.8211 94.439 44.805 94.3301 44.833C94.0973 44.831 93.934 44.873 93.9884 44.859C93.1417 44.9529 92.612 45.151 93.984 45.2935C94.1624 45.3095 94.3951 45.3116 94.5884 45.3857L94.7667 45.4017L94.8211 45.3877L94.945 45.4178C95.1233 45.4339 95.3016 45.4499 95.465 45.4079C95.4747 45.2197 95.4694 44.9734 95.494 44.8433C95.479 44.7852 95.479 44.7852 95.5186 44.7131L95.5036 44.6551C95.4887 44.597 95.4887 44.597 95.5282 44.5249C95.5528 44.3948 95.5229 44.2786 95.5229 44.2786C95.5475 44.1485 95.5177 44.0324 95.4729 43.8582L95.4825 43.6699L95.4773 43.4237C95.4123 42.9451 95.2928 42.4806 94.8861 42.028C94.8167 41.9839 94.8018 41.9259 94.7324 41.8818C94.663 41.8378 94.6481 41.7797 94.5242 41.7496C94.4004 41.7195 94.331 41.6755 94.2765 41.6895C94.2071 41.6455 94.1527 41.6594 94.0982 41.6734C93.8654 41.6714 93.6722 41.5973 93.4394 41.5952C93.0284 41.5771 92.6173 41.559 92.2211 41.599C91.9883 41.597 91.825 41.639 91.5922 41.6369C91.4833 41.6649 91.3743 41.6929 91.2654 41.7209C91.102 41.763 91.0081 41.849 90.9141 41.9351C90.5382 42.2794 90.301 42.7119 90.1727 43.1163C90.0594 43.5788 89.961 44.0994 90.0954 44.622C90.1552 44.8542 90.2843 45.1306 90.4529 45.3348C90.6365 45.5972 90.9536 45.7013 91.2558 45.7474C91.7907 45.7956 92.1719 45.6976 92.5286 45.7297L92.583 45.7157C92.771 45.5435 92.8501 45.3993 92.8202 45.2832C92.7903 45.1671 92.6911 45.0069 92.6217 44.9628L92.5523 44.9188C92.0718 44.8566 91.6361 44.9687 91.334 44.9225C91.2101 44.8925 91.0863 44.8624 91.0713 44.8043C90.987 44.7022 90.9027 44.6001 90.8579 44.4259C90.7832 44.1356 90.8025 43.7591 90.8913 43.4268C90.98 43.0944 91.1925 42.7921 91.3656 42.5619C91.514 42.4618 91.514 42.4618 91.7318 42.4058C91.8952 42.3638 92.0735 42.3798 92.2914 42.3238C92.6875 42.2838 93.0441 42.3159 93.4552 42.334C93.6335 42.3501 93.8119 42.3662 93.9902 42.3822C94.0596 42.4263 94.1685 42.3983 94.2379 42.4423L94.3073 42.4864C94.5304 42.6767 94.6595 42.953 94.7096 43.3735C94.7693 43.6057 94.7298 43.6778 94.7596 43.7939C94.7895 43.9101 94.7649 44.0402 94.7948 44.1563C94.7948 44.1563 94.8246 44.2725 94.8 44.4026C94.815 44.4607 94.815 44.4607 94.8299 44.5188L94.8448 44.5768L94.8598 44.6349C94.8203 44.707 94.8202 44.707 94.7807 44.779C94.8352 44.765 94.8352 44.765 94.7807 44.779Z" fill="#686868"/>
<path d="M74.3086 96.8848C85.292 84.4385 95.2028 68.6015 92.1923 51.2537C92.1213 50.8757 91.6644 51.4629 91.6021 51.5757C90.3807 53.9203 88.7979 55.9327 86.7685 57.5806C86.5886 57.7463 86.1751 58.6815 86.6202 58.3824C88.8824 56.6863 90.4471 54.4135 91.337 51.7091C91.1271 51.9024 90.9472 52.0682 90.7649 52.2915C92.7079 54.16 94.2934 56.3023 95.4939 58.6885C95.6273 58.9537 96.294 58.1732 96.133 57.878C94.8773 55.4319 93.2918 53.2895 91.3211 51.3911C91.1554 51.2112 90.7838 51.8307 90.7491 51.9735C90.0186 54.3094 88.7033 56.1308 86.7961 57.6106C86.7566 57.8686 86.7172 58.1267 86.6478 58.4123C88.9471 56.5159 90.7422 54.2525 92.1205 51.597C91.943 51.7051 91.7355 51.8408 91.5303 51.919C94.4974 68.9188 84.8959 84.2492 74.0947 96.4721C73.8225 96.7783 73.8541 97.4143 74.3086 96.8848Z" fill="#686868"/>
<path d="M42.3662 55.6261C35.7649 56.3914 29.5703 59.9551 27.633 66.6281C26.7002 69.833 26.6763 72.9662 27.9918 76.0277C29.0681 78.539 30.7901 80.7155 33.0384 82.2701C35.4779 83.9443 38.3959 84.7575 41.3138 84.9489C44.3992 85.1402 47.628 84.8293 50.4264 83.466C55.76 80.8829 58.654 74.9035 57.769 69.1155C56.6927 61.8924 49.3979 54.765 41.7922 55.6978C41.553 55.7217 41.3138 55.9848 41.6965 55.937C48.3695 55.1238 54.875 61.0792 56.7406 67.1304C58.3909 72.44 56.7884 78.539 52.3398 81.9831C49.7088 84.04 46.5039 84.7097 43.2272 84.7575C40.2614 84.7815 37.2717 84.2074 34.6647 82.7724C30.0965 80.2371 26.9872 74.9753 27.5373 69.7134C27.92 66.1976 29.2833 62.8013 31.8903 60.3378C34.7126 57.659 38.4676 56.3197 42.2944 55.8652C42.5097 55.8174 42.7488 55.5782 42.3662 55.6261Z" fill="#4CB849"/>
<path d="M29.5942 78.5823C34.569 80.0652 39.4721 81.0458 44.6383 80.1609C49.0391 79.3955 53.99 77.8409 57.2667 74.6838C57.5059 74.4446 56.9797 74.349 56.8123 74.5164C55.1859 76.0949 53.1529 77.1234 51.0482 77.9366C48.8238 78.7976 46.5038 79.4673 44.136 79.85C39.2329 80.6153 34.5929 79.6108 29.9051 78.2236C29.6659 78.1279 29.2833 78.4867 29.5942 78.5823Z" fill="#4CB849"/>
<path d="M27.1309 71.4783C28.3268 71.9327 29.1639 72.9372 30.4076 73.3438C31.5078 73.6787 32.6558 73.7026 33.8039 73.7026C36.7696 73.6787 39.7354 73.4156 42.6533 72.9372C45.5713 72.4589 48.4653 71.7653 51.2875 70.8564C53.4879 70.1389 55.784 69.3735 57.3387 67.5797C57.4583 67.4362 56.9321 67.484 56.8364 67.6036C55.0904 69.5888 52.316 70.3302 49.8525 71.0717C47.2933 71.837 44.6624 72.411 42.0076 72.8176C39.3527 73.2242 36.674 73.4395 33.9952 73.4634C32.7993 73.4634 31.5317 73.4395 30.4076 72.9851C29.3552 72.5545 28.6138 71.6696 27.5614 71.2869C27.4418 71.1913 26.9395 71.4065 27.1309 71.4783Z" fill="#4CB849"/>
<path d="M29.3316 63.5162C30.9819 64.6164 32.9909 64.9274 34.9283 65.0948C37.033 65.2861 39.1616 65.2383 41.2664 64.9991C45.5476 64.4968 49.6853 63.1336 53.4165 61.0049C53.7274 60.8136 53.4404 60.5505 53.1773 60.694C49.6136 62.727 45.6911 64.0424 41.6251 64.5686C39.6161 64.8317 37.607 64.8795 35.574 64.736C33.541 64.5925 31.4363 64.3533 29.7142 63.2053C29.5468 63.0857 29.0685 63.3488 29.3316 63.5162Z" fill="#4CB849"/>
<path d="M41.649 55.8206C40.788 60.8672 40.6684 66.0095 41.362 71.1039C41.9839 75.7678 43.0841 80.6709 46.002 84.4738C46.0977 84.5933 46.6 84.402 46.5043 84.2824C43.6103 80.5035 42.534 75.5765 41.9121 70.9604C41.2425 65.9138 41.3381 60.7715 42.1991 55.7489C42.1991 55.5814 41.673 55.6771 41.649 55.8206Z" fill="#4CB849"/>
<path d="M36.3627 56.9392C34.5689 58.47 33.7318 60.8378 33.0382 63.0382C32.2728 65.5017 31.8662 68.0848 31.8902 70.6679C31.938 75.6666 33.7796 80.4501 37.0563 84.2291C37.2237 84.4204 37.726 84.2052 37.5586 83.9899C34.4015 80.3544 32.6077 75.7623 32.4642 70.9549C32.3924 68.611 32.7034 66.2671 33.3013 63.9949C33.9471 61.6271 34.8081 58.8048 36.7215 57.1784C36.9846 56.9632 36.5541 56.7718 36.3627 56.9392Z" fill="#4CB849"/>
<path d="M46.9579 56.7763C52.3155 63.8559 54.4919 73.0402 52.8895 81.7701C52.8416 82.0093 53.3917 81.9375 53.4396 81.7223C55.066 72.9446 52.8656 63.6885 47.4602 56.5611C47.3406 56.3697 46.8144 56.5611 46.9579 56.7763Z" fill="#4CB849"/>
</svg>
